<?xml version="1.0" standalone="no"?>
<!DOCTYPE svg PUBLIC "-//W3C//DTD SVG 1.1//EN" "http://www.w3.org/Graphics/SVG/1.1/DTD/svg11.dtd" >
<svg>
<metadata>
Created by FontForge 20090622 at Mon Nov 19 10:51:26 2018
 By ffonts
Copyright \(c\) 2018 by YdhraStudio. All rights reserved.
</metadata>
<defs>
<font id="BoatmanRegular" horiz-adv-x="449" >
  <font-face 
    font-family="Boatman Regular \(Free Personal Use\)"
    font-weight="400"
    font-stretch="normal"
    units-per-em="1000"
    panose-1="2 0 5 6 0 0 0 2 0 4"
    ascent="800"
    descent="-200"
    x-height="749"
    cap-height="750"
    bbox="0 -166.758 3443.4 750"
    underline-thickness="50"
    underline-position="-50"
    stemh="102"
    stemv="100"
    unicode-range="U+000D-U+007A"
  />
<missing-glyph horiz-adv-x="300" 
 />
    <glyph glyph-name="b.001_o.001_A_T_m.001_a.001_N" unicode="boatman" horiz-adv-x="3627" 
d="M41 0c-76 0 -9 41 -9 96v569c0 43 -70 85 0 85h196c87 0 142 -92 142 -192c0 -46 -20 -95 -51 -132c-2 -2 -4 -6 -4 -9c1 -4 2 -7 5 -9c52 -32 81 -110 80 -192c-3 -96 -48 -216 -154 -216h-205zM151 437l44 21c45 22 74 50 74 100c0 52 -25 89 -77 90h-38
c-11 1 -18 -3 -18 -22l-2 -164c0 -16 5 -31 17 -25zM148 106l84 -1c44 0 66 69 66 127c0 61 -24 126 -74 126c-7 0 -68 -32 -77 -36c-6 -3 -14 -2 -14 -17l-1 -174c0 -17 2 -25 16 -25zM678 523c0 -79 -40 -186 -33 -252c5 -44 29 -80 89 -98c-16 16 -22 25 -22 53
c0 80 40 187 33 253c-5 43 -28 79 -88 97c15 -16 21 -25 21 -53zM702 749c325 0 306 -749 -2 -749c-320 0 -342 749 2 749zM695 113c181 0 181 528 0 528c-180 0 -180 -528 0 -528zM1776 0c-43 0 8 62 13 85l130 587c8 33 -25 78 6 78h149c35 0 -3 -47 4 -78l20 -92l20 92
c7 31 -31 78 4 78h149c31 0 -1 -45 6 -78l130 -587c5 -23 56 -85 13 -85h-95c-53 0 -5 34 -17 91l-102 461c-1 5 -4 8 -7 8s-6 -2 -7 -8l-44 -199l60 -274c6 -27 56 -79 4 -79h-96c-10 0 -15 2 -18 6c-2 -4 -8 -6 -18 -6h-95c-53 0 -3 52 3 79l60 274l-44 199
c-1 6 -3 8 -6 8s-6 -3 -7 -8l-102 -461c-13 -57 35 -91 -18 -91h-95zM2098 127c-3 -17 -7 -35 -12 -54c-3 -15 8 -34 12 -49c5 15 15 34 12 49c-4 19 -8 37 -12 54zM2506 0c-43 0 8 62 13 85l130 587c8 33 -25 78 7 78h149c35 0 -3 -47 4 -78l130 -593c6 -27 56 -79 4 -79
h-96c-45 0 0 44 -6 73l-13 60c-3 15 -13 18 -20 23l-142 89c-6 3 -14 -3 -17 -15l-30 -139c-13 -57 35 -91 -18 -91h-95zM2687 341l98 -65c6 -4 8 12 6 24l-56 257c-1 6 -4 9 -7 9s-6 -3 -7 -8l-43 -198c-2 -13 3 -15 9 -19zM971 0v0c-43 0 8 62 13 85l130 587
c8 33 -25 78 7 78h149c35 0 -3 -47 4 -78l130 -593c6 -27 56 -79 4 -79h-96c-45 0 0 44 -6 73l-33 149c-3 15 -12 23 -20 23h-122c-7 0 -14 -3 -17 -15l-30 -139c-13 -57 35 -91 -18 -91h-95zM1152 340h84c7 0 8 12 6 23l-42 189c-1 6 -4 8 -7 8s-6 -3 -7 -8l-43 -192
c-2 -13 1 -20 9 -20zM1543 95v539c-2 8 -6 14 -15 14h-81c-42 0 -34 -40 -49 -40c-14 0 -17 25 -14 38l18 80c4 20 9 24 19 24h345c9 0 15 -4 19 -24l18 -80c3 -13 0 -38 -14 -38c-16 0 -7 40 -49 40h-81c-10 0 -14 -6 -15 -14l-1 -539c0 -54 67 -95 -9 -95h-82
c-74 0 -9 41 -9 95zM3145 654v-38l171 -295v333c1 55 -67 96 10 96h82c74 0 9 -41 9 -96v-559c0 -54 65 -95 -9 -95h-82c-77 0 -9 41 -10 95v35l-171 294v-329c0 -54 65 -95 -9 -95h-82c-76 0 -8 41 -9 95c-1 187 -1 373 0 559c1 55 -67 96 9 96h82c74 0 9 -41 9 -96z" />
    <glyph glyph-name=".notdef" horiz-adv-x="300" 
 />
    <glyph glyph-name="NULL" horiz-adv-x="0" 
 />
    <glyph glyph-name="NULL" horiz-adv-x="0" 
 />
    <glyph glyph-name="CR" unicode="&#xd;" horiz-adv-x="300" 
 />
    <glyph glyph-name="space" unicode=" " horiz-adv-x="300" 
 />
    <glyph glyph-name="E" unicode="E" horiz-adv-x="415" 
d="M148 648v0c-7 -2 -12 -7 -12 -22l-2 -126c0 -29 0 -42 29 -42h115c25 0 25 20 36 20c14 0 14 -8 14 -31v-87c0 -30 -5 -30 -16 -30c-9 0 -12 23 -34 23h-97c-30 1 -48 4 -48 -22l-1 -200c0 -17 2 -29 16 -29h30h122c42 0 33 39 48 39s18 -25 15 -37l-18 -81
c-4 -19 -10 -23 -19 -23h-148h-109h-28c-76 0 -9 41 -9 95v570c0 43 -70 85 0 85h37h109h148c9 0 15 -4 19 -24l18 -80c3 -13 0 -38 -15 -38s-6 40 -48 40h-152z" />
    <glyph glyph-name="F" unicode="F" horiz-adv-x="415" 
d="M148 648v0c-7 -2 -12 -7 -12 -22l-2 -126c0 -29 0 -42 29 -42h115c25 0 25 20 36 20c14 0 14 -8 14 -31v-87c0 -30 -5 -30 -16 -30c-9 0 -12 23 -34 23h-97c-30 1 -48 4 -48 -22c0 -75 0 -161 -1 -236c0 -54 68 -95 -9 -95h-82c-76 0 -9 41 -9 95v570c0 43 -70 85 0 85
h37h109h148c9 0 15 -4 19 -24l18 -80c3 -13 0 -38 -15 -38s-6 40 -48 40h-152z" />
    <glyph glyph-name="G" unicode="G" horiz-adv-x="502" 
d="M436 346v-72c0 -120 -42 -277 -197 -274c-180 -4 -239 251 -239 388c0 184 97 362 249 362c72 0 109 -32 132 -62c19 -24 60 23 32 -52l-22 -57c-21 -53 -26 -7 -42 15c-21 32 -49 46 -100 46c-86 0 -143 -122 -143 -250c0 -81 21 -276 133 -279c74 2 96 108 96 163l1 79
c0 54 -93 81 -4 81h95c70 0 14 -37 9 -88z" />
    <glyph glyph-name="H" unicode="H" horiz-adv-x="492" 
d="M128 654v-174c0 -17 1 -21 20 -21c39 0 112 1 151 1c17 0 15 6 15 21c0 63 0 111 1 173c0 55 -68 96 9 96h82c74 0 9 -41 9 -96v-559c0 -54 65 -95 -9 -95h-82c-77 0 -9 41 -9 95c-1 76 -1 165 -1 240c0 13 0 20 -13 20c-32 0 -114 -1 -147 0c-24 0 -26 -7 -26 -22v-238
c0 -54 65 -95 -9 -95h-82c-76 0 -8 41 -9 95c-1 187 -1 373 0 559c1 55 -67 96 9 96h82c74 0 9 -41 9 -96z" />
    <glyph glyph-name="I" unicode="I" horiz-adv-x="205" 
d="M128 654v0v-559c0 -54 65 -95 -9 -95h-82c-76 0 -8 41 -9 95c-1 187 -1 373 0 559c1 55 -67 96 9 96h82c74 0 9 -41 9 -96z" />
    <glyph glyph-name="J" unicode="J" horiz-adv-x="448" 
d="M371 654v-380c0 -116 -23 -274 -176 -274c-88 0 -127 52 -151 77c-30 31 -57 -4 -35 40l42 83c19 37 29 -19 39 -35c15 -25 43 -54 105 -54c67 0 75 111 75 163c0 119 0 262 1 380c0 55 -67 96 9 96h82c74 0 9 -41 9 -96z" />
    <glyph glyph-name="K" unicode="K" horiz-adv-x="494" 
d="M128 654v-225l143 234c39 63 -42 87 45 87h82c74 0 1 -41 -27 -87l-149 -244l160 -331c27 -56 107 -88 28 -88h-82c-87 0 -10 10 -46 88l-113 244l-41 -67v-170c0 -54 65 -95 -9 -95h-82c-76 0 -8 41 -9 95c-1 187 -1 373 0 559c1 55 -67 96 9 96h82c74 0 9 -41 9 -96z
" />
    <glyph glyph-name="L" unicode="L" horiz-adv-x="410" 
d="M128 654v-538c2 -9 6 -14 15 -14h152c42 0 34 39 49 39c14 0 17 -25 14 -37l-18 -81c-4 -19 -9 -23 -18 -23h-285c-76 0 -8 41 -9 95c-1 187 -1 373 0 559c1 55 -67 96 9 96h82c74 0 9 -41 9 -96z" />
    <glyph glyph-name="M" unicode="M" horiz-adv-x="691" 
d="M13 0v0c-30 0 5 62 9 85l89 587c5 33 -17 78 4 78h158c24 0 -2 -47 3 -78l44 -295l45 295c5 31 -22 78 2 78h159c21 0 -1 -45 4 -78l89 -587c4 -23 39 -85 9 -85h-98c-36 0 -4 34 -12 91l-69 461c0 5 -2 8 -5 8c-2 0 -3 -2 -4 -8c-42 -340 -23 -195 -65 -479
c-2 -13 3 -28 6 -42c2 -5 3 -9 3 -13c1 -11 -1 -18 -13 -18h-3h-95h-3c-12 0 -15 7 -13 18c0 4 1 8 3 13c3 14 8 29 6 42c-42 284 -24 139 -65 479c-1 6 -3 8 -5 8s-4 -3 -5 -8l-68 -461c-9 -57 24 -91 -12 -91h-98z" />
    <glyph glyph-name="N" unicode="N" horiz-adv-x="477" 
d="M128 654v-38l171 -295v333c1 55 -67 96 10 96h82c74 0 9 -41 9 -96v-559c0 -54 65 -95 -9 -95h-82c-77 0 -9 41 -10 95v35l-171 294v-329c0 -54 65 -95 -9 -95h-82c-76 0 -8 41 -9 95c-1 187 -1 373 0 559c1 55 -67 96 9 96h82c74 0 9 -41 9 -96z" />
    <glyph glyph-name="O" unicode="O" horiz-adv-x="538" 
d="M251 749c325 0 306 -749 -2 -749c-320 0 -342 749 2 749zM244 113c181 0 181 528 0 528c-180 0 -180 -528 0 -528z" />
    <glyph glyph-name="P" unicode="P" horiz-adv-x="420" 
d="M41 0c-76 0 -9 41 -9 95v570c0 43 -70 85 0 85h196c94 0 142 -105 142 -205c0 -75 -48 -200 -142 -200l-81 1c-6 0 -14 -2 -14 -17v-234c0 -54 65 -95 -9 -95h-83zM150 446l45 -1c49 0 74 50 74 100c0 52 -25 102 -77 103h-38c-11 0 -18 -3 -18 -22l-2 -156
c0 -16 4 -24 16 -24z" />
    <glyph glyph-name="Q" unicode="Q" horiz-adv-x="543" 
d="M251 750c294 0 306 -614 78 -731c24 -13 49 -27 76 -38c49 -18 109 21 80 -45l-33 -75c-26 -59 -38 -10 -72 19c-99 54 -146 105 -265 83c-36 -7 -66 -11 -48 29c11 25 22 50 34 75v2c-168 185 -130 681 150 681zM244 113c181 0 181 529 0 529c-180 0 -180 -529 0 -529z
" />
    <glyph glyph-name="R" unicode="R" horiz-adv-x="457" 
d="M41 0c-76 0 -9 41 -9 95v570c0 43 -70 85 0 85h196c94 0 142 -105 142 -205c0 -73 -45 -193 -133 -199l108 -258c24 -58 107 -88 28 -88h-82c-87 0 -14 8 -46 88l-96 242c-7 17 -16 16 -16 -1v-234c0 -54 65 -95 -9 -95h-83zM150 446l45 -1c49 0 74 50 74 100
c0 52 -25 102 -77 103h-38c-11 0 -18 -3 -18 -22l-2 -156c0 -16 4 -24 16 -24z" />
    <glyph glyph-name="S" unicode="S" horiz-adv-x="411" 
d="M105 550c1 -142 255 -118 255 -341c0 -118 -90 -210 -186 -210c-81 0 -119 46 -127 55c-21 20 -64 -30 -38 39l32 85c19 51 22 -7 49 -33c5 -5 27 -34 84 -34c46 0 82 41 82 87c0 143 -255 127 -255 342c0 118 90 210 187 210c80 0 118 -46 127 -55c20 -21 63 30 37 -39
l-31 -85c-20 -52 -23 7 -50 33c-4 4 -27 33 -83 33c-47 0 -83 -40 -83 -87z" />
    <glyph glyph-name="T" unicode="T" horiz-adv-x="473" 
d="M161 95v539c-2 8 -6 14 -15 14h-81c-42 0 -34 -40 -49 -40c-14 0 -17 25 -14 38l18 80c4 20 9 24 19 24h345c9 0 15 -4 19 -24l18 -80c3 -13 0 -38 -14 -38c-16 0 -7 40 -49 40h-81c-10 0 -14 -6 -15 -14l-1 -539c0 -54 67 -95 -9 -95h-82c-74 0 -9 41 -9 95z" />
    <glyph glyph-name="U" unicode="U" horiz-adv-x="471" 
d="M27 274v380c0 55 -65 96 9 96h82c77 0 9 -41 9 -96c1 -118 1 -261 1 -380c0 -52 16 -163 83 -163c66 0 82 111 82 163c0 119 0 262 1 380c0 55 -67 96 9 96h82c74 0 9 -41 9 -96v-380c0 -125 -34 -274 -183 -274c-151 0 -184 154 -184 274z" />
    <glyph glyph-name="V" unicode="V" horiz-adv-x="529" 
d="M461 750c44 0 -7 -63 -12 -85l-131 -587c-7 -34 25 -78 -6 -78h-150c-34 0 4 46 -3 78l-131 592c-6 27 -56 80 -3 80h96c44 0 -1 -44 6 -73l106 -479c1 -6 3 -9 6 -9s6 3 7 8l103 462c12 57 -36 91 17 91h95z" />
    <glyph glyph-name="W" unicode="W" horiz-adv-x="691" 
d="M628 750c30 0 -5 -63 -9 -85l-89 -587c-5 -34 17 -78 -4 -78h-159c-24 0 3 46 -2 78l-45 294l-44 -294c-5 -32 21 -78 -3 -78h-158c-21 0 1 44 -4 78l-89 587c-4 22 -39 85 -9 85h98c36 0 3 -34 12 -91l68 -462c1 -5 3 -8 5 -8s4 3 5 9c41 340 23 195 65 479
c2 13 -7 28 -11 41c-1 5 -2 10 -3 14c-1 10 1 18 14 18h77c29 0 29 -53 32 -73c42 -284 23 -139 65 -479c1 -6 2 -9 4 -9c3 0 5 3 5 8l69 462c8 57 -24 91 12 91h98z" />
    <glyph glyph-name="X" unicode="X" 
d="M16 750h95c54 0 11 -34 32 -91l57 -153l56 153c21 57 -22 91 32 91h95c43 0 -18 -63 -26 -85l-109 -290l109 -290c8 -23 69 -85 26 -85h-95c-54 0 -11 34 -32 91l-56 153l-57 -153c-21 -57 22 -91 -32 -91h-95c-43 0 18 62 26 85l109 290l-109 290c-8 22 -69 85 -26 85z
" />
    <glyph glyph-name="Y" unicode="Y" 
d="M149 379l-107 286c-8 22 -69 85 -26 85h95c54 0 11 -34 32 -91l56 -153l57 153c21 57 -22 91 32 91h95c43 0 -18 -63 -26 -85l-107 -286v-284c0 -54 65 -95 -9 -95h-82c-76 0 -9 41 -9 95c-1 95 -1 189 -1 284z" />
    <glyph glyph-name="Z" unicode="Z" horiz-adv-x="391" 
d="M255 750h40c70 0 42 -50 29 -85l-201 -563h4h21h122c42 0 33 39 49 39c14 0 17 -25 14 -37l-18 -81c-4 -19 -9 -23 -19 -23h-217v0h-48c-43 0 -30 62 -21 85l201 563h-1h-143c-42 0 -34 -40 -49 -40c-14 0 -17 25 -14 38l17 80c5 20 10 24 19 24h148h67z" />
    <glyph glyph-name="c" unicode="c" horiz-adv-x="479" 
d="M234 0v0c-149 0 -234 197 -234 388c0 184 97 362 249 362c72 0 109 -32 132 -62c19 -24 60 23 32 -52l-22 -57c-21 -53 -26 -7 -42 15c-21 32 -49 46 -100 46c-86 0 -143 -122 -143 -250c0 -137 45 -279 128 -279c62 0 91 29 106 54c9 16 20 72 39 35l41 -83
c23 -44 -4 -9 -34 -40c-24 -25 -63 -77 -152 -77z" />
    <glyph glyph-name="d" unicode="d" horiz-adv-x="464" 
d="M41 0v0c-76 0 -9 41 -9 95v570c0 43 -70 85 0 85h166c149 0 216 -194 216 -382c0 -187 -67 -368 -216 -368h-157zM136 626v0c-2 -168 -3 -326 -4 -495c0 -17 2 -25 16 -26h37c75 0 114 130 116 263c2 138 -36 278 -115 280h-32c-11 0 -18 -3 -18 -22z" />
    <glyph glyph-name="g" unicode="g" horiz-adv-x="502" 
d="M436 346v-72c0 -120 -42 -277 -197 -274c-180 -4 -239 251 -239 388c0 184 97 362 249 362c72 0 109 -32 132 -62c19 -24 60 23 32 -52l-22 -57c-21 -53 -26 -7 -42 15c-21 32 -49 46 -100 46c-86 0 -143 -122 -143 -250c0 -81 21 -276 133 -279c74 2 96 108 96 163l1 79
c0 54 -93 81 -4 81h95c70 0 14 -37 9 -88z" />
    <glyph glyph-name="h" unicode="h" horiz-adv-x="492" 
d="M128 654v-174c0 -17 1 -21 20 -21c39 0 112 1 151 1c17 0 15 6 15 21c0 63 0 111 1 173c0 55 -68 96 9 96h82c74 0 9 -41 9 -96v-559c0 -54 65 -95 -9 -95h-82c-77 0 -9 41 -9 95c-1 76 -1 165 -1 240c0 13 0 20 -13 20c-32 0 -114 -1 -147 0c-24 0 -26 -7 -26 -22v-238
c0 -54 65 -95 -9 -95h-82c-76 0 -8 41 -9 95c-1 187 -1 373 0 559c1 55 -67 96 9 96h82c74 0 9 -41 9 -96z" />
    <glyph glyph-name="i" unicode="i" horiz-adv-x="205" 
d="M128 654v0v-559c0 -54 65 -95 -9 -95h-82c-76 0 -8 41 -9 95c-1 187 -1 373 0 559c1 55 -67 96 9 96h82c74 0 9 -41 9 -96z" />
    <glyph glyph-name="n" unicode="n" horiz-adv-x="477" 
d="M128 654v-38l171 -295v333c1 55 -67 96 10 96h82c74 0 9 -41 9 -96v-559c0 -54 65 -95 -9 -95h-82c-77 0 -9 41 -10 95v35l-171 294v-329c0 -54 65 -95 -9 -95h-82c-76 0 -8 41 -9 95c-1 187 -1 373 0 559c1 55 -67 96 9 96h82c74 0 9 -41 9 -96z" />
    <glyph glyph-name="p" unicode="p" horiz-adv-x="420" 
d="M41 0c-76 0 -9 41 -9 95v570c0 43 -70 85 0 85h196c94 0 142 -105 142 -205c0 -75 -48 -200 -142 -200l-81 1c-6 0 -14 -2 -14 -17v-234c0 -54 65 -95 -9 -95h-83zM150 446l45 -1c49 0 74 50 74 100c0 52 -25 102 -77 103h-38c-11 0 -18 -3 -18 -22l-2 -156
c0 -16 4 -24 16 -24z" />
    <glyph glyph-name="s" unicode="s" horiz-adv-x="411" 
d="M105 550c1 -142 255 -118 255 -341c0 -118 -90 -210 -186 -210c-81 0 -119 46 -127 55c-21 20 -64 -30 -38 39l32 85c19 51 22 -7 49 -33c5 -5 27 -34 84 -34c46 0 82 41 82 87c0 143 -255 127 -255 342c0 118 90 210 187 210c80 0 118 -46 127 -55c20 -21 63 30 37 -39
l-31 -85c-20 -52 -23 7 -50 33c-4 4 -27 33 -83 33c-47 0 -83 -40 -83 -87z" />
    <glyph glyph-name="t" unicode="t" horiz-adv-x="473" 
d="M161 95v539c-2 8 -6 14 -15 14h-81c-42 0 -34 -40 -49 -40c-14 0 -17 25 -14 38l18 80c4 20 9 24 19 24h345c9 0 15 -4 19 -24l18 -80c3 -13 0 -38 -14 -38c-16 0 -7 40 -49 40h-81c-10 0 -14 -6 -15 -14l-1 -539c0 -54 67 -95 -9 -95h-82c-74 0 -9 41 -9 95z" />
    <glyph glyph-name="u" unicode="u" horiz-adv-x="471" 
d="M27 274v380c0 55 -65 96 9 96h82c77 0 9 -41 9 -96c1 -118 1 -261 1 -380c0 -52 16 -163 83 -163c66 0 82 111 82 163c0 119 0 262 1 380c0 55 -67 96 9 96h82c74 0 9 -41 9 -96v-380c0 -125 -34 -274 -183 -274c-151 0 -184 154 -184 274z" />
    <glyph glyph-name="v" unicode="v" horiz-adv-x="529" 
d="M461 750c44 0 -7 -63 -12 -85l-131 -587c-7 -34 25 -78 -6 -78h-150c-34 0 4 46 -3 78l-131 592c-6 27 -56 80 -3 80h96c44 0 -1 -44 6 -73l106 -479c1 -6 3 -9 6 -9s6 3 7 8l103 462c12 57 -36 91 17 91h95z" />
    <glyph glyph-name="w" unicode="w" horiz-adv-x="691" 
d="M628 750c30 0 -5 -63 -9 -85l-89 -587c-5 -34 17 -78 -4 -78h-159c-24 0 3 46 -2 78l-45 294l-44 -294c-5 -32 21 -78 -3 -78h-158c-21 0 1 44 -4 78l-89 587c-4 22 -39 85 -9 85h98c36 0 3 -34 12 -91l68 -462c1 -5 3 -8 5 -8s4 3 5 9c41 340 23 195 65 479
c2 13 -7 28 -11 41c-1 5 -2 10 -3 14c-1 10 1 18 14 18h77c29 0 29 -53 32 -73c42 -284 23 -139 65 -479c1 -6 2 -9 4 -9c3 0 5 3 5 8l69 462c8 57 -24 91 12 91h98z" />
    <glyph glyph-name="x" unicode="x" 
d="M16 750h95c54 0 11 -34 32 -91l57 -153l56 153c21 57 -22 91 32 91h95c43 0 -18 -63 -26 -85l-109 -290l109 -290c8 -23 69 -85 26 -85h-95c-54 0 -11 34 -32 91l-56 153l-57 -153c-21 -57 22 -91 -32 -91h-95c-43 0 18 62 26 85l109 290l-109 290c-8 22 -69 85 -26 85z
" />
    <glyph glyph-name="y" unicode="y" 
d="M149 379l-107 286c-8 22 -69 85 -26 85h95c54 0 11 -34 32 -91l56 -153l57 153c21 57 -22 91 32 91h95c43 0 -18 -63 -26 -85l-107 -286v-284c0 -54 65 -95 -9 -95h-82c-76 0 -9 41 -9 95c-1 95 -1 189 -1 284z" />
    <glyph glyph-name="z" unicode="z" horiz-adv-x="391" 
d="M255 750h40c70 0 42 -50 29 -85l-201 -563h4h21h122c42 0 33 39 49 39c14 0 17 -25 14 -37l-18 -81c-4 -19 -9 -23 -19 -23h-217v0h-48c-43 0 -30 62 -21 85l201 563h-1h-143c-42 0 -34 -40 -49 -40c-14 0 -17 25 -14 38l17 80c5 20 10 24 19 24h148h67z" />
    <glyph glyph-name="a" unicode="a" horiz-adv-x="529" 
d="M18 0v0c-43 0 8 62 13 85l130 587c8 33 -25 78 7 78h149c35 0 -3 -47 4 -78l130 -593c6 -27 56 -79 4 -79h-96c-45 0 0 44 -6 73l-33 149c-3 15 -12 23 -20 23h-122c-7 0 -14 -3 -17 -15l-30 -139c-13 -57 35 -91 -18 -91h-95zM199 340h84c7 0 8 12 6 23l-42 189
c-1 6 -4 8 -7 8s-6 -3 -7 -8l-43 -192c-2 -13 1 -20 9 -20z" />
    <glyph glyph-name="b" unicode="b" horiz-adv-x="451" 
d="M41 0v0c-76 0 -9 41 -9 95v570c0 43 -70 85 0 85h196c87 0 142 -92 142 -192c0 -46 -20 -96 -51 -132c-2 -3 -4 -6 -4 -10c1 -3 2 -6 5 -8c52 -33 81 -111 80 -192c-3 -96 -48 -216 -154 -216h-205zM150 459l45 -1c49 -1 74 50 74 100c0 51 -25 89 -77 90h-38
c-11 0 -18 -3 -18 -22l-2 -143c0 -16 4 -24 16 -24zM148 105h84c44 0 66 69 66 127c0 62 -25 126 -76 126l-75 1c-6 0 -14 -2 -14 -17l-1 -211c0 -17 2 -25 16 -26z" />
    <glyph glyph-name="e" unicode="e" horiz-adv-x="415" 
d="M148 648v0c-7 -2 -12 -7 -12 -22l-2 -126c0 -29 0 -42 29 -42h115c25 0 25 20 36 20c14 0 14 -8 14 -31v-87c0 -30 -5 -30 -16 -30c-9 0 -12 23 -34 23h-97c-30 1 -48 4 -48 -22l-1 -200c0 -17 2 -29 16 -29h30h122c42 0 33 39 48 39s18 -25 15 -37l-18 -81
c-4 -19 -10 -23 -19 -23h-148h-109h-28c-76 0 -9 41 -9 95v570c0 43 -70 85 0 85h37h109h148c9 0 15 -4 19 -24l18 -80c3 -13 0 -38 -15 -38s-6 40 -48 40h-152z" />
    <glyph glyph-name="f" unicode="f" horiz-adv-x="415" 
d="M148 648v0c-7 -2 -12 -7 -12 -22l-2 -126c0 -29 0 -42 29 -42h115c25 0 25 20 36 20c14 0 14 -8 14 -31v-87c0 -30 -5 -30 -16 -30c-9 0 -12 23 -34 23h-97c-30 1 -48 4 -48 -22c0 -75 0 -161 -1 -236c0 -54 68 -95 -9 -95h-82c-76 0 -9 41 -9 95v570c0 43 -70 85 0 85
h37h109h148c9 0 15 -4 19 -24l18 -80c3 -13 0 -38 -15 -38s-6 40 -48 40h-152z" />
    <glyph glyph-name="j" unicode="j" horiz-adv-x="448" 
d="M371 654v-380c0 -116 -23 -274 -176 -274c-88 0 -127 52 -151 77c-30 31 -57 -4 -35 40l42 83c19 37 29 -19 39 -35c15 -25 43 -54 105 -54c67 0 75 111 75 163c0 119 0 262 1 380c0 55 -67 96 9 96h82c74 0 9 -41 9 -96z" />
    <glyph glyph-name="k" unicode="k" horiz-adv-x="494" 
d="M128 654v-225l143 234c39 63 -42 87 45 87h82c74 0 1 -41 -27 -87l-149 -244l160 -331c27 -56 107 -88 28 -88h-82c-87 0 -10 10 -46 88l-113 244l-41 -67v-170c0 -54 65 -95 -9 -95h-82c-76 0 -8 41 -9 95c-1 187 -1 373 0 559c1 55 -67 96 9 96h82c74 0 9 -41 9 -96z
" />
    <glyph glyph-name="m" unicode="m" horiz-adv-x="691" 
d="M13 0v0c-30 0 5 62 9 85l89 587c5 33 -17 78 4 78h158c24 0 -2 -47 3 -78l44 -295l45 295c5 31 -22 78 2 78h159c21 0 -1 -45 4 -78l89 -587c4 -23 39 -85 9 -85h-98c-36 0 -4 34 -12 91l-69 461c0 5 -2 8 -5 8c-2 0 -3 -2 -4 -8c-42 -340 -23 -195 -65 -479
c-2 -13 3 -28 6 -42c2 -5 3 -9 3 -13c1 -11 -1 -18 -13 -18h-3h-95h-3c-12 0 -15 7 -13 18c0 4 1 8 3 13c3 14 8 29 6 42c-42 284 -24 139 -65 479c-1 6 -3 8 -5 8s-4 -3 -5 -8l-68 -461c-9 -57 24 -91 -12 -91h-98z" />
    <glyph glyph-name="o" unicode="o" horiz-adv-x="538" 
d="M251 749c325 0 306 -749 -2 -749c-320 0 -342 749 2 749zM244 113c181 0 181 528 0 528c-180 0 -180 -528 0 -528z" />
    <glyph glyph-name="q" unicode="q" horiz-adv-x="543" 
d="M251 750c294 0 306 -614 78 -731c24 -13 49 -27 76 -38c49 -18 109 21 80 -45l-33 -75c-26 -59 -38 -10 -72 19c-99 54 -146 105 -265 83c-36 -7 -66 -11 -48 29c11 25 22 50 34 75v2c-168 185 -130 681 150 681zM244 113c181 0 181 529 0 529c-180 0 -180 -529 0 -529z
" />
    <glyph glyph-name="r" unicode="r" horiz-adv-x="457" 
d="M41 0c-76 0 -9 41 -9 95v570c0 43 -70 85 0 85h196c94 0 142 -105 142 -205c0 -73 -45 -193 -133 -199l108 -258c24 -58 107 -88 28 -88h-82c-87 0 -14 8 -46 88l-96 242c-7 17 -16 16 -16 -1v-234c0 -54 65 -95 -9 -95h-83zM150 446l45 -1c49 0 74 50 74 100
c0 52 -25 102 -77 103h-38c-11 0 -18 -3 -18 -22l-2 -156c0 -16 4 -24 16 -24z" />
    <glyph glyph-name="zero" unicode="0" horiz-adv-x="501" 
d="M231 750v0c164 0 220 -190 220 -378c0 -187 -68 -372 -222 -372c-159 0 -229 186 -229 373c0 189 59 377 231 377zM225 113v0c89 0 119 129 119 260c0 133 -28 269 -119 269s-117 -136 -117 -269c0 -131 28 -260 117 -260z" />
    <glyph glyph-name="one" unicode="1" horiz-adv-x="267" 
d="M190 654v0v-559c0 -54 65 -95 -9 -95h-82c-76 0 -9 41 -9 95c-1 149 -1 298 -1 447h-58c-76 0 12 41 39 95c23 46 44 113 64 113h47c14 0 9 -41 9 -96z" />
    <glyph glyph-name="two" unicode="2" horiz-adv-x="430" 
d="M156 102h4h156c41 0 33 39 48 39s17 -25 15 -37l-18 -81c-4 -19 -10 -23 -19 -23h-291c-43 0 -30 62 -22 85c45 121 243 365 243 471c0 60 -25 89 -68 89c-32 0 -69 -22 -93 -66c-18 -33 -3 -90 -37 -46l-56 71c-45 59 11 23 25 49c30 64 105 97 165 97
c89 0 169 -63 169 -195c0 -116 -181 -355 -221 -453v0z" />
    <glyph glyph-name="three" unicode="3" horiz-adv-x="461" 
d="M199 647c-37 2 -70 -35 -88 -68s-3 -90 -37 -46l-56 71c-45 59 11 23 25 49c30 65 93 97 153 97c119 0 182 -85 182 -181c0 -55 -15 -108 -57 -158c-2 -2 -4 -6 -4 -9c1 -4 2 -7 6 -9c49 -31 88 -106 88 -185c0 -145 -103 -208 -205 -208c-67 0 -133 33 -163 97
c-14 25 -70 -10 -25 48l56 72c34 43 19 -13 37 -46c23 -43 62 -68 98 -68c45 0 100 35 100 116c0 62 -39 126 -90 126c-50 1 -63 -23 -72 -23c-11 0 -16 0 -16 30v82c0 23 1 31 15 31c9 0 12 -20 50 -20c54 3 78 53 78 102c0 50 -20 97 -75 100v0z" />
    <glyph glyph-name="four" unicode="4" horiz-adv-x="471" 
d="M360 654v-347c38 2 30 39 45 39s17 -24 15 -37l-18 -80c-4 -20 -10 -24 -19 -24h-23v-110c0 -54 65 -95 -9 -95h-82c-76 0 -9 41 -9 95c0 37 -1 74 -1 110h-227c-44 0 -33 64 -22 85l226 433c5 10 23 27 38 27h77c74 0 9 -41 9 -96zM259 571l-124 -263c1 -1 3 -1 4 -1
h120v264z" />
    <glyph glyph-name="five" unicode="5" horiz-adv-x="455" 
d="M154 648v-132c212 -13 251 -175 251 -275c0 -145 -97 -241 -199 -241c-67 0 -133 33 -163 97c-14 25 -70 -10 -25 48l56 72c34 43 19 -13 37 -46c23 -43 62 -68 98 -68c45 0 94 68 94 149c1 62 -20 164 -155 165c-50 1 -63 -23 -72 -23c-10 0 -16 0 -16 30
c0 77 1 154 1 231c0 54 -67 95 9 95h292c10 0 15 -4 19 -24l18 -80c3 -12 0 -37 -14 -37c-15 0 -7 39 -49 39h-182z" />
    <glyph glyph-name="six" unicode="6" horiz-adv-x="477" 
d="M236 370v0c-127 0 -144 -266 -12 -266c68 0 106 77 105 148c-1 59 -30 118 -93 118zM107 407v0c32 37 76 58 127 58c126 0 190 -108 192 -219c3 -121 -66 -246 -204 -246c-319 0 -279 750 31 750c69 0 105 -33 128 -62c18 -24 57 23 31 -52l-21 -57
c-18 -53 -25 -7 -39 15c-21 32 -48 46 -98 46c-105 0 -148 -166 -147 -233z" />
    <glyph glyph-name="seven" unicode="7" horiz-adv-x="386" 
d="M270 750h40c70 0 41 -50 30 -85l-194 -594c-9 -61 48 -71 -23 -71v0h-6h-82h-15v0c-46 4 -1 29 22 70l185 577c0 1 0 1 -1 1h-144c-42 0 -34 -40 -49 -40c-14 0 -17 25 -14 38l18 80c4 20 9 24 19 24h148h66z" />
    <glyph glyph-name="eight" unicode="8" horiz-adv-x="441" 
d="M365 555c0 -70 -24 -114 -55 -150c-2 -3 -3 -6 -3 -10c0 -3 2 -6 5 -8c50 -32 79 -100 79 -179c0 -139 -99 -208 -198 -208s-193 68 -193 208c0 79 29 147 79 179c3 2 5 5 5 8c0 4 -1 7 -3 10c-31 36 -55 80 -55 150c0 130 78 195 173 195c106 0 166 -89 166 -195v0z
M289 219c1 87 -46 128 -95 128c-47 0 -93 -44 -92 -128c0 -76 44 -117 90 -117c49 0 97 38 97 117v0zM196 446c44 0 65 52 65 99c0 48 -20 102 -65 102c-46 0 -66 -54 -66 -102c0 -47 21 -99 66 -99v0z" />
    <glyph glyph-name="nine" unicode="9" horiz-adv-x="477" 
d="M191 379v0c127 0 145 266 13 266c-68 0 -106 -77 -105 -148c0 -59 30 -118 92 -118zM320 342v0c-32 -36 -75 -58 -126 -58c-127 0 -191 109 -193 219c-3 121 66 247 204 247c319 0 280 -750 -30 -750c-69 0 -105 32 -128 62c-18 23 -58 -24 -31 51l20 57
c19 53 25 8 40 -15c21 -31 48 -46 97 -46c105 0 149 167 147 233z" />
    <glyph glyph-name="period" unicode="." horiz-adv-x="152" 
d="M51 0v0c-28 0 -51 23 -51 51s23 51 51 51s51 -23 51 -51s-23 -51 -51 -51z" />
    <glyph glyph-name="D" unicode="D" horiz-adv-x="464" 
d="M41 0v0c-76 0 -9 41 -9 95v570c0 43 -70 85 0 85h166c149 0 216 -194 216 -382c0 -187 -67 -368 -216 -368h-157zM136 626v0c-2 -168 -3 -326 -4 -495c0 -17 2 -25 16 -26h37c75 0 114 130 116 263c2 138 -36 278 -115 280h-32c-11 0 -18 -3 -18 -22z" />
    <glyph glyph-name="l" unicode="l" horiz-adv-x="410" 
d="M128 654v-538c2 -9 6 -14 15 -14h152c42 0 34 39 49 39c14 0 17 -25 14 -37l-18 -81c-4 -19 -9 -23 -18 -23h-285c-76 0 -8 41 -9 95c-1 187 -1 373 0 559c1 55 -67 96 9 96h82c74 0 9 -41 9 -96z" />
    <glyph glyph-name="A" unicode="A" horiz-adv-x="529" 
d="M18 0v0c-43 0 8 62 13 85l130 587c8 33 -25 78 7 78h149c35 0 -3 -47 4 -78l130 -593c6 -27 56 -79 4 -79h-96c-45 0 0 44 -6 73l-33 149c-3 15 -12 23 -20 23h-122c-7 0 -14 -3 -17 -15l-30 -139c-13 -57 35 -91 -18 -91h-95zM199 340h84c7 0 8 12 6 23l-42 189
c-1 6 -4 8 -7 8s-6 -3 -7 -8l-43 -192c-2 -13 1 -20 9 -20z" />
    <glyph glyph-name="B" unicode="B" horiz-adv-x="451" 
d="M41 0v0c-76 0 -9 41 -9 95v570c0 43 -70 85 0 85h196c87 0 142 -92 142 -192c0 -46 -20 -96 -51 -132c-2 -3 -4 -6 -4 -10c1 -3 2 -6 5 -8c52 -33 81 -111 80 -192c-3 -96 -48 -216 -154 -216h-205zM150 459l45 -1c49 -1 74 50 74 100c0 51 -25 89 -77 90h-38
c-11 0 -18 -3 -18 -22l-2 -143c0 -16 4 -24 16 -24zM148 105h84c44 0 66 69 66 127c0 62 -25 126 -76 126l-75 1c-6 0 -14 -2 -14 -17l-1 -211c0 -17 2 -25 16 -26z" />
    <glyph glyph-name="C" unicode="C" horiz-adv-x="479" 
d="M234 0v0c-149 0 -234 197 -234 388c0 184 97 362 249 362c72 0 109 -32 132 -62c19 -24 60 23 32 -52l-22 -57c-21 -53 -26 -7 -42 15c-21 32 -49 46 -100 46c-86 0 -143 -122 -143 -250c0 -137 45 -279 128 -279c62 0 91 29 106 54c9 16 20 72 39 35l41 -83
c23 -44 -4 -9 -34 -40c-24 -25 -63 -77 -152 -77z" />
    </font>
</defs>
</svg>
