<?xml version="1.0" standalone="no"?>
<!DOCTYPE svg PUBLIC "-//W3C//DTD SVG 1.1//EN" "http://www.w3.org/Graphics/SVG/1.1/DTD/svg11.dtd" >
<svg>
<metadata>
Created by FontForge 20120731 at Wed Jan 18 10:57:13 2023
 By ffonts
(c) HENRIavecunK DESIGN 2022
</metadata>
<defs>
<font id="RadgivareNo1DemoRegular" horiz-adv-x="626" >
  <font-face 
    font-family="Radgivare No 1 Demo"
    font-weight="400"
    font-stretch="normal"
    units-per-em="1000"
    panose-1="0 0 0 0 0 0 0 0 0 0"
    ascent="800"
    descent="-200"
    cap-height="698.869"
    bbox="-37 -243.029 951.206 867.17"
    underline-thickness="0"
    underline-position="0"
    unicode-range="U+000A-F008"
  />
<missing-glyph horiz-adv-x="527" 
d="M50 700h427v-700h-427v700zM78 680l185 -309l186 309h-371zM251 350l-180 300v-601zM264 329l-185 -308h370zM276 350l181 -303v605z" />
    <glyph glyph-name=".notdef" horiz-adv-x="527" 
d="M50 700h427v-700h-427v700zM78 680l185 -309l186 309h-371zM251 350l-180 300v-601zM264 329l-185 -308h370zM276 350l181 -303v605z" />
    <glyph glyph-name=".null" horiz-adv-x="0" 
 />
    <glyph glyph-name=".null" horiz-adv-x="0" 
 />
    <glyph glyph-name="controlLF" unicode="&#xa;" horiz-adv-x="0" 
 />
    <glyph glyph-name="controlCR" unicode="&#xd;" horiz-adv-x="0" 
 />
    <glyph glyph-name="space" unicode=" " horiz-adv-x="218" 
 />
    <glyph glyph-name="exclam" unicode="!" horiz-adv-x="253" 
d="M126.164 129.782c38.9385 0 69.8896 -31.9492 69.8896 -70.8877s-30.9512 -69.8896 -69.8896 -69.8896s-69.8896 30.9512 -69.8896 69.8896s30.9512 70.8877 69.8896 70.8877zM48 694.528v4.34082h156.329v-4.33984
c-16.5723 -9.83887 -29.2422 -60.8877 -29.2422 -125.759l-15.0605 -367.103h-65.2188l-17.5654 367.102c0 64.8711 -12.6709 115.92 -29.2422 125.759z" />
    <glyph glyph-name="numbersign" unicode="#" horiz-adv-x="631" 
d="M577.262 445.626c-9.35645 15.7607 -55.9902 27.9912 -116.337 29.1504l-13.0557 -82.4297h3.63379c64.8711 0 115.921 12.6699 125.759 29.2422h4.33984v-156.329h-4.33984c-9.83887 16.5713 -60.8887 29.2412 -125.759 29.2412h-19.1221
c-9.68359 -63.4863 -5.01367 -113.167 9.77637 -122.857l0.0498047 -4.33984h-156.329l-0.0498047 4.33984c17.8584 9.69043 38.2646 59.3711 48.6914 122.857h-82.502c-9.68359 -63.4863 -5.01367 -113.167 9.77441 -122.857l0.0507812 -4.33984h-156.329
l-0.0507812 4.33984c17.7979 9.65625 38.125 59.0312 48.584 122.204c-52.6504 -2.78418 -92.1768 -14.2178 -100.707 -28.5889h-4.33984v156.329h4.33984c9.35645 -15.7607 55.9912 -27.9912 116.337 -29.1504l13.0557 82.4287h-3.63379
c-64.8711 0 -115.921 -12.6689 -125.759 -29.2412h-4.33984v156.329h4.33984c9.83789 -16.5693 60.8789 -29.2393 125.739 -29.2422h19.1416c9.68359 63.4873 5.01367 113.168 -9.77637 122.857l0.00195312 4.33984h156.329l-0.00195312 -4.33984
c-17.8584 -9.68945 -38.2646 -59.3701 -48.6914 -122.857h82.502c9.68359 63.4873 5.01367 113.168 -9.77441 122.857l0.000976562 4.33984h156.329l-0.000976562 -4.33984c-17.7979 -9.65527 -38.125 -59.0303 -48.584 -122.204
c52.6504 2.78418 92.1768 14.2188 100.707 28.5898h4.33984v-156.329h-4.33984zM267.506 392.348h82.5195l13.0703 82.5195h-82.5195z" />
    <glyph glyph-name="dollar" unicode="$" horiz-adv-x="628" 
d="M281.889 92.498l2.32031 28.1201l2.31934 -28.1201h-4.63965zM236.775 127.395c0.985352 0 1.7832 -0.797852 1.7832 -1.78223v-13.7363c0 -0.985352 -0.798828 -1.7832 -1.7832 -1.7832h-1.30957v17.3018h1.30957zM317.305 299.867
c2.13086 0.40918 3.99121 -1.21191 3.99023 -3.2666l0.0244141 -81.7266c0 -1.85254 -1.50195 -3.35449 -3.35449 -3.35449c-1.83887 0 -3.33008 1.49121 -3.33008 3.33105v81.626c0 1.61035 1.08887 3.08691 2.66992 3.39062zM310.621 127.396
c0.984375 0 1.7832 -0.797852 1.7832 -1.7832v-39.0879c0 -0.984375 -0.798828 -1.78223 -1.7832 -1.78223h-1.83301v42.6533h1.83301zM144.187 458.921c2.11719 0 3.83105 -1.7168 3.83105 -3.83398v-32.9131c0 -2.11621 -1.71484 -3.83105 -3.83105 -3.83105h-2.81543
v40.5781h2.81543zM426.63 520.171c-1.9541 0 -3.53711 1.58398 -3.53711 3.53809v86.6533c0 1.70996 1.15625 3.27734 2.83594 3.59961c2.26172 0.433594 4.23633 -1.28809 4.23633 -3.46973l0.0253906 -86.7607c0 -1.9668 -1.59375 -3.56055 -3.56055 -3.56055z
M521.494 698.927c27.6133 0 49.998 -22.3838 49.998 -49.9971v-598.932c0 -27.6133 -22.3848 -49.998 -49.998 -49.998h-415.497c-27.6133 0 -49.998 22.3857 -49.998 49.998v598.931c0 27.6133 22.3848 49.998 49.998 49.998h415.497zM482.662 627.287h-19.3184v-120.199
h16.2227v54.5039h0.495117l7.59082 -54.5039h16.0645l-9.36035 57.2197c5.36133 3.31934 8.30273 9.58398 8.30273 18.292v20.4121c0 15.2012 -7.47559 24.2754 -19.9971 24.2754zM467.296 353.141l-13.9365 120.199h-19.3125l-13.9355 -120.199h16.0654l1.37012 16.6064
h12.3115l1.37207 -16.6064h16.0654zM406.981 605.206v-77.3076c0 -13.1055 7.85547 -21.9111 19.5449 -21.9111c11.959 0 19.9961 8.26172 19.9961 20.5596v82.04c0 11.8262 -7.80957 19.7705 -19.4326 19.7705c-12.5918 0 -20.1084 -8.65527 -20.1084 -23.1514z
M360.272 627.286l-0.000976562 -120.199h16.4473v60.834h13.4053v14.417h-13.4053v30.3047h16.4473v14.6436h-32.8936zM277.503 627.286v-120.201h33.6836v14.3086h-17.3486v40.7793h12.6172v14.3076h-12.6172v36.2744h16.7852v14.5312h-33.1201zM287.968 474.426
c-12.5908 0 -20.1035 -8.65137 -20.1074 -23.1475l0.00976562 -8.65625c0.0136719 -11.5459 3.19336 -19.4248 12.166 -29.6865c7.01855 -8.03027 8.90039 -10.5586 10.0635 -13.5166c0.740234 -1.9043 1.04199 -3.63574 1.19141 -7.26074v-22.377
c0 -1.95312 -1.58398 -3.53809 -3.53711 -3.53809h-0.000976562c-1.94336 -0.00292969 -3.53223 1.56348 -3.55469 3.50781l-0.00292969 19.3564h-16.335v-16.4902c0 -12.2979 8.03516 -20.5596 19.9951 -20.5596c11.6914 0 19.5459 8.80566 19.5459 21.9111v15.6338
c-0.000976562 6.90234 -0.791992 11.9697 -2.54297 16.373c-1.50488 4.29102 -3.02734 6.73926 -7.43848 11.9434c-0.707031 0.777344 -2.70801 2.88867 -2.70801 2.88867c-2.48047 2.71777 -4.72852 5.87891 -6.59473 8.74609
c-2.53027 3.66016 -4.05762 9.06738 -4.14453 14.5479v12.3311c-0.000976562 1.70898 1.1543 3.27734 2.83496 3.59863c2.26172 0.43457 4.23633 -1.28711 4.23633 -3.46973l0.0205078 -16.4346h16.3369v14.5273c0 11.8252 -7.80957 19.7715 -19.4336 19.7715z
M229.098 627.288v-120.201h33.6836v14.3086h-17.3486v40.7793h12.6172v14.3076h-12.6172v36.2744h16.7852v14.5312h-33.1201zM237.503 473.342h-19.3203v-120.199h16.2227v54.5039h0.495117l7.5918 -54.5039h16.0645l-9.35938 57.2197
c5.36133 3.31934 8.30273 9.58398 8.30273 18.292v20.4121c0 15.2012 -7.47559 24.2754 -19.9971 24.2754zM192.367 627.289h-19.3193v-120.199h16.2217v54.5039h0.495117l7.5918 -54.5039h16.0645l-9.35938 57.2197c5.36133 3.31934 8.30273 9.58398 8.30273 18.292
v20.4121c0 15.2012 -7.47559 24.2754 -19.9971 24.2754zM203.365 408.229v14.3057h-12.6172v36.2744h16.7852v14.5312h-33.1201v-120.199h33.6836v14.3086h-17.3486v40.7793h12.6172zM158.838 627.287h-32.8955v-120.199h16.4473v60.834h13.4053v14.417h-13.4053v30.3047
h16.4482v14.6436zM139.718 87.8828l-0.00488281 7.27246c0 3.20996 -0.369141 5.56738 -1.18262 7.61523c-0.700195 1.99609 -1.4082 3.13574 -3.46094 5.55566c-0.328125 0.361328 -1.25977 1.34375 -1.25977 1.34375c-1.15332 1.26367 -2.19922 2.73438 -3.06641 4.06836
c-1.17676 1.70215 -1.8877 4.2168 -1.92773 6.76562v5.73633c-0.000976562 0.795898 0.536133 1.52441 1.31836 1.67383c1.05273 0.202148 1.97168 -0.598633 1.97168 -1.61328l0.00976562 -7.64453h7.59863v6.75684c0 5.5 -3.63281 9.19629 -9.03906 9.19629
c-5.85645 0 -9.35254 -4.02539 -9.35254 -10.7676l0.00488281 -4.02637c0.00585938 -5.37012 1.48535 -9.03516 5.65918 -13.8086c3.26367 -3.73438 4.13965 -4.91016 4.68066 -6.28613c0.344727 -0.885742 0.484375 -1.69141 0.554688 -3.37793v-10.4072
c0 -0.908203 -0.735352 -1.64551 -1.64355 -1.64551h-0.000976562c-0.902344 -0.000976562 -1.6416 0.726562 -1.65234 1.63086l-0.000976562 9.00195h-7.59766v-7.66992c0 -5.71973 3.7373 -9.5625 9.30078 -9.5625c5.4375 0 9.09082 4.09668 9.09082 10.1924z
M122.404 218.8c0 -12.3447 7.39844 -20.6387 18.4102 -20.6377c11.2646 0 18.8359 7.78223 18.8359 19.3662v94.8936h-15.4043l0.0185547 -97.0176c0 -0.102539 -0.0166016 -0.195312 -0.0224609 -0.295898v-0.253906c0 -1.06738 -0.509766 -2.00586 -1.28809 -2.61523
c-0.0449219 -0.0371094 -0.0888672 -0.0742188 -0.133789 -0.111328c-0.0517578 -0.0371094 -0.106445 -0.0664062 -0.15918 -0.100586c-0.322266 -0.212891 -0.677734 -0.363281 -1.06836 -0.4375c-0.0683594 -0.0126953 -0.139648 -0.0117188 -0.208984 -0.0214844
c-0.119141 -0.0136719 -0.233398 -0.0400391 -0.357422 -0.0400391l-0.0136719 0.00195312c-0.0361328 -0.000976562 -0.0703125 -0.00976562 -0.103516 -0.00976562c-1.84082 0 -3.33105 1.49121 -3.33105 3.33105v97.5684h-15.1738v-93.6201zM147.038 78.1973h15.668
v6.65332h-8.06934v18.9678h5.86914v6.65527h-5.86914v16.8721h7.80762v6.75977h-15.4062v-55.9082zM164.353 425.275l0.000976562 23.792c0 15.2002 -7.47656 24.2744 -19.9961 24.2744h-19.3203v-120.199h16.2227v51.123h4.22363c11.9932 0 18.8691 7.6582 18.8691 21.0098
zM168.844 78.1973h15.668v6.65332h-8.07031v18.9678h5.86914v6.65527h-5.86914v16.8721h7.80762v6.75977h-15.4053v-55.9082zM173.261 217.541c0 -11.584 7.56934 -19.3691 18.8311 -19.3701c11.0137 0 18.4121 8.2959 18.4121 20.6406v14.7266
c-0.000976562 6.50195 -0.74707 11.2754 -2.39648 15.4229c-1.41797 4.04297 -2.85156 6.34863 -7.00684 11.251c-0.666016 0.732422 -2.55078 2.72266 -2.55078 2.72266c-2.33594 2.55957 -4.4541 5.53809 -6.21094 8.23926
c-2.38379 3.44727 -3.82227 8.54102 -3.9043 13.7031v11.6152c-0.000976562 1.61133 1.08691 3.08789 2.66895 3.3916c2.13086 0.408203 3.99121 -1.21289 3.99121 -3.26758l0.0195312 -15.4814h15.3896v13.6846c0 11.1387 -7.35645 18.625 -18.3047 18.625
c-11.8604 0 -18.9414 -8.15234 -18.9414 -21.8076l0.00878906 -8.1543c0.0126953 -10.877 3.00879 -18.2979 11.46 -27.9648c6.61133 -7.56445 8.38379 -9.94531 9.48047 -12.7314c0.698242 -1.79297 0.980469 -3.4248 1.12207 -6.83984v-21.0781
c0 -1.83984 -1.49023 -3.33203 -3.33008 -3.33203h-0.000976562c-1.83008 -0.00195312 -3.32715 1.47363 -3.34766 3.30469c-0.00195312 0.1875 -0.00195312 11.2314 -0.00292969 18.2334h-15.3867v-15.5332zM208.57 123.672c1.80273 1.63086 2.7373 3.69824 2.7373 6.07812
c0 3.17578 -1.59863 5.1748 -4.06055 5.19922c-1.98926 0.0195312 -3.60645 -1.40039 -3.86523 -3.38672c-0.185547 -1.43164 0.339844 -2.69531 1.45605 -3.58008c1.12109 -0.886719 1.56055 -2.44336 0.811523 -3.66406
c-0.405273 -0.65918 -0.996094 -1.11523 -1.93164 -1.58594l0.68457 -1.31543c2.17676 0.751953 2.98633 1.25293 4.16797 2.25488zM218.108 123.673c1.80273 1.63086 2.73828 3.69824 2.7373 6.07812c0 3.17578 -1.59863 5.1748 -4.06055 5.19922
c-1.98926 0.0195312 -3.60645 -1.40039 -3.86523 -3.38672c-0.185547 -1.43164 0.339844 -2.69531 1.45605 -3.58008c1.12012 -0.886719 1.55957 -2.44336 0.811523 -3.66406c-0.404297 -0.65918 -0.995117 -1.11523 -1.93066 -1.58594l0.68457 -1.31543
c2.17676 0.751953 2.98633 1.25293 4.16699 2.25488zM224.407 312.42v-113.227h31.7295v13.4785h-16.3418v38.4131h11.8848v13.4775h-11.8848v34.1699h15.8115v13.6875h-31.1992zM239.175 78.1963l7.47168 -0.000976562l-4.35352 26.6152
c2.49316 1.54395 3.8623 4.45801 3.8623 8.50879v9.49414c0 7.06934 -3.47754 11.291 -9.30176 11.291h-8.98535v-55.9082h7.54492v25.3516h0.230469zM269.335 78.1953v6.65332h-8.06934v18.9678h5.86914v6.65527h-5.86914v16.8721h7.80762v6.75977h-15.4053v-55.9082
h15.667zM287.71 78.1953h7.47363l-6.48242 55.9092h-8.98242l-6.48145 -55.9092h7.47168l0.636719 7.72461h5.72656zM320.003 87.9678v34.8438c0 7.07031 -3.47754 11.292 -9.30176 11.292h-9.50977v-55.9082h10.0342c5.57812 0 8.77734 3.5625 8.77734 9.77246z
M336.706 217.525l-0.000976562 77.2793c0 11.1396 -7.35645 18.624 -18.3047 18.624c-11.8613 0 -18.9424 -8.15234 -18.9424 -21.8076v-72.8213c0 -12.3447 7.39941 -20.6406 18.4111 -20.6406c11.2656 0 18.8369 7.78223 18.8369 19.3662zM318.415 373.953
c0 -13.1055 7.85449 -21.9111 19.5449 -21.9111c11.959 0 19.9961 8.26172 19.9961 20.5596v82.04c0 11.8262 -7.80957 19.7705 -19.4336 19.7705c-12.5918 0 -20.1074 -8.65527 -20.1074 -23.1514v-77.3076zM359.831 78.1953l7.54688 0.000976562v55.9082h-6.34375
l-6.38379 -23.4072l-6.30469 23.4072h-6.42188v-55.9082h7.5459v28.4229l3.45605 -12.127h3.18164l3.72363 12.9971v-29.2939zM365.471 252.526c1.12988 -3.72363 8.625 -47.2314 9.67383 -53.332h13.833v113.233h-14.3262v-51.1162l0.287109 -3.19824l-9.89746 54.3135
h-13.6279v-113.232h14.3252v50.2295zM375.63 78.1963l15.668 0.000976562v6.65332h-8.07031v18.9678h5.86914v6.65527h-5.86914v16.8721h7.80762v6.75879h-15.4053v-55.9082zM385.062 409.76c1.19922 -3.95312 9.15625 -50.1406 10.2695 -56.6172h14.6855v120.207h-15.209
v-54.2637l0.305664 -3.39453l-10.5078 57.6582h-14.4678v-120.207h15.207v53.3232zM401.382 123.676c1.80273 1.63086 2.73633 3.69824 2.73633 6.07812c0 3.17578 -1.59863 5.1748 -4.06055 5.19922c-1.98926 0.0195312 -3.60645 -1.40039 -3.86523 -3.38672
c-0.185547 -1.43164 0.339844 -2.69531 1.45605 -3.58008c1.12109 -0.886719 1.56055 -2.44336 0.811523 -3.66406c-0.405273 -0.65918 -0.996094 -1.11523 -1.93164 -1.58594l0.68457 -1.31543c2.17773 0.751953 2.98633 1.25293 4.16895 2.25488zM410.919 123.677
c1.80273 1.63086 2.7373 3.69824 2.7373 6.07812c0 3.17578 -1.59863 5.1748 -4.06055 5.19922c-1.98926 0.0195312 -3.60645 -1.40039 -3.86523 -3.38672c-0.185547 -1.43164 0.338867 -2.69531 1.45605 -3.58008c1.12012 -0.886719 1.55957 -2.44336 0.811523 -3.66406
c-0.404297 -0.65918 -0.995117 -1.11523 -1.93066 -1.58594l0.68457 -1.31543c2.17676 0.751953 2.98633 1.25293 4.16699 2.25488zM434.226 199.199v13.583h-14.9609v99.6416h-15.2812v-113.225h30.2422zM449.955 127.298l0.000976562 6.81152h-15.2998v-55.9092h7.64941
v28.2959h6.23535v6.70605h-6.23535v14.0957h7.64941zM463.048 78.2012v55.9082h-7.54492v-55.9082h7.54492zM464.224 199.2l-0.000976562 53.8379l12.9717 59.4189h-15.2598l-5.31445 -38.6738l-5.39355 38.6738h-15.3623l13.0771 -59.8428v-53.4141h15.2822z
M486.249 78.2002v6.70605h-7.3877v49.2021h-7.5459v-55.9082h14.9336zM488.481 206.692c0 -4.42285 3.53809 -8.08789 8.08691 -8.08789c5.10742 0 9.20312 4.87988 7.81836 10.1768c-0.871094 3.33398 -3.89648 5.79297 -7.33691 5.98633
c-4.78027 0.268555 -8.56836 -3.49902 -8.56836 -8.0752zM489.517 251.394l1.84277 -29.9121h10.4238l1.84082 29.9121v61.0293h-14.1074v-61.0293zM506.712 78.2002v6.6543h-8.06934v18.9678h5.86914v6.65527h-5.86914v16.8721h7.80762v6.75879h-15.4053v-55.9082h15.667z
M509.4 353.147v14.4199h-15.8828v105.779h-16.2227v-120.199h32.1055zM486.324 579.511c0 -2.11621 -1.71582 -3.83301 -3.83105 -3.83398h-2.81543v37.1963h2.81543c2.11621 0 3.83105 -1.71484 3.83105 -3.83105v-29.5312zM241.162 425.562
c0 -2.11621 -1.71484 -3.83398 -3.83105 -3.83398h-2.81543v37.1963h2.81543c2.11621 0 3.83105 -1.71484 3.83105 -3.83105v-29.5312zM337.362 460.02c2.26172 0.43457 4.23535 -1.28613 4.23535 -3.46777l0.0253906 -86.7607
c0 -1.9668 -1.59375 -3.56055 -3.56055 -3.56055c-1.95312 0 -3.53613 1.58203 -3.53613 3.53613v86.6533c0 1.70996 1.15625 3.27734 2.83594 3.59961zM196.024 579.508c0 -2.11621 -1.71484 -3.83301 -3.83203 -3.83398h-2.81445v37.1963h2.81445
c2.11719 0 3.83203 -1.71484 3.83203 -3.83105v-29.5312zM443.701 444.355l4.9873 -60.457h-9.97461z" />
    <glyph glyph-name="percent" unicode="%" horiz-adv-x="693" 
d="M309.261 506.212c2.14551 -113.479 -34.9346 -202.356 -133.713 -202.356c-93.8799 0 -131.547 89.9775 -131.547 201.237c0 113.496 39.4209 202.355 133.712 202.355c93.2832 0 129.22 -78.1387 131.548 -201.236zM178.674 389.307
c53.373 0 53.373 84.9551 53.373 115.9c0 26.7422 0.0449219 116.788 -53.8438 116.788c-56.9893 0 -56.9893 -84.9541 -56.9893 -115.9c0 -26.7422 0 -116.788 57.46 -116.788zM648.716 188.069c2.14648 -113.479 -34.9346 -202.356 -133.713 -202.356
c-93.8799 0 -131.547 89.9775 -131.547 201.237c0 113.496 39.4209 202.355 133.712 202.355c93.2832 0 129.22 -78.1387 131.548 -201.236zM518.129 71.165c53.374 0 53.374 84.9541 53.373 115.9c0 26.7422 0.0449219 116.788 -53.8438 116.788
c-56.9893 0 -56.9893 -84.9541 -56.9893 -115.9c0 -26.7422 0 -116.788 57.46 -116.788zM432.788 697.219l135.649 -0.269531l-1.39355 -2.99023c-14.5732 -1.45703 -39.6885 -32.5518 -60.5146 -77.2324l-39.2705 -82.9053l-185.644 -434.82
c-20.8271 -44.6904 -28.4883 -83.9268 -20.2305 -96.0244l-1.39355 -2.98926l-135.65 0.269531l1.39355 2.99023c14.5732 1.45703 39.6885 32.5518 60.5146 77.2324l40.8711 86.6523l184.044 431.073c20.8271 44.6904 28.4883 83.9268 20.2305 96.0244z" />
    <glyph glyph-name="ampersand" unicode="&#x26;" horiz-adv-x="562" 
d="M461.691 63.1104c18.9805 -37.46 39.1152 -59.0029 48.1855 -59.0029l0.0195312 -4.12012h-21.3799v0h-112.82v0.00976562h-28.6797l0.0400391 3.2002c4.90039 4.91016 8.77051 15.8398 8.48047 29.9902c-15.54 -12.5098 -32.4297 -22.4199 -50.4395 -29.5498
c-21.2197 -8.41016 -43.1299 -12.6406 -65.3398 -12.6406c-5.41016 0 -10.8398 0.25 -16.2695 0.759766c-28.0996 2.58984 -54.6797 12.0703 -79.0098 28.1699c-22.3301 14.7803 -41.6904 34.4404 -57.5303 58.4307c-31.1201 47.1104 -45.25 105.54 -39.8096 164.521
c7.03027 76.0996 46.29 143.64 105.04 180.71l40.1602 25.6904l-104.78 249.69h375.44v-124.09h-4.33984c-9.83008 16.5703 -60.8896 29.2402 -125.76 29.2402l-98.8096 -0.0898438c49.6201 -118.92 121.15 -289.05 157.801 -376.13
c23.2002 36.9004 34.29 68.2305 28.8604 81.9102l2.65039 3.44043l98.21 -75.8496l-86.4297 -111.91zM304.017 116.877c6.58008 6.55957 12.459 13.8916 17.5986 21.8516c-19.9805 48.3799 -57.5303 138.53 -91.4199 219.8l-25.9697 -16.6104l-0.290039 -0.19043
c-33.0098 -20.79 -56.1396 -62.0801 -60.3594 -107.76c-3.37988 -36.5898 5.44043 -73.8594 24.1807 -102.239c9.87012 -14.9404 31.3896 -40.4707 64.6299 -43.541c25.2803 -2.32031 50.71 7.85938 71.6299 28.6895z" />
    <glyph glyph-name="quotesingle" unicode="'" horiz-adv-x="203" 
d="M43 698.88l122.095 -0.000976562v-4.33984c-16.5723 -9.83789 -29.2422 -60.8877 -29.2422 -125.759l-48.6416 -108.567h-44.2109v238.667z" />
    <glyph glyph-name="parenleft" unicode="(" horiz-adv-x="314" 
d="M310.089 712.594c-14.5547 -1.45605 -34.4189 -33.0225 -65.4346 -79.5742c-30.4893 -48.7969 -99.6279 -192.649 -99.6279 -333.507s69.1387 -278.72 99.6279 -327.517c31.0156 -46.5498 50.8799 -78.1182 65.4336 -79.5742l0.0205078 -0.0458984v-2.93652
l-135.675 0.713867v2.99414l0.00195312 0.00390625c8.02148 11.751 8.42383 37.8291 -26.9775 90.9697c-1.02246 1.50391 -98.459 134.783 -98.459 318.387s97.4365 316.883 98.459 318.387c35.4033 53.1396 35 79.2178 26.9785 90.9697l-0.00195312 0.00390625v2.99414
l135.675 0.713867v-2.93652z" />
    <glyph glyph-name="parenright" unicode=")" horiz-adv-x="314" 
d="M3.02051 -107.577c14.5547 1.45605 34.418 33.0215 65.4336 79.5732c30.4902 48.7969 99.6289 192.649 99.6289 333.507s-69.1387 278.72 -99.6289 327.517c-31.0156 46.5498 -50.8789 78.1182 -65.4336 79.5742l-0.0205078 0.0458984v2.93652l135.676 -0.713867
v-2.99414l-0.00195312 -0.00390625c-8.02246 -11.751 -8.42383 -37.8281 26.9785 -90.9688c1.02148 -1.50391 98.458 -134.783 98.458 -318.387s-97.4365 -316.883 -98.458 -318.387c-35.4033 -53.1396 -35.001 -79.2178 -26.9785 -90.9697l0.00195312 -0.00390625v-2.99414
l-135.676 -0.713867v2.93652z" />
    <glyph glyph-name="asterisk" unicode="*" horiz-adv-x="472" 
d="M395.738 626.121l36.6982 -113.005l-3.13672 -1.01953c-11.001 9.6709 -50.8799 6.8457 -97.7725 -8.38184l-35.418 -11.502l22.1748 -30.542c28.9668 -39.8965 59.5566 -65.6357 74.1416 -64.2861l1.9375 -2.66895l-96.1475 -69.8086l-1.9375 2.66992
c5.7998 13.4492 -9.2041 50.5059 -38.1709 90.4023l-21.8779 30.1328l-22.2002 -30.5234c-28.999 -39.874 -44.0322 -76.918 -38.2432 -90.373l-1.93945 -2.66797l-96.0918 69.8848l1.93945 2.66797c14.584 -1.3623 45.1934 24.3525 74.1924 64.2266l21.9033 30.1162
l-35.8877 11.6865c-46.8818 15.2646 -86.7578 18.1221 -97.7666 8.45996l-3.13574 1.02148l36.7891 112.979l3.13574 -1.02148c3.20898 -14.291 37.1211 -35.4619 84.002 -50.7275l35.3682 -11.5166v37.7002c0 49.3027 -9.63086 88.1045 -22.2256 95.5811v3.29883h118.817
v-3.29883c-12.5947 -7.47656 -22.2256 -46.2773 -22.2256 -95.5811v-37.2393l35.8984 11.6572c46.8926 15.2275 80.8213 36.3711 84.042 50.6602z" />
    <glyph glyph-name="plus" unicode="+" horiz-adv-x="457" 
d="M413.66 395.863h3.29883v-118.817h-3.29883c-7.47656 12.5947 -46.2773 22.2256 -95.5811 22.2256h-52.417v-52.417c0 -49.3027 9.63086 -88.1045 22.2256 -95.5811v-3.29883h-118.817v3.29883c12.5947 7.47656 22.2256 46.2773 22.2256 95.5811v52.417h-52.417
c-49.3037 0 -88.1055 -9.63086 -95.582 -22.2256h-3.29883v118.817h3.29883c7.47656 -12.5947 46.2783 -22.2256 95.582 -22.2256h52.417v52.417c0 49.3018 -9.63086 88.1045 -22.2256 95.5811v3.29883h118.817v-3.29883
c-12.5947 -7.47656 -22.2256 -46.2783 -22.2256 -95.5811v-52.417h52.417c49.3027 0 88.1045 9.63086 95.5811 22.2256z" />
    <glyph glyph-name="comma" unicode="," horiz-adv-x="210" 
d="M90.1289 -8.76953c-36.7402 11.04 -55.1006 33.0713 -55.1006 66.0713c-0.280273 9.9502 1.4502 19.3701 5.18066 28.2803c3.73047 8.90039 8.80078 16.6699 15.2207 23.2998s13.9102 11.8096 22.4697 15.5293c8.57031 3.73047 17.6104 5.52051 27.1406 5.39062
c19.8799 0 36.25 -7.04004 49.0898 -21.1299c12.8398 -13.9502 19.2598 -31.9004 19.2598 -53.8506c0 -27.6201 -10.7002 -53.1006 -32.1006 -76.4307c-21.2695 -23.2002 -47.9199 -37.5 -79.96 -42.8799l-3.71973 2.69043c4.5498 2.62988 8.75977 5.87012 12.6299 9.74023
s7.17969 8.08008 9.93945 12.6299c2.75977 4.55957 5.00977 9.45996 6.72949 14.71c1.73047 5.25 2.80078 10.5596 3.2207 15.9492z" />
    <glyph glyph-name="hyphen" unicode="-" horiz-adv-x="309" 
d="M269.33 395.863h3.29883v-118.817h-3.29883c-7.47656 12.5947 -46.2773 22.2256 -95.5811 22.2256h-38.8691c-49.3037 0 -88.1055 -9.63086 -95.582 -22.2256h-3.29883v118.817h3.29883c7.47656 -12.5947 46.2783 -22.2256 95.582 -22.2256h38.8691
c49.3027 0 88.1045 9.63086 95.5811 22.2256z" />
    <glyph glyph-name="period" unicode="." horiz-adv-x="210" 
d="M104.889 129.807c38.9385 0 69.8896 -31.9492 69.8896 -70.8877s-30.9512 -69.8896 -69.8896 -69.8896s-69.8896 30.9512 -69.8896 69.8896s30.9512 70.8877 69.8896 70.8877z" />
    <glyph glyph-name="slash" unicode="/" horiz-adv-x="364" 
d="M245.231 788.727l144.905 0.0107422l-0.0126953 -4.12109c-9.07031 0 -35.0566 -22.6875 -52.8027 -72.3408c-17.748 -49.6533 -224.855 -750.6 -226.245 -760.117c-0.370117 -2.53809 -1.97168 -12.2109 0.75 -24.0947
c1.52734 -6.66797 4.10254 -11.7734 7.04102 -14.7168l0.0390625 -3.2041l-144.905 -0.0107422l0.0126953 4.12109c9.07031 0 35.0566 22.6875 52.8027 72.3408c17.748 49.6533 224.855 750.6 226.245 760.117c0.370117 2.53809 1.97168 12.2109 -0.75 24.0947
c-1.52734 6.66797 -4.10254 11.7734 -7.04102 14.7168z" />
    <glyph glyph-name="zero" unicode="0" horiz-adv-x="526" 
d="M264.419 708.3c149.587 0 207.214 -139.541 210.948 -359.366c3.44141 -202.649 -56.0215 -361.361 -214.419 -361.361c-150.545 0 -210.948 160.681 -210.948 359.365c0 202.679 63.2139 361.362 214.419 361.362zM150.839 348.934
c0 -60.1055 0.000976562 -262.486 115.967 -262.486c107.72 0 107.72 190.938 107.72 260.49c0 60.1055 0.0917969 262.486 -108.668 262.486c-115.019 0 -115.019 -190.938 -115.019 -260.49z" />
    <glyph glyph-name="one" unicode="1" horiz-adv-x="276" 
d="M225.061 694.429c-16.5713 -9.83691 -29.2412 -60.8857 -29.2422 -125.757v-438.674c0 -64.8701 12.6709 -115.919 29.2422 -125.758v-4.33984h-156.329v4.33984c16.5703 9.83594 29.2402 60.8779 29.2422 125.738v390.337
c-2.24902 15.3662 -22.4785 22.0908 -50.6416 6.09375l-3.33203 3.27539l83.21 169.084h97.8506v-4.33984z" />
    <glyph glyph-name="two" unicode="2" horiz-adv-x="628" 
d="M281.89 92.498l2.31934 28.1201l2.32031 -28.1201h-4.63965zM236.775 127.395c0.985352 0 1.7832 -0.797852 1.7832 -1.78223v-13.7363c0 -0.985352 -0.798828 -1.7832 -1.7832 -1.7832h-1.30957v17.3018h1.30957zM317.306 299.867
c2.12988 0.40918 3.99023 -1.21191 3.99023 -3.2666l0.0244141 -81.7266c0 -1.85254 -1.50195 -3.35449 -3.35449 -3.35449c-1.83887 0 -3.33008 1.49121 -3.33008 3.33105v81.626c0 1.61035 1.08887 3.08691 2.66992 3.39062zM310.621 127.396
c0.985352 0 1.7832 -0.797852 1.7832 -1.7832v-39.0879c0 -0.984375 -0.798828 -1.78223 -1.7832 -1.78223h-1.83301v42.6533h1.83301zM144.187 458.921c2.11621 0 3.83203 -1.7168 3.83105 -3.83398v-32.9131c0 -2.11621 -1.71484 -3.83105 -3.83105 -3.83105h-2.81543
v40.5781h2.81543zM426.63 520.171c-1.9541 0 -3.53711 1.58398 -3.53711 3.53809v86.6533c0 1.70996 1.15625 3.27734 2.83594 3.59961c2.26172 0.433594 4.23633 -1.28809 4.23633 -3.46973l0.0253906 -86.7607c0 -1.9668 -1.59375 -3.56055 -3.56055 -3.56055z
M521.494 698.927c27.6133 0 49.998 -22.3838 49.999 -49.9971v-598.932c0 -27.6133 -22.3848 -49.998 -49.998 -49.998h-415.498c-27.6133 0 -49.998 22.3857 -49.998 49.998v598.931c0 27.6133 22.3848 49.998 49.998 49.998h415.497zM482.662 627.287h-19.3184v-120.199
h16.2227v54.5039h0.495117l7.59082 -54.5039h16.0645l-9.36035 57.2197c5.36133 3.31934 8.30273 9.58398 8.30273 18.292v20.4121c0 15.2012 -7.47559 24.2754 -19.9971 24.2754zM467.297 353.141l-13.9365 120.199h-19.3125l-13.9355 -120.199h16.0654l1.37012 16.6064
h12.3115l1.37207 -16.6064h16.0654zM406.982 605.206v-77.3076c0 -13.1055 7.85547 -21.9111 19.5449 -21.9111c11.959 0 19.9961 8.26172 19.9961 20.5596v82.04c0 11.8262 -7.80957 19.7705 -19.4326 19.7705c-12.5918 0 -20.1084 -8.65527 -20.1084 -23.1514z
M360.272 627.286l-0.000976562 -120.199h16.4473v60.834h13.4053v14.417h-13.4053v30.3047h16.4473v14.6436h-32.8936zM277.503 627.286v-120.201h33.6836v14.3086h-17.3486v40.7793h12.6172v14.3076h-12.6172v36.2744h16.7852v14.5312h-33.1201zM287.968 474.426
c-12.5908 0 -20.1035 -8.65137 -20.1074 -23.1475l0.00976562 -8.65625c0.0136719 -11.5459 3.19336 -19.4248 12.166 -29.6865c7.01855 -8.03027 8.90039 -10.5586 10.0635 -13.5166c0.740234 -1.9043 1.04199 -3.63574 1.19141 -7.26074v-22.377
c0 -1.95312 -1.58398 -3.53809 -3.53711 -3.53809h-0.000976562c-1.94336 -0.00292969 -3.53223 1.56348 -3.55469 3.50781l-0.00292969 19.3564h-16.335v-16.4902c0 -12.2979 8.03516 -20.5596 19.9951 -20.5596c11.6914 0 19.5459 8.80566 19.5459 21.9111v15.6338
c-0.000976562 6.90234 -0.791992 11.9697 -2.54297 16.373c-1.50488 4.29102 -3.02734 6.73926 -7.43848 11.9434c-0.707031 0.777344 -2.70801 2.88867 -2.70801 2.88867c-2.48047 2.71777 -4.72852 5.87891 -6.59473 8.74609
c-2.53027 3.66016 -4.05762 9.06738 -4.14453 14.5479v12.3311c-0.000976562 1.70898 1.1543 3.27734 2.83496 3.59863c2.26172 0.43457 4.23633 -1.28711 4.23633 -3.46973l0.0205078 -16.4346h16.3369v14.5273c0 11.8252 -7.80957 19.7715 -19.4336 19.7715z
M229.099 627.288v-120.201h33.6826v14.3086h-17.3486v40.7793h12.6172v14.3076h-12.6172v36.2744h16.7861v14.5312h-33.1201zM237.504 473.342h-19.3203v-120.199h16.2227v54.5039h0.495117l7.5918 -54.5039h16.0645l-9.35938 57.2197
c5.36133 3.31934 8.30273 9.58398 8.30273 18.292v20.4121c0 15.2012 -7.47559 24.2754 -19.9971 24.2754zM192.367 627.289h-19.3203v-120.199h16.2227v54.5039h0.495117l7.5918 -54.5039h16.0645l-9.35938 57.2197c5.36133 3.31934 8.30273 9.58398 8.30273 18.292
v20.4121c0 15.2012 -7.47559 24.2754 -19.9971 24.2754zM203.365 408.229v14.3057h-12.6172v36.2744h16.7852v14.5312h-33.1201v-120.199h33.6836v14.3086h-17.3486v40.7793h12.6172zM125.944 627.287l-0.000976562 -120.199h16.4473v60.834h13.4053v14.417h-13.4053
v30.3047h16.4473v14.6436h-32.8936zM139.718 87.8828l-0.00683594 7.27246c0 3.20996 -0.368164 5.56738 -1.18262 7.61523c-0.700195 1.99609 -1.4082 3.13574 -3.45996 5.55566c-0.328125 0.361328 -1.25977 1.34375 -1.25977 1.34375
c-1.15332 1.26367 -2.19922 2.73438 -3.06641 4.06836c-1.17676 1.70215 -1.8877 4.2168 -1.92773 6.76562v5.73633c-0.000976562 0.795898 0.536133 1.52441 1.31836 1.67383c1.05273 0.202148 1.97168 -0.598633 1.97168 -1.61328l0.00878906 -7.64453h7.59863v6.75684
c0 5.5 -3.63184 9.19629 -9.03809 9.19629c-5.85645 0 -9.35254 -4.02539 -9.35254 -10.7676l0.00488281 -4.02637c0.00585938 -5.37012 1.48535 -9.03516 5.65918 -13.8086c3.26465 -3.73438 4.13965 -4.91016 4.68066 -6.28613
c0.344727 -0.885742 0.484375 -1.69141 0.554688 -3.37793v-10.4072c0 -0.908203 -0.735352 -1.64551 -1.64355 -1.64551h-0.000976562c-0.90332 -0.000976562 -1.64258 0.726562 -1.65234 1.63086l-0.000976562 9.00195h-7.59766v-7.66992
c0 -5.71973 3.7373 -9.5625 9.30078 -9.5625c5.43848 0 9.0918 4.09668 9.0918 10.1924zM122.404 218.8c0 -12.3447 7.39844 -20.6387 18.4121 -20.6377c11.2646 0 18.8359 7.78223 18.8359 19.3662v94.8936h-15.4043l0.0175781 -97.0176
c0 -0.102539 -0.0166016 -0.195312 -0.0224609 -0.295898v-0.253906c0 -1.06738 -0.510742 -2.00586 -1.28906 -2.61523c-0.0449219 -0.0371094 -0.0888672 -0.0742188 -0.133789 -0.111328c-0.0507812 -0.0371094 -0.106445 -0.0664062 -0.15918 -0.100586
c-0.322266 -0.212891 -0.677734 -0.363281 -1.06836 -0.4375c-0.0693359 -0.0126953 -0.139648 -0.0117188 -0.208984 -0.0214844c-0.119141 -0.0136719 -0.233398 -0.0400391 -0.357422 -0.0400391l-0.0136719 0.00195312
c-0.0351562 -0.000976562 -0.0693359 -0.00976562 -0.103516 -0.00976562c-1.83984 0 -3.33105 1.49121 -3.33105 3.33105v97.5684h-15.1738v-93.6201zM162.705 78.1973v6.65332h-8.06934v18.9678h5.86914v6.65527h-5.86914v16.8721h7.80762v6.75977h-15.4053v-55.9082
h15.667zM164.352 425.275l0.000976562 23.792c0 15.2002 -7.47656 24.2744 -19.9961 24.2744h-19.3203v-120.199h16.2217v51.123h4.22461c11.9932 0 18.8691 7.6582 18.8691 21.0098zM168.844 78.1973h15.668v6.65332h-8.07031v18.9678h5.86914v6.65527h-5.86914v16.8721
h7.80762v6.75977h-15.4053v-55.9082zM173.261 217.541c0 -11.584 7.56934 -19.3691 18.833 -19.3701c11.0137 0 18.4121 8.2959 18.4121 20.6406v14.7266c-0.000976562 6.50195 -0.74707 11.2754 -2.39648 15.4229c-1.41797 4.04297 -2.85156 6.34863 -7.00684 11.251
c-0.666016 0.732422 -2.55078 2.72266 -2.55078 2.72266c-2.33594 2.55957 -4.4541 5.53809 -6.21094 8.23926c-2.38379 3.44727 -3.82227 8.54102 -3.9043 13.7031v11.6152c-0.000976562 1.61133 1.08691 3.08789 2.66895 3.3916
c2.13086 0.408203 3.99121 -1.21289 3.99121 -3.26758l0.0195312 -15.4814h15.3896v13.6846c0 11.1387 -7.35645 18.625 -18.3047 18.625c-11.8613 0 -18.9424 -8.15234 -18.9424 -21.8076l0.00878906 -8.1543c0.0126953 -10.877 3.00879 -18.2979 11.46 -27.9648
c6.61133 -7.56445 8.38379 -9.94531 9.48047 -12.7314c0.698242 -1.79297 0.980469 -3.4248 1.12207 -6.83984v-21.0781c0 -1.83984 -1.49023 -3.33203 -3.33008 -3.33203h-0.000976562c-1.83008 -0.00195312 -3.32715 1.47363 -3.34766 3.30469
c-0.00195312 0.1875 -0.00195312 11.2314 -0.00292969 18.2334h-15.3877v-15.5332zM208.57 123.672c1.80273 1.63086 2.7373 3.69824 2.7373 6.07812c0 3.17578 -1.59863 5.1748 -4.06055 5.19922c-1.98926 0.0195312 -3.60645 -1.40039 -3.86523 -3.38672
c-0.185547 -1.43164 0.339844 -2.69531 1.45605 -3.58008c1.12109 -0.886719 1.56055 -2.44336 0.811523 -3.66406c-0.405273 -0.65918 -0.996094 -1.11523 -1.93164 -1.58594l0.68457 -1.31543c2.17676 0.751953 2.98633 1.25293 4.16797 2.25488zM218.109 123.673
c1.80176 1.63086 2.7373 3.69824 2.7373 6.07812c0 3.17578 -1.59863 5.1748 -4.06055 5.19922c-1.98926 0.0195312 -3.60645 -1.40039 -3.86523 -3.38672c-0.185547 -1.43164 0.339844 -2.69531 1.45605 -3.58008c1.12012 -0.886719 1.55957 -2.44336 0.811523 -3.66406
c-0.404297 -0.65918 -0.995117 -1.11523 -1.93066 -1.58594l0.68457 -1.31543c2.17676 0.751953 2.98633 1.25293 4.16699 2.25488zM224.407 312.42v-113.227h31.7295v13.4785h-16.3418v38.4131h11.8848v13.4775h-11.8848v34.1699h15.8115v13.6875h-31.1992z
M239.175 78.1963l7.47168 -0.000976562l-4.35352 26.6152c2.49316 1.54395 3.8623 4.45801 3.8623 8.50879v9.49414c0 7.06934 -3.47754 11.291 -9.30176 11.291h-8.98535v-55.9082h7.54492v25.3516h0.230469zM269.335 78.1953v6.65332h-8.06934v18.9678h5.86914v6.65527
h-5.86914v16.8721h7.80762v6.75977h-15.4053v-55.9082h15.667zM287.711 78.1953h7.47363l-6.48242 55.9092h-8.98242l-6.48145 -55.9092h7.47168l0.636719 7.72461h5.72656zM320.003 87.9678v34.8438c0 7.07031 -3.47754 11.292 -9.30176 11.292h-9.50977v-55.9082h10.0342
c5.57812 0 8.77734 3.5625 8.77734 9.77246zM336.706 217.525l-0.000976562 77.2793c0 11.1396 -7.35645 18.624 -18.3047 18.624c-11.8613 0 -18.9424 -8.15234 -18.9424 -21.8076v-72.8213c0 -12.3447 7.39941 -20.6406 18.4111 -20.6406
c11.2656 0 18.8369 7.78223 18.8369 19.3662zM318.416 373.953c0 -13.1055 7.85352 -21.9111 19.5449 -21.9111c11.959 0 19.9961 8.26172 19.9961 20.5596v82.04c0 11.8262 -7.80957 19.7705 -19.4336 19.7705c-12.5918 0 -20.1074 -8.65527 -20.1074 -23.1514v-77.3076z
M359.831 78.1953l7.54688 0.000976562v55.9082h-6.34375l-6.38379 -23.4072l-6.30469 23.4072h-6.42188v-55.9082h7.5459v28.4229l3.45605 -12.127h3.18164l3.72363 12.9971v-29.2939zM365.471 252.526c1.12988 -3.72363 8.625 -47.2314 9.67383 -53.332h13.833v113.233
h-14.3262v-51.1162l0.287109 -3.19824l-9.89746 54.3135h-13.6279v-113.232h14.3252v50.2295zM375.631 78.1963l15.668 0.000976562v6.65332h-8.07031v18.9678h5.86914v6.65527h-5.86914v16.8721h7.80762v6.75879h-15.4053v-55.9082zM385.062 409.76
c1.2002 -3.95312 9.15625 -50.1406 10.2695 -56.6172h14.6855v120.207h-15.209v-54.2637l0.305664 -3.39453l-10.5078 57.6582h-14.4678v-120.207h15.207v53.3232zM401.382 123.676c1.80273 1.63086 2.73633 3.69824 2.73633 6.07812
c0 3.17578 -1.59863 5.1748 -4.06055 5.19922c-1.98926 0.0195312 -3.60645 -1.40039 -3.86523 -3.38672c-0.185547 -1.43164 0.339844 -2.69531 1.45605 -3.58008c1.12109 -0.886719 1.56055 -2.44336 0.811523 -3.66406
c-0.405273 -0.65918 -0.996094 -1.11523 -1.93164 -1.58594l0.68457 -1.31543c2.17773 0.751953 2.98633 1.25293 4.16895 2.25488zM410.919 123.677c1.80273 1.63086 2.7373 3.69824 2.7373 6.07812c0 3.17578 -1.59863 5.1748 -4.06055 5.19922
c-1.98926 0.0195312 -3.60645 -1.40039 -3.86523 -3.38672c-0.185547 -1.43164 0.338867 -2.69531 1.45605 -3.58008c1.12012 -0.886719 1.55957 -2.44336 0.811523 -3.66406c-0.404297 -0.65918 -0.995117 -1.11523 -1.93066 -1.58594l0.68457 -1.31543
c2.17676 0.751953 2.98633 1.25293 4.16699 2.25488zM434.227 199.199v13.583h-14.9609v99.6416h-15.2812v-113.225h30.2422zM449.956 127.298l0.000976562 6.81152h-15.2998v-55.9092h7.64941v28.2959h6.23535v6.70605h-6.23535v14.0957h7.64941zM463.048 78.2012v55.9082
h-7.54492v-55.9082h7.54492zM464.225 199.2l-0.000976562 53.8379l12.9717 59.4189h-15.2598l-5.31445 -38.6738l-5.39355 38.6738h-15.3623l13.0771 -59.8428v-53.4141h15.2822zM486.25 78.2002v6.70605h-7.3877v49.2021h-7.5459v-55.9082h14.9336zM488.481 206.692
c0 -4.42285 3.53809 -8.08789 8.08691 -8.08789c5.10742 0 9.20312 4.87988 7.81836 10.1768c-0.871094 3.33398 -3.89648 5.79297 -7.33691 5.98633c-4.78027 0.268555 -8.56836 -3.49902 -8.56836 -8.0752zM489.518 251.394l1.84277 -29.9121h10.4238l1.84082 29.9121
v61.0293h-14.1074v-61.0293zM506.712 78.2002v6.6543h-8.06934v18.9678h5.86914v6.65527h-5.86914v16.8721h7.80762v6.75879h-15.4053v-55.9082h15.667zM509.4 353.147v14.4199h-15.8828v105.779h-16.2227v-120.199h32.1055zM486.324 579.511
c0 -2.11621 -1.71484 -3.83301 -3.83105 -3.83398h-2.81543v37.1963h2.81543c2.11621 0 3.83105 -1.71484 3.83105 -3.83105v-29.5312zM241.163 425.562c0 -2.11621 -1.71582 -3.83398 -3.83105 -3.83398h-2.81543v37.1963h2.81543
c2.11621 0 3.83105 -1.71484 3.83105 -3.83105v-29.5312zM337.363 460.02c2.26074 0.43457 4.23535 -1.28613 4.23633 -3.46777l0.0253906 -86.7607c0 -1.9668 -1.59375 -3.56055 -3.56055 -3.56055c-1.95312 0 -3.53711 1.58203 -3.53711 3.53613v86.6533
c0 1.70996 1.15625 3.27734 2.83594 3.59961zM196.026 579.508c0 -2.11621 -1.71582 -3.83301 -3.83203 -3.83398h-2.81445v37.1963h2.81445c2.11719 0 3.83203 -1.71484 3.83203 -3.83105v-29.5312zM443.702 444.355l4.9873 -60.457h-9.97461z" />
    <glyph glyph-name="three" unicode="3" horiz-adv-x="628" 
d="M281.889 92.498l2.31934 28.1201l2.32031 -28.1201h-4.63965zM236.775 127.395c0.984375 0 1.7832 -0.797852 1.7832 -1.78223v-13.7363c0 -0.985352 -0.798828 -1.7832 -1.7832 -1.7832h-1.30957v17.3018h1.30957zM317.305 299.867
c2.13086 0.40918 3.99121 -1.21191 3.99023 -3.2666l0.0244141 -81.7266c0 -1.85254 -1.50195 -3.35449 -3.35449 -3.35449c-1.83887 0 -3.33008 1.49121 -3.33008 3.33105v81.626c0 1.61035 1.08887 3.08691 2.66992 3.39062zM310.621 127.396
c0.984375 0 1.7832 -0.797852 1.7832 -1.7832v-39.0879c0 -0.984375 -0.798828 -1.78223 -1.7832 -1.78223h-1.83301v42.6533h1.83301zM144.187 458.921c2.11621 0 3.83105 -1.7168 3.83105 -3.83398v-32.9131c0 -2.11621 -1.71484 -3.83105 -3.83105 -3.83105h-2.81543
v40.5781h2.81543zM426.629 520.171c-1.95312 0 -3.53711 1.58398 -3.53711 3.53809v86.6533c0 1.70996 1.15625 3.27734 2.83594 3.59961c2.26172 0.433594 4.23633 -1.28809 4.23633 -3.46973l0.0253906 -86.7607c0 -1.9668 -1.59375 -3.56055 -3.56055 -3.56055z
M521.495 698.927c27.6133 0 49.998 -22.3838 49.998 -49.9971v-598.932c0 -27.6133 -22.3848 -49.998 -49.998 -49.998h-415.497c-27.6133 0 -49.998 22.3857 -49.998 49.998v598.931c0 27.6133 22.3848 49.998 49.998 49.998h415.497zM482.662 627.287h-19.3184v-120.199
h16.2227v54.5039h0.495117l7.59082 -54.5039h16.0645l-9.36035 57.2197c5.36133 3.31934 8.30273 9.58398 8.30273 18.292v20.4121c0 15.2012 -7.47559 24.2754 -19.9971 24.2754zM467.297 353.141l-13.9365 120.199h-19.3125l-13.9355 -120.199h16.0654l1.37012 16.6064
h12.3115l1.37207 -16.6064h16.0654zM406.982 605.206v-77.3076c0 -13.1055 7.85547 -21.9111 19.5449 -21.9111c11.959 0 19.9961 8.26172 19.9961 20.5596v82.04c0 11.8262 -7.80957 19.7705 -19.4326 19.7705c-12.5918 0 -20.1084 -8.65527 -20.1084 -23.1514z
M360.273 627.286l-0.000976562 -120.199h16.4473v60.834h13.4053v14.417h-13.4053v30.3047h16.4473v14.6436h-32.8936zM277.503 627.286v-120.201h33.6836v14.3086h-17.3486v40.7793h12.6172v14.3076h-12.6172v36.2744h16.7852v14.5312h-33.1201zM287.969 474.426
c-12.5908 0 -20.1045 -8.65137 -20.1084 -23.1475l0.00976562 -8.65625c0.0136719 -11.5459 3.19336 -19.4248 12.166 -29.6865c7.01855 -8.03027 8.90039 -10.5586 10.0635 -13.5166c0.740234 -1.9043 1.04199 -3.63574 1.19141 -7.26074v-22.377
c0 -1.95312 -1.58398 -3.53809 -3.53711 -3.53809h-0.000976562c-1.94336 -0.00292969 -3.53223 1.56348 -3.55371 3.50781l-0.00292969 19.3564h-16.335v-16.4902c0 -12.2979 8.03516 -20.5596 19.9951 -20.5596c11.6914 0 19.5459 8.80566 19.5459 21.9111v15.6338
c-0.000976562 6.90234 -0.791992 11.9697 -2.54297 16.373c-1.50488 4.29102 -3.02734 6.73926 -7.43848 11.9434c-0.707031 0.777344 -2.70801 2.88867 -2.70801 2.88867c-2.48047 2.71777 -4.72852 5.87891 -6.59473 8.74609
c-2.53027 3.66016 -4.05762 9.06738 -4.14453 14.5479v12.3311c-0.000976562 1.70898 1.1543 3.27734 2.83496 3.59863c2.26172 0.43457 4.23633 -1.28711 4.23633 -3.46973l0.0205078 -16.4346h16.3369v14.5273c0 11.8252 -7.80957 19.7715 -19.4336 19.7715z
M229.098 627.288v-120.201h33.6836v14.3086h-17.3486v40.7793h12.6172v14.3076h-12.6172v36.2744h16.7852v14.5312h-33.1201zM218.183 473.342l0.000976562 -120.199h16.2217v54.5039h0.495117l7.5918 -54.5039h16.0645l-9.35938 57.2197
c5.36133 3.31934 8.30273 9.58398 8.30273 18.292v20.4121c0 15.2012 -7.47559 24.2754 -19.9971 24.2754h-19.3203zM192.367 627.289h-19.3203v-120.199h16.2227v54.5039h0.495117l7.5918 -54.5039h16.0645l-9.35938 57.2197
c5.36133 3.31934 8.30273 9.58398 8.30273 18.292v20.4121c0 15.2012 -7.47559 24.2754 -19.9971 24.2754zM203.365 408.229v14.3057h-12.6172v36.2744h16.7852v14.5312h-33.1201v-120.199h33.6836v14.3086h-17.3486v40.7793h12.6172zM125.944 627.287
l-0.000976562 -120.199h16.4473v60.834h13.4053v14.417h-13.4053v30.3047h16.4473v14.6436h-32.8936zM139.718 87.8828l-0.00683594 7.27246c0 3.20996 -0.368164 5.56738 -1.18262 7.61523c-0.700195 1.99609 -1.4082 3.13574 -3.45996 5.55566
c-0.328125 0.361328 -1.25977 1.34375 -1.25977 1.34375c-1.15332 1.26367 -2.19922 2.73438 -3.06641 4.06836c-1.17676 1.70215 -1.8877 4.2168 -1.92773 6.76562v5.73633c-0.000976562 0.795898 0.536133 1.52441 1.31836 1.67383
c1.05273 0.202148 1.97168 -0.598633 1.97168 -1.61328l0.00878906 -7.64453h7.59863v6.75684c0 5.5 -3.63184 9.19629 -9.03809 9.19629c-5.85645 0 -9.35254 -4.02539 -9.35254 -10.7676l0.00488281 -4.02637c0.00585938 -5.37012 1.48535 -9.03516 5.65918 -13.8086
c3.26465 -3.73438 4.13965 -4.91016 4.68066 -6.28613c0.344727 -0.885742 0.484375 -1.69141 0.554688 -3.37793v-10.4072c0 -0.908203 -0.735352 -1.64551 -1.64355 -1.64551h-0.000976562c-0.90332 -0.000976562 -1.64258 0.726562 -1.65234 1.63086
l-0.000976562 9.00195h-7.59766v-7.66992c0 -5.71973 3.7373 -9.5625 9.30078 -9.5625c5.43848 0 9.0918 4.09668 9.0918 10.1924zM122.403 218.8c0 -12.3447 7.39746 -20.6387 18.4111 -20.6377c11.2656 0 18.8369 7.78223 18.8369 19.3662v94.8936h-15.4043
l0.0175781 -97.0176c0 -0.102539 -0.0166016 -0.195312 -0.0224609 -0.295898v-0.253906c0 -1.06738 -0.510742 -2.00586 -1.28906 -2.61523c-0.0449219 -0.0371094 -0.0888672 -0.0742188 -0.133789 -0.111328
c-0.0507812 -0.0371094 -0.106445 -0.0664062 -0.15918 -0.100586c-0.322266 -0.212891 -0.677734 -0.363281 -1.06836 -0.4375c-0.0693359 -0.0126953 -0.139648 -0.0117188 -0.208984 -0.0214844c-0.119141 -0.0136719 -0.233398 -0.0400391 -0.357422 -0.0400391
l-0.0136719 0.00195312c-0.0351562 -0.000976562 -0.0693359 -0.00976562 -0.103516 -0.00976562c-1.83984 0 -3.33105 1.49121 -3.33105 3.33105v97.5684h-15.1738v-93.6201zM162.704 78.1973v6.65332h-8.06934v18.9678h5.86914v6.65527h-5.86914v16.8721h7.80762v6.75977
h-15.4053v-55.9082h15.667zM164.351 425.275v23.792c0 15.2002 -7.47656 24.2744 -19.9961 24.2744h-19.3203v-120.199h16.2227v51.123h4.22461c11.9932 0 18.8691 7.6582 18.8691 21.0098zM168.842 78.1963l15.668 0.000976562v6.65332h-8.07031v18.9678h5.86914v6.65527
h-5.86914v16.8721h7.80762v6.75879h-15.4053v-55.9082zM173.26 217.541c0 -11.584 7.56836 -19.3691 18.833 -19.3701c11.0137 0 18.4121 8.2959 18.4121 20.6406v14.7266c-0.000976562 6.50195 -0.74707 11.2754 -2.39648 15.4229
c-1.41797 4.04297 -2.85156 6.34863 -7.00684 11.251c-0.666016 0.732422 -2.55078 2.72266 -2.55078 2.72266c-2.33594 2.55957 -4.4541 5.53809 -6.21094 8.23926c-2.38379 3.44727 -3.82227 8.54102 -3.9043 13.7031v11.6152
c-0.000976562 1.61133 1.08691 3.08789 2.66895 3.3916c2.13086 0.408203 3.99121 -1.21289 3.99121 -3.26758l0.0195312 -15.4814h15.3896v13.6846c0 11.1387 -7.35645 18.625 -18.3047 18.625c-11.8613 0 -18.9424 -8.15234 -18.9424 -21.8076l0.00878906 -8.1543
c0.0126953 -10.877 3.00879 -18.2979 11.46 -27.9648c6.61133 -7.56445 8.38379 -9.94531 9.48047 -12.7314c0.698242 -1.79297 0.980469 -3.4248 1.12207 -6.83984v-21.0781c0 -1.83984 -1.49023 -3.33203 -3.33008 -3.33203h-0.000976562
c-1.83008 -0.00195312 -3.32715 1.47363 -3.34766 3.30469c-0.00195312 0.1875 -0.00195312 11.2314 -0.00292969 18.2334h-15.3877v-15.5332zM208.569 123.672c1.80273 1.63086 2.73633 3.69824 2.73633 6.07812c0 3.17578 -1.59863 5.1748 -4.06055 5.19922
c-1.98926 0.0195312 -3.60645 -1.40039 -3.86523 -3.38672c-0.185547 -1.43164 0.339844 -2.69531 1.45605 -3.58008c1.12109 -0.886719 1.56055 -2.44336 0.811523 -3.66406c-0.405273 -0.65918 -0.996094 -1.11523 -1.93164 -1.58594l0.68457 -1.31543
c2.17676 0.751953 2.98633 1.25293 4.16895 2.25488zM218.106 123.673c1.80273 1.63086 2.7373 3.69824 2.7373 6.07812c0 3.17578 -1.59863 5.1748 -4.06055 5.19922c-1.98926 0.0195312 -3.60645 -1.40039 -3.86523 -3.38672
c-0.185547 -1.43164 0.339844 -2.69531 1.45605 -3.58008c1.12012 -0.886719 1.55957 -2.44336 0.811523 -3.66406c-0.404297 -0.65918 -0.995117 -1.11523 -1.93066 -1.58594l0.68457 -1.31543c2.17676 0.751953 2.98633 1.25293 4.16699 2.25488zM224.404 312.42v-113.227
h31.7295v13.4785h-16.3418v38.4131h11.8848v13.4775h-11.8848v34.1699h15.8115v13.6875h-31.1992zM239.173 78.1963l7.47168 -0.000976562l-4.35352 26.6152c2.49316 1.54395 3.8623 4.45801 3.8623 8.50879v9.49414c0 7.06934 -3.47754 11.291 -9.30176 11.291h-8.98535
v-55.9082h7.54492v25.3516h0.230469zM269.333 78.1953v6.65332h-8.06934v18.9678h5.86914v6.65527h-5.86914v16.8721h7.80762v6.75977h-15.4053v-55.9082h15.667zM287.708 78.1953h7.47363l-6.48242 55.9092h-8.98242l-6.48145 -55.9092h7.47168l0.636719 7.72461h5.72656z
M320 87.9678v34.8438c0 7.07031 -3.47754 11.292 -9.30176 11.292h-9.50977v-55.9082h10.0342c5.57812 0 8.77734 3.5625 8.77734 9.77246zM336.703 217.525v77.2793c0 11.1396 -7.35645 18.624 -18.3047 18.624c-11.8613 0 -18.9424 -8.15234 -18.9424 -21.8076v-72.8213
c0 -12.3447 7.39941 -20.6406 18.4111 -20.6406c11.2646 0 18.8359 7.78223 18.8359 19.3662zM318.414 373.953c0 -13.1055 7.85449 -21.9111 19.5449 -21.9111c11.959 0 19.9961 8.26172 19.9961 20.5596v82.04c0 11.8262 -7.80957 19.7705 -19.4336 19.7705
c-12.5918 0 -20.1074 -8.65527 -20.1074 -23.1514v-77.3076zM359.83 78.1953l7.54688 0.000976562v55.9082h-6.34375l-6.38379 -23.4072l-6.30469 23.4072h-6.42188v-55.9082h7.5459v28.4229l3.45605 -12.127h3.18164l3.72363 12.9971v-29.2939zM365.47 252.526
c1.12988 -3.72363 8.62598 -47.2314 9.67383 -53.332h13.833v113.233h-14.3262v-51.1162l0.287109 -3.19824l-9.89746 54.3135h-13.6279v-113.232h14.3252v50.2295zM375.63 78.1963l15.668 0.000976562v6.65332h-8.07031v18.9678h5.86914v6.65527h-5.86914v16.8721h7.80762
v6.75879h-15.4053v-55.9082zM385.062 409.76c1.19922 -3.95312 9.15527 -50.1406 10.2686 -56.6172h14.6855v120.207h-15.209v-54.2637l0.305664 -3.39453l-10.5078 57.6582h-14.4678v-120.207h15.208v53.3232zM401.382 123.676
c1.80176 1.63086 2.73633 3.69824 2.73633 6.07812c0 3.17578 -1.59863 5.1748 -4.06055 5.19922c-1.98926 0.0195312 -3.60645 -1.40039 -3.86523 -3.38672c-0.185547 -1.43164 0.339844 -2.69531 1.45605 -3.58008c1.12109 -0.886719 1.56055 -2.44336 0.811523 -3.66406
c-0.405273 -0.65918 -0.996094 -1.11523 -1.93164 -1.58594l0.68457 -1.31543c2.17773 0.751953 2.98633 1.25293 4.16895 2.25488zM410.919 123.677c1.80273 1.63086 2.7373 3.69824 2.7373 6.07812c0 3.17578 -1.59863 5.1748 -4.06055 5.19922
c-1.98926 0.0195312 -3.60645 -1.40039 -3.86523 -3.38672c-0.185547 -1.43164 0.338867 -2.69531 1.45605 -3.58008c1.12012 -0.886719 1.55957 -2.44336 0.811523 -3.66406c-0.404297 -0.65918 -0.995117 -1.11523 -1.93066 -1.58594l0.68457 -1.31543
c2.17676 0.751953 2.98633 1.25293 4.16699 2.25488zM434.226 199.199v13.583h-14.9609v99.6416h-15.2812v-113.225h30.2422zM449.955 127.298l0.000976562 6.81152h-15.2998v-55.9092h7.64941v28.2959h6.23535v6.70605h-6.23535v14.0957h7.64941zM463.048 78.2012v55.9082
h-7.54492v-55.9082h7.54492zM464.224 199.2l-0.000976562 53.8379l12.9717 59.4189h-15.2598l-5.31445 -38.6738l-5.39355 38.6738h-15.3623l13.0771 -59.8428v-53.4141h15.2822zM486.249 78.2002v6.70605h-7.3877v49.2021h-7.5459v-55.9082h14.9336zM488.48 206.692
c0 -4.42285 3.53906 -8.08789 8.08691 -8.08789c5.10742 0 9.20312 4.87988 7.81836 10.1768c-0.871094 3.33398 -3.89648 5.79297 -7.33691 5.98633c-4.78027 0.268555 -8.56836 -3.49902 -8.56836 -8.0752zM489.517 251.394l1.84277 -29.9121h10.4238l1.84082 29.9121
v61.0293h-14.1074v-61.0293zM506.712 78.2002v6.6543h-8.06934v18.9678h5.86914v6.65527h-5.86914v16.8721h7.80762v6.75879h-15.4053v-55.9082h15.667zM509.4 353.147v14.4199h-15.8828v105.779h-16.2227v-120.199h32.1055zM486.323 579.511
c0 -2.11621 -1.71484 -3.83301 -3.83105 -3.83398h-2.81543v37.1963h2.81543c2.11621 0 3.83105 -1.71484 3.83105 -3.83105v-29.5312zM241.162 425.562c0 -2.11621 -1.71484 -3.83398 -3.83105 -3.83398h-2.81543v37.1963h2.81543
c2.11621 0 3.83105 -1.71484 3.83105 -3.83105v-29.5312zM337.362 460.02c2.26172 0.43457 4.23535 -1.28613 4.23535 -3.46777l0.0253906 -86.7607c0 -1.9668 -1.59375 -3.56055 -3.56055 -3.56055c-1.95312 0 -3.53613 1.58203 -3.53613 3.53613v86.6533
c0 1.70996 1.15625 3.27734 2.83594 3.59961zM196.024 579.508c0 -2.11621 -1.71484 -3.83301 -3.83203 -3.83398h-2.81445v37.1963h2.81445c2.11719 0 3.83203 -1.71484 3.83203 -3.83105v-29.5312zM443.701 444.355l4.9873 -60.457h-9.97559z" />
    <glyph glyph-name="four" unicode="4" horiz-adv-x="628" 
d="M281.889 92.498l2.31934 28.1201l2.32031 -28.1201h-4.63965zM236.775 127.395c0.984375 0 1.7832 -0.797852 1.7832 -1.78223v-13.7363c0 -0.985352 -0.798828 -1.7832 -1.7832 -1.7832h-1.30957v17.3018h1.30957zM317.305 299.867
c2.12988 0.40918 3.99121 -1.21191 3.99023 -3.2666l0.0244141 -81.7266c0 -1.85254 -1.50195 -3.35449 -3.35449 -3.35449c-1.83887 0 -3.33008 1.49121 -3.33008 3.33105v81.626c0 1.61035 1.08887 3.08691 2.66992 3.39062zM310.621 127.396
c0.984375 0 1.78223 -0.797852 1.7832 -1.7832v-39.0879c0 -0.984375 -0.798828 -1.78223 -1.7832 -1.78223h-1.83301v42.6533h1.83301zM144.187 458.921c2.11621 0 3.83105 -1.7168 3.83105 -3.83398v-32.9131c0 -2.11621 -1.71484 -3.83105 -3.83105 -3.83105h-2.81543
v40.5781h2.81543zM426.629 520.171c-1.95312 0 -3.53711 1.58398 -3.53711 3.53809v86.6533c0 1.70996 1.15625 3.27734 2.83594 3.59961c2.26172 0.433594 4.23633 -1.28809 4.23633 -3.46973l0.0253906 -86.7607c0 -1.9668 -1.59375 -3.56055 -3.56055 -3.56055z
M521.495 698.927c27.6123 0 49.998 -22.3838 49.998 -49.9971v-598.932c0 -27.6133 -22.3848 -49.998 -49.998 -49.998h-415.497c-27.6133 0 -49.998 22.3857 -49.998 49.998v598.931c0 27.6133 22.3848 49.998 49.998 49.998h415.497zM482.662 627.287h-19.3184v-120.199
h16.2227v54.5039h0.495117l7.59082 -54.5039h16.0645l-9.36035 57.2197c5.36133 3.31934 8.30273 9.58398 8.30273 18.292v20.4121c0 15.2012 -7.47559 24.2754 -19.9971 24.2754zM467.297 353.141l-13.9365 120.199h-19.3125l-13.9355 -120.199h16.0654l1.37012 16.6064
h12.3115l1.37207 -16.6064h16.0654zM406.982 605.206v-77.3076c0 -13.1055 7.85547 -21.9111 19.5449 -21.9111c11.959 0 19.9961 8.26172 19.9961 20.5596v82.04c0 11.8262 -7.80957 19.7705 -19.4326 19.7705c-12.5918 0 -20.1084 -8.65527 -20.1084 -23.1514z
M360.273 627.286l-0.000976562 -120.199h16.4473v60.834h13.4053v14.417h-13.4053v30.3047h16.4473v14.6436h-32.8936zM277.503 627.286v-120.201h33.6836v14.3086h-17.3486v40.7793h12.6172v14.3076h-12.6172v36.2744h16.7852v14.5312h-33.1201zM287.969 474.426
c-12.5908 0 -20.1045 -8.65137 -20.1084 -23.1475l0.00976562 -8.65625c0.0136719 -11.5459 3.19336 -19.4248 12.166 -29.6865c7.01855 -8.03027 8.90039 -10.5586 10.0635 -13.5166c0.740234 -1.9043 1.04199 -3.63574 1.19141 -7.26074v-22.377
c0 -1.95312 -1.58398 -3.53809 -3.53711 -3.53809h-0.000976562c-1.94336 -0.00292969 -3.53223 1.56348 -3.55371 3.50781l-0.00292969 19.3564h-16.335v-16.4902c0 -12.2979 8.03516 -20.5596 19.9951 -20.5596c11.6914 0 19.5459 8.80566 19.5459 21.9111v15.6338
c-0.000976562 6.90234 -0.791992 11.9697 -2.54297 16.373c-1.50488 4.29102 -3.02734 6.73926 -7.43848 11.9434c-0.707031 0.777344 -2.70801 2.88867 -2.70801 2.88867c-2.48047 2.71777 -4.72852 5.87891 -6.59473 8.74609
c-2.53027 3.66016 -4.05762 9.06738 -4.14453 14.5479v12.3311c-0.000976562 1.70898 1.1543 3.27734 2.83496 3.59863c2.26172 0.43457 4.23633 -1.28711 4.23633 -3.46973l0.0205078 -16.4346h16.3369v14.5273c0 11.8252 -7.80957 19.7715 -19.4336 19.7715z
M229.098 627.288v-120.201h33.6836v14.3086h-17.3486v40.7793h12.6172v14.3076h-12.6172v36.2744h16.7852v14.5312h-33.1201zM218.183 473.342l0.000976562 -120.199h16.2217v54.5039h0.495117l7.5918 -54.5039h16.0645l-9.35938 57.2197
c5.36133 3.31934 8.30273 9.58398 8.30273 18.292v20.4121c0 15.2012 -7.47559 24.2754 -19.9971 24.2754h-19.3203zM192.367 627.289h-19.3203v-120.199h16.2227v54.5039h0.495117l7.5918 -54.5039h16.0645l-9.35938 57.2197
c5.36133 3.31934 8.30273 9.58398 8.30273 18.292v20.4121c0 15.2012 -7.47559 24.2754 -19.9971 24.2754zM203.365 408.229v14.3057h-12.6172v36.2744h16.7852v14.5312h-33.1201v-120.199h33.6836v14.3086h-17.3486v40.7793h12.6172zM125.944 627.287
l-0.000976562 -120.199h16.4473v60.834h13.4053v14.417h-13.4053v30.3047h16.4473v14.6436h-32.8936zM139.718 87.8828l-0.00683594 7.27246c0 3.20996 -0.368164 5.56738 -1.18262 7.61523c-0.700195 1.99609 -1.4082 3.13574 -3.45996 5.55566
c-0.328125 0.361328 -1.25977 1.34375 -1.25977 1.34375c-1.15332 1.26367 -2.19922 2.73438 -3.06641 4.06836c-1.17676 1.70215 -1.8877 4.2168 -1.92773 6.76562v5.73633c-0.000976562 0.795898 0.536133 1.52441 1.31836 1.67383
c1.05273 0.202148 1.97168 -0.598633 1.97168 -1.61328l0.00878906 -7.64453h7.59863v6.75684c0 5.5 -3.63184 9.19629 -9.03809 9.19629c-5.85645 0 -9.35254 -4.02539 -9.35254 -10.7676l0.00488281 -4.02637c0.00585938 -5.37012 1.48535 -9.03516 5.65918 -13.8086
c3.26465 -3.73438 4.13965 -4.91016 4.68066 -6.28613c0.344727 -0.885742 0.484375 -1.69141 0.554688 -3.37793v-10.4072c0 -0.908203 -0.735352 -1.64551 -1.64355 -1.64551h-0.000976562c-0.90332 -0.000976562 -1.64258 0.726562 -1.65234 1.63086
l-0.000976562 9.00195h-7.59766v-7.66992c0 -5.71973 3.7373 -9.5625 9.30078 -9.5625c5.43848 0 9.0918 4.09668 9.0918 10.1924zM122.403 218.8c0 -12.3447 7.39746 -20.6387 18.4111 -20.6377c11.2656 0 18.8369 7.78223 18.8369 19.3662v94.8936h-15.4043
l0.0175781 -97.0176c0 -0.102539 -0.0166016 -0.195312 -0.0224609 -0.295898v-0.253906c0 -1.06738 -0.510742 -2.00586 -1.28906 -2.61523c-0.0449219 -0.0371094 -0.0888672 -0.0742188 -0.133789 -0.111328
c-0.0507812 -0.0371094 -0.106445 -0.0664062 -0.15918 -0.100586c-0.322266 -0.212891 -0.677734 -0.363281 -1.06836 -0.4375c-0.0693359 -0.0126953 -0.139648 -0.0117188 -0.208984 -0.0214844c-0.119141 -0.0136719 -0.233398 -0.0400391 -0.357422 -0.0400391
l-0.0136719 0.00195312c-0.0351562 -0.000976562 -0.0693359 -0.00976562 -0.103516 -0.00976562c-1.83984 0 -3.33105 1.49121 -3.33105 3.33105v97.5684h-15.1738v-93.6201zM162.704 78.1973v6.65332h-8.06934v18.9678h5.86914v6.65527h-5.86914v16.8721h7.80762v6.75977
h-15.4053v-55.9082h15.667zM164.351 425.275v23.792c0 15.2002 -7.47656 24.2744 -19.9961 24.2744h-19.3203v-120.199h16.2227v51.123h4.22461c11.9932 0 18.8691 7.6582 18.8691 21.0098zM168.842 78.1963l15.668 0.000976562v6.65332h-8.07031v18.9678h5.86914v6.65527
h-5.86914v16.8721h7.80762v6.75879h-15.4053v-55.9082zM173.26 217.541c0 -11.584 7.56836 -19.3691 18.833 -19.3701c11.0137 0 18.4121 8.2959 18.4121 20.6406v14.7266c-0.000976562 6.50195 -0.74707 11.2754 -2.39648 15.4229
c-1.41797 4.04297 -2.85156 6.34863 -7.00684 11.251c-0.666016 0.732422 -2.55078 2.72266 -2.55078 2.72266c-2.33594 2.55957 -4.4541 5.53809 -6.21094 8.23926c-2.38379 3.44727 -3.82227 8.54102 -3.9043 13.7031v11.6152
c-0.000976562 1.61133 1.08691 3.08789 2.66895 3.3916c2.13086 0.408203 3.99121 -1.21289 3.99121 -3.26758l0.0195312 -15.4814h15.3896v13.6846c0 11.1387 -7.35645 18.625 -18.3047 18.625c-11.8613 0 -18.9424 -8.15234 -18.9424 -21.8076l0.00878906 -8.1543
c0.0126953 -10.877 3.00879 -18.2979 11.46 -27.9648c6.61133 -7.56445 8.38379 -9.94531 9.48047 -12.7314c0.698242 -1.79297 0.980469 -3.4248 1.12207 -6.83984v-21.0781c0 -1.83984 -1.49023 -3.33203 -3.33008 -3.33203h-0.000976562
c-1.83008 -0.00195312 -3.32715 1.47363 -3.34766 3.30469c-0.00195312 0.1875 -0.00195312 11.2314 -0.00292969 18.2334h-15.3877v-15.5332zM208.569 123.672c1.80273 1.63086 2.73633 3.69824 2.73633 6.07812c0 3.17578 -1.59863 5.1748 -4.06055 5.19922
c-1.98926 0.0195312 -3.60645 -1.40039 -3.86523 -3.38672c-0.185547 -1.43164 0.339844 -2.69531 1.45605 -3.58008c1.12109 -0.886719 1.56055 -2.44336 0.811523 -3.66406c-0.405273 -0.65918 -0.996094 -1.11523 -1.93164 -1.58594l0.68457 -1.31543
c2.17676 0.751953 2.98633 1.25293 4.16895 2.25488zM218.106 123.673c1.80273 1.63086 2.7373 3.69824 2.7373 6.07812c0 3.17578 -1.59863 5.1748 -4.06055 5.19922c-1.98926 0.0195312 -3.60645 -1.40039 -3.86523 -3.38672
c-0.185547 -1.43164 0.339844 -2.69531 1.45605 -3.58008c1.12012 -0.886719 1.55957 -2.44336 0.811523 -3.66406c-0.404297 -0.65918 -0.995117 -1.11523 -1.93066 -1.58594l0.68457 -1.31543c2.17676 0.751953 2.98633 1.25293 4.16699 2.25488zM224.404 312.42v-113.227
h31.7295v13.4785h-16.3418v38.4131h11.8848v13.4775h-11.8848v34.1699h15.8115v13.6875h-31.1992zM239.173 78.1963l7.47168 -0.000976562l-4.35352 26.6152c2.49316 1.54395 3.8623 4.45801 3.8623 8.50879v9.49414c0 7.06934 -3.47754 11.291 -9.30176 11.291h-8.98535
v-55.9082h7.54492v25.3516h0.230469zM269.333 78.1953v6.65332h-8.06934v18.9678h5.86914v6.65527h-5.86914v16.8721h7.80762v6.75977h-15.4053v-55.9082h15.667zM287.708 78.1953h7.47363l-6.48242 55.9092h-8.98242l-6.48145 -55.9092h7.47168l0.636719 7.72461h5.72656z
M320 87.9678v34.8438c0 7.07031 -3.47754 11.292 -9.30176 11.292h-9.50977v-55.9082h10.0342c5.57812 0 8.77734 3.5625 8.77734 9.77246zM336.703 217.525v77.2793c0 11.1396 -7.35645 18.624 -18.3047 18.624c-11.8613 0 -18.9424 -8.15234 -18.9424 -21.8076v-72.8213
c0 -12.3447 7.39941 -20.6406 18.4111 -20.6406c11.2646 0 18.8359 7.78223 18.8359 19.3662zM318.414 373.953c0 -13.1055 7.85449 -21.9111 19.5449 -21.9111c11.959 0 19.9961 8.26172 19.9961 20.5596v82.04c0 11.8262 -7.80957 19.7705 -19.4336 19.7705
c-12.5918 0 -20.1074 -8.65527 -20.1074 -23.1514v-77.3076zM359.83 78.1953l7.54688 0.000976562v55.9082h-6.34375l-6.38379 -23.4072l-6.30469 23.4072h-6.42188v-55.9082h7.5459v28.4229l3.45605 -12.127h3.18164l3.72363 12.9971v-29.2939zM365.47 252.526
c1.12988 -3.72363 8.62598 -47.2314 9.67383 -53.332h13.833v113.233h-14.3262v-51.1162l0.287109 -3.19824l-9.89746 54.3135h-13.6279v-113.232h14.3252v50.2295zM375.63 78.1963l15.668 0.000976562v6.65332h-8.07031v18.9678h5.86914v6.65527h-5.86914v16.8721h7.80762
v6.75879h-15.4053v-55.9082zM385.062 409.76c1.19922 -3.95312 9.15527 -50.1406 10.2686 -56.6172h14.6855v120.207h-15.209v-54.2637l0.305664 -3.39453l-10.5078 57.6582h-14.4678v-120.207h15.208v53.3232zM401.382 123.676
c1.80176 1.63086 2.73633 3.69824 2.73633 6.07812c0 3.17578 -1.59863 5.1748 -4.06055 5.19922c-1.98926 0.0195312 -3.60645 -1.40039 -3.86523 -3.38672c-0.185547 -1.43164 0.339844 -2.69531 1.45605 -3.58008c1.12109 -0.886719 1.56055 -2.44336 0.811523 -3.66406
c-0.405273 -0.65918 -0.996094 -1.11523 -1.93164 -1.58594l0.68457 -1.31543c2.17773 0.751953 2.98633 1.25293 4.16895 2.25488zM410.919 123.677c1.80273 1.63086 2.7373 3.69824 2.7373 6.07812c0 3.17578 -1.59863 5.1748 -4.06055 5.19922
c-1.98926 0.0195312 -3.60645 -1.40039 -3.86523 -3.38672c-0.185547 -1.43164 0.338867 -2.69531 1.45605 -3.58008c1.12012 -0.886719 1.55957 -2.44336 0.811523 -3.66406c-0.404297 -0.65918 -0.995117 -1.11523 -1.93066 -1.58594l0.68457 -1.31543
c2.17676 0.751953 2.98633 1.25293 4.16699 2.25488zM434.226 199.199v13.583h-14.9609v99.6416h-15.2812v-113.225h30.2422zM449.955 127.298l0.000976562 6.81152h-15.2998v-55.9092h7.64941v28.2959h6.23535v6.70605h-6.23535v14.0957h7.64941zM463.048 78.2012v55.9082
h-7.54492v-55.9082h7.54492zM464.224 199.2l-0.000976562 53.8379l12.9717 59.4189h-15.2598l-5.31445 -38.6738l-5.39355 38.6738h-15.3623l13.0771 -59.8428v-53.4141h15.2822zM486.249 78.2002v6.70605h-7.3877v49.2021h-7.5459v-55.9082h14.9336zM488.48 206.692
c0 -4.42285 3.53906 -8.08789 8.08691 -8.08789c5.10742 0 9.20312 4.87988 7.81836 10.1768c-0.871094 3.33398 -3.89648 5.79297 -7.33691 5.98633c-4.78027 0.268555 -8.56836 -3.49902 -8.56836 -8.0752zM489.517 251.394l1.84277 -29.9121h10.4238l1.84082 29.9121
v61.0293h-14.1074v-61.0293zM506.712 78.2002v6.6543h-8.06934v18.9678h5.86914v6.65527h-5.86914v16.8721h7.80762v6.75879h-15.4053v-55.9082h15.667zM509.4 353.147v14.4199h-15.8828v105.779h-16.2227v-120.199h32.1055zM486.323 579.511
c0 -2.11621 -1.71484 -3.83301 -3.83105 -3.83398h-2.81543v37.1963h2.81543c2.11621 0 3.83105 -1.71484 3.83105 -3.83105v-29.5312zM241.162 425.562c0 -2.11621 -1.71484 -3.83398 -3.83105 -3.83398h-2.81543v37.1963h2.81543
c2.11621 0 3.83105 -1.71484 3.83105 -3.83105v-29.5312zM337.362 460.02c2.26172 0.43457 4.23535 -1.28613 4.23535 -3.46777l0.0253906 -86.7607c0 -1.9668 -1.59375 -3.56055 -3.56055 -3.56055c-1.95312 0 -3.53613 1.58203 -3.53613 3.53613v86.6533
c0 1.70996 1.15625 3.27734 2.83594 3.59961zM196.024 579.508c0 -2.11621 -1.71484 -3.83301 -3.83203 -3.83398h-2.81445v37.1963h2.81445c2.11719 0 3.83203 -1.71484 3.83203 -3.83105v-29.5312zM443.701 444.355l4.9873 -60.457h-9.97559z" />
    <glyph glyph-name="five" unicode="5" horiz-adv-x="628" 
d="M281.89 92.498l2.31934 28.1201l2.32031 -28.1201h-4.63965zM236.775 127.395c0.985352 0 1.7832 -0.797852 1.7832 -1.78223v-13.7363c0 -0.985352 -0.798828 -1.7832 -1.7832 -1.7832h-1.30957v17.3018h1.30957zM317.306 299.867
c2.12988 0.40918 3.99023 -1.21191 3.99023 -3.2666l0.0244141 -81.7266c0 -1.85254 -1.50195 -3.35449 -3.35449 -3.35449c-1.83887 0 -3.33008 1.49121 -3.33008 3.33105v81.626c0 1.61035 1.08887 3.08691 2.66992 3.39062zM310.621 127.396
c0.985352 0 1.7832 -0.797852 1.7832 -1.7832v-39.0879c0 -0.984375 -0.798828 -1.78223 -1.7832 -1.78223h-1.83301v42.6533h1.83301zM144.187 458.921c2.11719 0 3.83105 -1.7168 3.83105 -3.83398v-32.9131c0 -2.11621 -1.71484 -3.83105 -3.83105 -3.83105h-2.81543
v40.5781h2.81543zM426.63 520.171c-1.9541 0 -3.53711 1.58398 -3.53711 3.53809v86.6533c0 1.70996 1.15625 3.27734 2.83594 3.59961c2.26172 0.433594 4.23633 -1.28809 4.23633 -3.46973l0.0253906 -86.7607c0 -1.9668 -1.59375 -3.56055 -3.56055 -3.56055z
M521.494 698.927c27.6133 0 49.998 -22.3838 49.998 -49.9971v-598.932c0 -27.6133 -22.3848 -49.998 -49.998 -49.998h-415.497c-27.6133 0 -49.998 22.3857 -49.998 49.998v598.931c0 27.6133 22.3848 49.998 49.998 49.998h415.497zM482.662 627.287h-19.3184v-120.199
h16.2227v54.5039h0.495117l7.59082 -54.5039h16.0645l-9.36035 57.2197c5.36133 3.31934 8.30273 9.58398 8.30273 18.292v20.4121c0 15.2012 -7.47559 24.2754 -19.9971 24.2754zM467.297 353.141l-13.9365 120.199h-19.3125l-13.9355 -120.199h16.0654l1.37012 16.6064
h12.3115l1.37207 -16.6064h16.0654zM406.982 605.206v-77.3076c0 -13.1055 7.85547 -21.9111 19.5449 -21.9111c11.959 0 19.9961 8.26172 19.9961 20.5596v82.04c0 11.8262 -7.80957 19.7705 -19.4326 19.7705c-12.5918 0 -20.1084 -8.65527 -20.1084 -23.1514z
M360.272 627.286l-0.000976562 -120.199h16.4473v60.834h13.4053v14.417h-13.4053v30.3047h16.4473v14.6436h-32.8936zM277.503 627.286v-120.201h33.6836v14.3086h-17.3486v40.7793h12.6172v14.3076h-12.6172v36.2744h16.7852v14.5312h-33.1201zM287.968 474.426
c-12.5908 0 -20.1035 -8.65137 -20.1074 -23.1475l0.00976562 -8.65625c0.0136719 -11.5459 3.19336 -19.4248 12.166 -29.6865c7.01855 -8.03027 8.90039 -10.5586 10.0635 -13.5166c0.740234 -1.9043 1.04199 -3.63574 1.19141 -7.26074v-22.377
c0 -1.95312 -1.58398 -3.53809 -3.53711 -3.53809h-0.000976562c-1.94336 -0.00292969 -3.53223 1.56348 -3.55469 3.50781l-0.00292969 19.3564h-16.335v-16.4902c0 -12.2979 8.03516 -20.5596 19.9951 -20.5596c11.6914 0 19.5459 8.80566 19.5459 21.9111v15.6338
c-0.000976562 6.90234 -0.791992 11.9697 -2.54297 16.373c-1.50488 4.29102 -3.02734 6.73926 -7.43848 11.9434c-0.707031 0.777344 -2.70801 2.88867 -2.70801 2.88867c-2.48047 2.71777 -4.72852 5.87891 -6.59473 8.74609
c-2.53027 3.66016 -4.05762 9.06738 -4.14453 14.5479v12.3311c-0.000976562 1.70898 1.1543 3.27734 2.83496 3.59863c2.26172 0.43457 4.23633 -1.28711 4.23633 -3.46973l0.0205078 -16.4346h16.3369v14.5273c0 11.8252 -7.80957 19.7715 -19.4336 19.7715z
M262.22 627.288l-33.1211 -0.000976562v-120.2h33.6836v14.3086h-17.3486v40.7793h12.6172v14.3076h-12.6172v36.2744h16.7861v14.5312zM237.504 473.341h-19.3203v-120.199h16.2227v54.5039h0.495117l7.5918 -54.5039h16.0645l-9.35938 57.2197
c5.36133 3.31934 8.30273 9.58398 8.30273 18.292v20.4121c0 15.2012 -7.47559 24.2754 -19.9971 24.2754zM173.049 627.288l0.000976562 -120.199h16.2217v54.5039h0.495117l7.5918 -54.5039h16.0645l-9.35938 57.2197c5.36133 3.31934 8.30273 9.58398 8.30273 18.292
v20.4121c0 15.2012 -7.47656 24.2754 -19.9971 24.2754h-19.3203zM203.365 408.229v14.3057h-12.6162v36.2744h16.7852v14.5312h-33.1211v-120.199h33.6836v14.3086h-17.3486v40.7793h12.6172zM158.838 627.286h-32.8955v-120.199h16.4473v60.834h13.4053v14.417h-13.4053
v30.3047h16.4482v14.6436zM139.718 87.8818l-0.00488281 7.27246c0 3.20996 -0.369141 5.56738 -1.18262 7.61523c-0.700195 1.99609 -1.4082 3.13574 -3.46094 5.55566c-0.328125 0.361328 -1.25977 1.34375 -1.25977 1.34375
c-1.15332 1.26367 -2.19922 2.73438 -3.06641 4.06836c-1.17676 1.70215 -1.8877 4.2168 -1.92773 6.76562v5.73633c-0.000976562 0.795898 0.536133 1.52441 1.31836 1.67383c1.05273 0.202148 1.97168 -0.598633 1.97168 -1.61328l0.00976562 -7.64453h7.59863v6.75684
c0 5.5 -3.63281 9.19629 -9.03906 9.19629c-5.85645 0 -9.35254 -4.02539 -9.35254 -10.7676l0.00488281 -4.02637c0.00585938 -5.37012 1.48535 -9.03516 5.65918 -13.8086c3.26367 -3.73438 4.13965 -4.91016 4.68066 -6.28613
c0.344727 -0.885742 0.484375 -1.69141 0.554688 -3.37793v-10.4072c0 -0.908203 -0.735352 -1.64551 -1.64355 -1.64551h-0.000976562c-0.902344 -0.000976562 -1.6416 0.726562 -1.65234 1.63086l-0.000976562 9.00195h-7.59766v-7.66992
c0 -5.71973 3.7373 -9.5625 9.30078 -9.5625c5.4375 0 9.09082 4.09668 9.09082 10.1924zM122.404 218.799c0 -12.3447 7.39844 -20.6387 18.4102 -20.6377c11.2646 0 18.8359 7.78223 18.8359 19.3662v94.8936h-15.4043l0.0185547 -97.0176
c0 -0.102539 -0.0166016 -0.195312 -0.0224609 -0.295898v-0.253906c0 -1.06738 -0.509766 -2.00586 -1.28809 -2.61523c-0.0449219 -0.0371094 -0.0888672 -0.0742188 -0.133789 -0.111328c-0.0517578 -0.0371094 -0.106445 -0.0664062 -0.15918 -0.100586
c-0.322266 -0.212891 -0.677734 -0.363281 -1.06836 -0.4375c-0.0683594 -0.0126953 -0.139648 -0.0117188 -0.208984 -0.0214844c-0.119141 -0.0136719 -0.233398 -0.0400391 -0.357422 -0.0400391l-0.0136719 0.00195312
c-0.0361328 -0.000976562 -0.0703125 -0.00976562 -0.103516 -0.00976562c-1.84082 0 -3.33105 1.49121 -3.33105 3.33105v97.5684h-15.1738v-93.6201zM147.038 78.1973h15.668v6.65332h-8.06934v18.9678h5.86914v6.65527h-5.86914v16.8721h7.80762v6.75977h-15.4062
v-55.9082zM164.353 425.275l0.000976562 23.792c0 15.2002 -7.47656 24.2744 -19.9961 24.2744h-19.3203v-120.199h16.2227v51.123h4.22363c11.9932 0 18.8691 7.6582 18.8691 21.0098zM168.844 78.1973h15.668v6.65332h-8.07031v18.9678h5.86914v6.65527h-5.86914v16.8721
h7.80762v6.75977h-15.4053v-55.9082zM173.261 217.541c0 -11.584 7.56738 -19.3691 18.834 -19.3701c11.0127 0 18.4111 8.2959 18.4111 20.6406v14.7266c-0.000976562 6.50195 -0.746094 11.2754 -2.39551 15.4229c-1.41797 4.04297 -2.85254 6.34863 -7.00781 11.251
c-0.666016 0.732422 -2.55078 2.72266 -2.55078 2.72266c-2.33594 2.55957 -4.4541 5.53809 -6.21094 8.23926c-2.38379 3.44727 -3.82227 8.54102 -3.9043 13.7031v11.6152c-0.000976562 1.61133 1.08691 3.08789 2.6709 3.3916
c2.12988 0.408203 3.99023 -1.21289 3.99023 -3.26758l0.0195312 -15.4814h15.3896v13.6846c0 11.1387 -7.35645 18.625 -18.3047 18.625c-11.8613 0 -18.9424 -8.15234 -18.9424 -21.8076l0.00878906 -8.1543c0.0126953 -10.877 3.00879 -18.2979 11.46 -27.9648
c6.61133 -7.56445 8.38379 -9.94531 9.48047 -12.7314c0.697266 -1.79297 0.979492 -3.4248 1.12207 -6.83984v-21.0781c0 -1.83984 -1.49121 -3.33203 -3.33105 -3.33203h-0.000976562c-1.83008 -0.00195312 -3.32715 1.47363 -3.34766 3.30469
c-0.00292969 0.1875 -0.00292969 11.2314 -0.00390625 18.2334h-15.3867v-15.5332zM208.569 123.672c1.80176 1.63086 2.73535 3.69824 2.73535 6.07812c0 3.17578 -1.59766 5.1748 -4.05957 5.19922c-1.98828 0.0195312 -3.60547 -1.40039 -3.86523 -3.38672
c-0.186523 -1.43164 0.339844 -2.69531 1.45605 -3.58008c1.12012 -0.886719 1.55957 -2.44336 0.810547 -3.66406c-0.405273 -0.65918 -0.995117 -1.11523 -1.93164 -1.58594l0.68457 -1.31543c2.17773 0.751953 2.98633 1.25293 4.16992 2.25488zM218.106 123.673
c1.80176 1.63086 2.7373 3.69824 2.73828 6.07812c0 3.17578 -1.59863 5.1748 -4.06152 5.19922c-1.98828 0.0195312 -3.60547 -1.40039 -3.86426 -3.38672c-0.186523 -1.43164 0.338867 -2.69531 1.45508 -3.58008c1.12109 -0.886719 1.55957 -2.44336 0.811523 -3.66406
c-0.405273 -0.65918 -0.995117 -1.11523 -1.93066 -1.58594l0.68457 -1.31543c2.17773 0.751953 2.98633 1.25293 4.16699 2.25488zM224.404 312.42v-113.227h31.7295v13.4785h-16.3418v38.4131h11.8848v13.4775h-11.8848v34.1699h15.8115v13.6875h-31.1992z
M239.172 78.1963l7.47168 -0.000976562l-4.35352 26.6152c2.49316 1.54395 3.8623 4.45801 3.8623 8.50879v9.49414c0 7.06934 -3.47754 11.291 -9.30176 11.291h-8.98535v-55.9082h7.54492v25.3516h0.230469zM269.332 78.1953v6.65332h-8.06934v18.9678h5.86914v6.65527
h-5.86914v16.8721h7.80762v6.75977h-15.4053v-55.9082h15.667zM287.708 78.1953h7.47363l-6.48242 55.9092h-8.98242l-6.48145 -55.9092h7.47168l0.636719 7.72461h5.72656zM320 87.9678v34.8438c0 7.07031 -3.47754 11.292 -9.30176 11.292h-9.50977v-55.9082h10.0342
c5.57812 0 8.77734 3.5625 8.77734 9.77246zM336.703 217.525v77.2793c0 11.1396 -7.35645 18.624 -18.3047 18.624c-11.8613 0 -18.9424 -8.15234 -18.9424 -21.8076v-72.8213c0 -12.3447 7.39941 -20.6406 18.4111 -20.6406c11.2646 0 18.8359 7.78223 18.8359 19.3662z
M318.413 373.953c0 -13.1055 7.85449 -21.9111 19.5449 -21.9111c11.959 0 19.9961 8.26172 19.9961 20.5596v82.04c0 11.8262 -7.80957 19.7705 -19.4336 19.7705c-12.5918 0 -20.1074 -8.65527 -20.1074 -23.1514v-77.3076zM359.829 78.1953l7.54688 0.000976562v55.9082
h-6.34375l-6.38379 -23.4072l-6.30469 23.4072h-6.42188v-55.9082h7.5459v28.4229l3.45605 -12.127h3.18164l3.72363 12.9971v-29.2939zM365.469 252.526c1.12988 -3.72363 8.625 -47.2314 9.67383 -53.332h13.833v113.233h-14.3262v-51.1162l0.287109 -3.19824
l-9.89746 54.3135h-13.6279v-113.232h14.3252v50.2295zM375.629 78.1963l15.668 0.000976562v6.65332h-8.07031v18.9678h5.86914v6.65527h-5.86914v16.8721h7.80762v6.75879h-15.4053v-55.9082zM385.061 409.76c1.2002 -3.95312 9.15625 -50.1406 10.2695 -56.6172h14.6855
v120.207h-15.209v-54.2637l0.305664 -3.39453l-10.5078 57.6582h-14.4678v-120.207h15.207v53.3232zM401.38 123.676c1.80273 1.63086 2.73633 3.69824 2.73633 6.07812c0 3.17578 -1.59863 5.1748 -4.06055 5.19922
c-1.98926 0.0195312 -3.60645 -1.40039 -3.86523 -3.38672c-0.185547 -1.43164 0.339844 -2.69531 1.45605 -3.58008c1.12109 -0.886719 1.56055 -2.44336 0.811523 -3.66406c-0.405273 -0.65918 -0.996094 -1.11523 -1.93164 -1.58594l0.68457 -1.31543
c2.17773 0.751953 2.98633 1.25293 4.16895 2.25488zM410.917 123.677c1.80273 1.63086 2.7373 3.69824 2.7373 6.07812c0 3.17578 -1.59863 5.1748 -4.06055 5.19922c-1.98926 0.0195312 -3.60645 -1.40039 -3.86523 -3.38672
c-0.185547 -1.43164 0.338867 -2.69531 1.45605 -3.58008c1.12012 -0.886719 1.55957 -2.44336 0.811523 -3.66406c-0.404297 -0.65918 -0.995117 -1.11523 -1.93066 -1.58594l0.68457 -1.31543c2.17676 0.751953 2.98633 1.25293 4.16699 2.25488zM434.225 199.199v13.583
h-14.9609v99.6416h-15.2812v-113.225h30.2422zM449.954 127.298l0.000976562 6.81152h-15.2998v-55.9092h7.64941v28.2959h6.23535v6.70605h-6.23535v14.0957h7.64941zM463.046 78.2012v55.9082h-7.54492v-55.9082h7.54492zM464.223 199.2l-0.000976562 53.8379
l12.9717 59.4189h-15.2598l-5.31445 -38.6738l-5.39355 38.6738h-15.3623l13.0771 -59.8428v-53.4141h15.2822zM486.248 78.2002v6.70605h-7.3877v49.2021h-7.5459v-55.9082h14.9336zM488.479 206.692c0 -4.42285 3.53809 -8.08789 8.08691 -8.08789
c5.10742 0 9.20312 4.87988 7.81836 10.1768c-0.871094 3.33398 -3.89648 5.79297 -7.33691 5.98633c-4.78027 0.268555 -8.56836 -3.49902 -8.56836 -8.0752zM489.516 251.394l1.84277 -29.9121h10.4238l1.84082 29.9121v61.0293h-14.1074v-61.0293zM506.71 78.2002v6.6543
h-8.06934v18.9678h5.86914v6.65527h-5.86914v16.8721h7.80762v6.75879h-15.4053v-55.9082h15.667zM509.398 353.147v14.4199h-15.8828v105.779h-16.2227v-120.199h32.1055zM486.322 579.511c0 -2.11621 -1.71484 -3.83301 -3.83105 -3.83398h-2.81543v37.1963h2.81543
c2.11621 0 3.83105 -1.71484 3.83105 -3.83105v-29.5312zM241.161 425.562c0 -2.11621 -1.71582 -3.83398 -3.83105 -3.83398h-2.81543v37.1963h2.81543c2.11621 0 3.83105 -1.71484 3.83105 -3.83105v-29.5312zM337.361 460.02
c2.26074 0.43457 4.23535 -1.28613 4.23633 -3.46777l0.0253906 -86.7607c0 -1.9668 -1.59375 -3.56055 -3.56055 -3.56055c-1.95312 0 -3.53711 1.58203 -3.53711 3.53613v86.6533c0 1.70996 1.15625 3.27734 2.83594 3.59961zM196.023 579.508
c0 -2.11621 -1.71387 -3.83301 -3.83203 -3.83398h-2.81445v37.1963h2.81445c2.11719 0 3.83203 -1.71484 3.83203 -3.83105v-29.5312zM443.7 444.355l4.9873 -60.457h-9.97461z" />
    <glyph glyph-name="six" unicode="6" horiz-adv-x="482" 
d="M242.522 429.68c106.656 0 193.115 -98.1904 193.115 -219.315s-86.4619 -219.316 -193.117 -219.316c-106.656 0 -193.117 98.1914 -193.117 219.316v0.00488281c-0.000976562 0.0947266 -0.405273 25.0928 -0.405273 37.2266c0 268.574 110.824 443.297 315.5 462.267
l34.5635 -113.319l-3.80078 -4.25293c-13.21 10.2441 -28.3955 13.0137 -44.208 11.5439c-89.9668 -18.0059 -164.8 -100.354 -190.16 -194.671c24.7969 13.1553 52.4541 20.5166 81.6299 20.5166zM331.198 158.242c12.2354 32.3965 12.2334 71.8477 -0.00195312 104.244
c-35.0205 92.5947 -138.612 98.8262 -177.353 0c-17.6768 -46.9404 -9.87988 -106.47 23.6123 -144.252c50.2627 -57.2031 126.503 -33.418 153.742 40.0078z" />
    <glyph glyph-name="seven" unicode="7" horiz-adv-x="628" 
d="M281.889 92.498l2.31934 28.1201l2.32031 -28.1201h-4.63965zM236.775 127.395c0.984375 0 1.78223 -0.797852 1.7832 -1.78223v-13.7363c0 -0.985352 -0.798828 -1.7832 -1.7832 -1.7832h-1.30957v17.3018h1.30957zM317.305 299.867
c2.12988 0.40918 3.99121 -1.21191 3.99023 -3.2666l0.0244141 -81.7266c0 -1.85254 -1.50195 -3.35449 -3.35449 -3.35449c-1.83887 0 -3.33008 1.49121 -3.33008 3.33105v81.626c0 1.61035 1.08887 3.08691 2.66992 3.39062zM310.621 127.396
c0.984375 0 1.78223 -0.797852 1.7832 -1.7832v-39.0879c0 -0.984375 -0.798828 -1.78223 -1.7832 -1.78223h-1.83301v42.6533h1.83301zM144.185 458.921c2.11719 0 3.83203 -1.7168 3.83105 -3.83398v-32.9131c0 -2.11621 -1.71484 -3.83105 -3.83105 -3.83105h-2.81543
v40.5781h2.81543zM426.628 520.171c-1.95312 0 -3.53711 1.58398 -3.53711 3.53809v86.6533c0 1.70996 1.15625 3.27734 2.83594 3.59961c2.26172 0.433594 4.23633 -1.28809 4.23633 -3.46973l0.0253906 -86.7607c0 -1.9668 -1.59375 -3.56055 -3.56055 -3.56055z
M521.493 698.927c27.6123 0 49.9971 -22.3838 49.998 -49.9971v-598.932c0 -27.6133 -22.3848 -49.998 -49.998 -49.998h-415.497c-27.6133 0 -49.998 22.3857 -49.998 49.998v598.931c0 27.6133 22.3857 49.998 49.998 49.998h415.497zM482.66 627.287h-19.3184v-120.199
h16.2227v54.5039h0.495117l7.59082 -54.5039h16.0645l-9.36035 57.2197c5.36133 3.31934 8.30273 9.58398 8.30273 18.292v20.4121c0 15.2012 -7.47559 24.2754 -19.9971 24.2754zM467.295 353.141l-13.9365 120.199h-19.3125l-13.9355 -120.199h16.0654l1.37012 16.6064
h12.3115l1.37207 -16.6064h16.0654zM406.98 605.206v-77.3076c0 -13.1055 7.85547 -21.9111 19.5449 -21.9111c11.959 0 19.9961 8.26172 19.9961 20.5596v82.04c0 11.8262 -7.80957 19.7705 -19.4326 19.7705c-12.5918 0 -20.1084 -8.65527 -20.1084 -23.1514z
M360.271 627.286l-0.000976562 -120.199h16.4473v60.834h13.4053v14.417h-13.4053v30.3047h16.4473v14.6436h-32.8936zM277.501 627.286v-120.201h33.6836v14.3086h-17.3486v40.7793h12.6172v14.3076h-12.6172v36.2744h16.7852v14.5312h-33.1201zM287.967 474.426
c-12.5918 0 -20.1045 -8.65137 -20.1084 -23.1475l0.00976562 -8.65625c0.0136719 -11.5459 3.19336 -19.4248 12.166 -29.6865c7.01855 -8.03027 8.90039 -10.5586 10.0635 -13.5166c0.740234 -1.9043 1.04199 -3.63574 1.19141 -7.26074v-22.377
c0 -1.95312 -1.58398 -3.53809 -3.53711 -3.53809h-0.000976562c-1.94336 -0.00292969 -3.53223 1.56348 -3.55371 3.50781l-0.00292969 19.3564h-16.335v-16.4902c0 -12.2979 8.03516 -20.5596 19.9951 -20.5596c11.6914 0 19.5459 8.80566 19.5459 21.9111v15.6338
c-0.000976562 6.90234 -0.791992 11.9697 -2.54297 16.373c-1.50488 4.29102 -3.02734 6.73926 -7.43848 11.9434c-0.707031 0.777344 -2.70801 2.88867 -2.70801 2.88867c-2.48047 2.71777 -4.72852 5.87891 -6.59473 8.74609
c-2.53027 3.66016 -4.05762 9.06738 -4.14453 14.5479v12.3311c-0.000976562 1.70898 1.1543 3.27734 2.83496 3.59863c2.26172 0.43457 4.23633 -1.28711 4.23633 -3.46973l0.0205078 -16.4346h16.3369v14.5273c0 11.8252 -7.80957 19.7715 -19.4336 19.7715z
M229.096 627.288v-120.201h33.6836v14.3086h-17.3486v40.7793h12.6172v14.3076h-12.6172v36.2744h16.7852v14.5312h-33.1201zM237.501 473.342h-19.3203v-120.199h16.2227v54.5039h0.495117l7.5918 -54.5039h16.0645l-9.35938 57.2197
c5.36133 3.31934 8.30273 9.58398 8.30273 18.292v20.4121c0 15.2012 -7.47559 24.2754 -19.9971 24.2754zM192.365 627.289h-19.3203v-120.199h16.2227v54.5039h0.495117l7.5918 -54.5039h16.0645l-9.35938 57.2197c5.36133 3.31934 8.30273 9.58398 8.30273 18.292
v20.4121c0 15.2012 -7.47559 24.2754 -19.9971 24.2754zM203.362 408.229v14.3057h-12.6172v36.2744h16.7852v14.5312h-33.1201v-120.199h33.6836v14.3086h-17.3486v40.7793h12.6172zM125.942 627.287l-0.000976562 -120.199h16.4473v60.834h13.4053v14.417h-13.4053
v30.3047h16.4473v14.6436h-32.8936zM139.715 87.8828l-0.00683594 7.27246c0 3.20996 -0.368164 5.56738 -1.18262 7.61523c-0.700195 1.99609 -1.4082 3.13574 -3.45996 5.55566c-0.328125 0.361328 -1.25977 1.34375 -1.25977 1.34375
c-1.15332 1.26367 -2.19922 2.73438 -3.06641 4.06836c-1.17676 1.70215 -1.8877 4.2168 -1.92773 6.76562v5.73633c-0.000976562 0.795898 0.536133 1.52441 1.31836 1.67383c1.05273 0.202148 1.97168 -0.598633 1.97168 -1.61328l0.00878906 -7.64453h7.59863v6.75684
c0 5.5 -3.63184 9.19629 -9.03809 9.19629c-5.85645 0 -9.35254 -4.02539 -9.35254 -10.7676l0.00488281 -4.02637c0.00585938 -5.37012 1.48535 -9.03516 5.65918 -13.8086c3.26465 -3.73438 4.13965 -4.91016 4.68066 -6.28613
c0.344727 -0.885742 0.484375 -1.69141 0.554688 -3.37793v-10.4072c0 -0.908203 -0.735352 -1.64551 -1.64355 -1.64551h-0.000976562c-0.90332 -0.000976562 -1.64258 0.726562 -1.65234 1.63086l-0.000976562 9.00195h-7.59766v-7.66992
c0 -5.71973 3.7373 -9.5625 9.30078 -9.5625c5.43848 0 9.0918 4.09668 9.0918 10.1924zM122.401 218.8c0 -12.3447 7.39746 -20.6387 18.4111 -20.6377c11.2656 0 18.8369 7.78223 18.8369 19.3662v94.8936h-15.4043l0.0175781 -97.0176
c0 -0.102539 -0.0166016 -0.195312 -0.0224609 -0.295898v-0.253906c0 -1.06738 -0.510742 -2.00586 -1.28906 -2.61523c-0.0449219 -0.0371094 -0.0888672 -0.0742188 -0.133789 -0.111328c-0.0507812 -0.0371094 -0.106445 -0.0664062 -0.15918 -0.100586
c-0.322266 -0.212891 -0.677734 -0.363281 -1.06836 -0.4375c-0.0693359 -0.0126953 -0.139648 -0.0117188 -0.208984 -0.0214844c-0.119141 -0.0136719 -0.233398 -0.0400391 -0.357422 -0.0400391l-0.0136719 0.00195312
c-0.0351562 -0.000976562 -0.0693359 -0.00976562 -0.103516 -0.00976562c-1.83984 0 -3.33105 1.49121 -3.33105 3.33105v97.5684h-15.1738v-93.6201zM162.702 78.1973v6.65332h-8.06934v18.9678h5.86914v6.65527h-5.86914v16.8721h7.80762v6.75977h-15.4053v-55.9082
h15.667zM164.349 425.275v23.792c0 15.2002 -7.47656 24.2744 -19.9961 24.2744h-19.3203v-120.199h16.2227v51.123h4.22461c11.9932 0 18.8691 7.6582 18.8691 21.0098zM168.84 78.1963l15.668 0.000976562v6.65332h-8.07031v18.9678h5.86914v6.65527h-5.86914v16.8721
h7.80762v6.75879h-15.4053v-55.9082zM173.257 217.541c0 -11.584 7.56934 -19.3691 18.833 -19.3701c11.0137 0 18.4121 8.2959 18.4121 20.6406v14.7266c-0.000976562 6.50195 -0.74707 11.2754 -2.39648 15.4229c-1.41797 4.04297 -2.85156 6.34863 -7.00684 11.251
c-0.666016 0.732422 -2.55078 2.72266 -2.55078 2.72266c-2.33594 2.55957 -4.4541 5.53809 -6.21094 8.23926c-2.38379 3.44727 -3.82227 8.54102 -3.9043 13.7031v11.6152c-0.000976562 1.61133 1.08691 3.08789 2.66895 3.3916
c2.13086 0.408203 3.99121 -1.21289 3.99121 -3.26758l0.0195312 -15.4814h15.3896v13.6846c0 11.1387 -7.35645 18.625 -18.3047 18.625c-11.8613 0 -18.9424 -8.15234 -18.9424 -21.8076l0.00878906 -8.1543c0.0126953 -10.877 3.00879 -18.2979 11.46 -27.9648
c6.61133 -7.56445 8.38379 -9.94531 9.48047 -12.7314c0.698242 -1.79297 0.980469 -3.4248 1.12207 -6.83984v-21.0781c0 -1.83984 -1.49023 -3.33203 -3.33008 -3.33203h-0.000976562c-1.83008 -0.00195312 -3.32715 1.47363 -3.34766 3.30469
c-0.00195312 0.1875 -0.00195312 11.2314 -0.00292969 18.2334h-15.3877v-15.5332zM208.567 123.672c1.80176 1.63086 2.73535 3.69824 2.73633 6.07812c0 3.17578 -1.59863 5.1748 -4.06055 5.19922c-1.98926 0.0195312 -3.60645 -1.40039 -3.86523 -3.38672
c-0.185547 -1.43164 0.339844 -2.69531 1.45605 -3.58008c1.12109 -0.886719 1.56055 -2.44336 0.811523 -3.66406c-0.405273 -0.65918 -0.996094 -1.11523 -1.93164 -1.58594l0.68457 -1.31543c2.17676 0.751953 2.98633 1.25293 4.16895 2.25488zM218.104 123.673
c1.80273 1.63086 2.7373 3.69824 2.7373 6.07812c0 3.17578 -1.59863 5.1748 -4.06055 5.19922c-1.98926 0.0195312 -3.60645 -1.40039 -3.86523 -3.38672c-0.185547 -1.43164 0.339844 -2.69531 1.45605 -3.58008c1.12012 -0.886719 1.55957 -2.44336 0.811523 -3.66406
c-0.404297 -0.65918 -0.995117 -1.11523 -1.93066 -1.58594l0.68457 -1.31543c2.17676 0.751953 2.98633 1.25293 4.16699 2.25488zM224.402 312.42v-113.227h31.7295v13.4785h-16.3418v38.4131h11.8848v13.4775h-11.8848v34.1699h15.8115v13.6875h-31.1992z
M239.171 78.1963l7.47168 -0.000976562l-4.35352 26.6152c2.49316 1.54395 3.8623 4.45801 3.8623 8.50879v9.49414c0 7.06934 -3.47754 11.291 -9.30176 11.291h-8.98535v-55.9082h7.54492v25.3516h0.230469zM269.331 78.1953v6.65332h-8.06934v18.9678h5.86914v6.65527
h-5.86914v16.8721h7.80762v6.75977h-15.4053v-55.9082h15.667zM287.706 78.1953h7.47363l-6.48242 55.9092h-8.98242l-6.48145 -55.9092h7.47168l0.636719 7.72461h5.72656zM319.998 87.9678v34.8438c0 7.07031 -3.47754 11.292 -9.30176 11.292h-9.50977v-55.9082h10.0342
c5.57812 0 8.77734 3.5625 8.77734 9.77246zM336.701 217.525v77.2793c0 11.1396 -7.35645 18.624 -18.3047 18.624c-11.8613 0 -18.9424 -8.15234 -18.9424 -21.8076v-72.8213c0 -12.3447 7.39941 -20.6406 18.4111 -20.6406c11.2646 0 18.8359 7.78223 18.8359 19.3662z
M318.412 373.953c0 -13.1055 7.85352 -21.9111 19.5449 -21.9111c11.959 0 19.9961 8.26172 19.9961 20.5596v82.04c0 11.8262 -7.80957 19.7705 -19.4336 19.7705c-12.5918 0 -20.1074 -8.65527 -20.1074 -23.1514v-77.3076zM359.827 78.1953l7.54688 0.000976562v55.9082
h-6.34375l-6.38379 -23.4072l-6.30469 23.4072h-6.42188v-55.9082h7.5459v28.4229l3.45605 -12.127h3.18164l3.72363 12.9971v-29.2939zM365.468 252.526c1.12891 -3.72363 8.62402 -47.2314 9.67383 -53.332h13.833v113.233h-14.3262v-51.1162l0.287109 -3.19824
l-9.89746 54.3135h-13.6279v-113.232h14.3252v50.2295zM375.627 78.1963l15.668 0.000976562v6.65332h-8.07031v18.9678h5.86914v6.65527h-5.86914v16.8721h7.80762v6.75879h-15.4053v-55.9082zM385.06 409.76c1.19922 -3.95312 9.15527 -50.1406 10.2695 -56.6172h14.6855
v120.207h-15.209v-54.2637l0.305664 -3.39453l-10.5078 57.6582h-14.4678v-120.207h15.207v53.3232zM401.378 123.676c1.80273 1.63086 2.7373 3.69824 2.73633 6.07812c0 3.17578 -1.59863 5.1748 -4.06055 5.19922
c-1.98926 0.0195312 -3.60645 -1.40039 -3.86523 -3.38672c-0.185547 -1.43164 0.339844 -2.69531 1.45605 -3.58008c1.12109 -0.886719 1.56055 -2.44336 0.811523 -3.66406c-0.405273 -0.65918 -0.996094 -1.11523 -1.93164 -1.58594l0.68457 -1.31543
c2.17773 0.751953 2.98633 1.25293 4.16895 2.25488zM410.916 123.677c1.80176 1.63086 2.73633 3.69824 2.7373 6.07812c0 3.17578 -1.59863 5.1748 -4.06055 5.19922c-1.98926 0.0195312 -3.60645 -1.40039 -3.86523 -3.38672
c-0.185547 -1.43164 0.338867 -2.69531 1.45605 -3.58008c1.12012 -0.886719 1.55957 -2.44336 0.811523 -3.66406c-0.404297 -0.65918 -0.995117 -1.11523 -1.93066 -1.58594l0.68457 -1.31543c2.17676 0.751953 2.98633 1.25293 4.16699 2.25488zM434.223 199.199v13.583
h-14.9609v99.6416h-15.2812v-113.225h30.2422zM449.952 127.298l0.000976562 6.81152h-15.2998v-55.9092h7.64941v28.2959h6.23535v6.70605h-6.23535v14.0957h7.64941zM463.045 78.2012v55.9082h-7.54492v-55.9082h7.54492zM464.221 199.2l-0.000976562 53.8379
l12.9717 59.4189h-15.2598l-5.31445 -38.6738l-5.39355 38.6738h-15.3623l13.0771 -59.8428v-53.4141h15.2822zM486.246 78.2002v6.70605h-7.3877v49.2021h-7.5459v-55.9082h14.9336zM488.478 206.692c0 -4.42285 3.53906 -8.08789 8.08691 -8.08789
c5.10742 0 9.20312 4.87988 7.81836 10.1768c-0.871094 3.33398 -3.89648 5.79297 -7.33691 5.98633c-4.78027 0.268555 -8.56836 -3.49902 -8.56836 -8.0752zM489.514 251.394l1.84277 -29.9121h10.4238l1.84082 29.9121v61.0293h-14.1074v-61.0293zM506.709 78.2002
v6.6543h-8.06934v18.9678h5.86914v6.65527h-5.86914v16.8721h7.80762v6.75879h-15.4053v-55.9082h15.667zM509.396 353.147v14.4199h-15.8828v105.779h-16.2227v-120.199h32.1055zM486.32 579.511c0 -2.11621 -1.71484 -3.83301 -3.83105 -3.83398h-2.81543v37.1963h2.81543
c2.11621 0 3.83105 -1.71484 3.83105 -3.83105v-29.5312zM241.159 425.562c0 -2.11621 -1.71484 -3.83398 -3.83105 -3.83398h-2.81543v37.1963h2.81543c2.11621 0 3.83105 -1.71484 3.83105 -3.83105v-29.5312zM337.359 460.02
c2.26172 0.43457 4.23633 -1.28613 4.23633 -3.46777l0.0253906 -86.7607c0 -1.9668 -1.59375 -3.56055 -3.56055 -3.56055c-1.95312 0 -3.53711 1.58203 -3.53711 3.53613v86.6533c0 1.70996 1.15625 3.27734 2.83594 3.59961zM196.022 579.508
c0 -2.11621 -1.71484 -3.83301 -3.83203 -3.83398h-2.81445v37.1963h2.81445c2.11719 0 3.83203 -1.71484 3.83203 -3.83105v-29.5312zM443.699 444.355l4.9873 -60.457h-9.97559z" />
    <glyph glyph-name="eight" unicode="8" horiz-adv-x="628" 
d="M281.89 92.498l2.31934 28.1201l2.32031 -28.1201h-4.63965zM236.776 127.395c0.985352 0 1.7832 -0.797852 1.7832 -1.78223v-13.7363c0 -0.985352 -0.798828 -1.7832 -1.7832 -1.7832h-1.30957v17.3018h1.30957zM317.306 299.867
c2.13086 0.40918 3.99121 -1.21191 3.99023 -3.2666l0.0244141 -81.7266c0 -1.85254 -1.50195 -3.35449 -3.35449 -3.35449c-1.83887 0 -3.33008 1.49121 -3.33008 3.33105v81.626c0 1.61035 1.08887 3.08691 2.66992 3.39062zM310.622 127.396
c0.984375 0 1.7832 -0.797852 1.7832 -1.7832v-39.0879c0 -0.984375 -0.798828 -1.78223 -1.7832 -1.78223h-1.83301v42.6533h1.83301zM144.188 458.921c2.11621 0 3.83105 -1.7168 3.83105 -3.83398v-32.9131c0 -2.11621 -1.71484 -3.83105 -3.83105 -3.83105h-2.81543
v40.5781h2.81543zM426.63 520.171c-1.95312 0 -3.53711 1.58398 -3.53711 3.53809v86.6533c0 1.70996 1.15625 3.27734 2.83594 3.59961c2.26172 0.433594 4.23633 -1.28809 4.23633 -3.46973l0.0253906 -86.7607c0 -1.9668 -1.59375 -3.56055 -3.56055 -3.56055z
M521.495 698.927c27.6123 0 49.998 -22.3838 49.998 -49.9971v-598.932c0 -27.6133 -22.3857 -49.998 -49.998 -49.998h-415.497c-27.6133 0 -49.998 22.3857 -49.998 49.998v598.931c0 27.6133 22.3848 49.998 49.998 49.998h415.497zM482.662 627.287h-19.3184v-120.199
h16.2227v54.5039h0.495117l7.59082 -54.5039h16.0645l-9.36035 57.2197c5.36133 3.31934 8.30273 9.58398 8.30273 18.292v20.4121c0 15.2012 -7.47559 24.2754 -19.9971 24.2754zM467.297 353.141l-13.9365 120.199h-19.3125l-13.9355 -120.199h16.0654l1.37012 16.6064
h12.3115l1.37207 -16.6064h16.0654zM406.982 605.206v-77.3076c0 -13.1055 7.85547 -21.9111 19.5449 -21.9111c11.959 0 19.9961 8.26172 19.9961 20.5596v82.04c0 11.8262 -7.80957 19.7705 -19.4326 19.7705c-12.5918 0 -20.1084 -8.65527 -20.1084 -23.1514z
M360.273 627.286l-0.000976562 -120.199h16.4473v60.834h13.4053v14.417h-13.4053v30.3047h16.4473v14.6436h-32.8936zM277.504 627.286v-120.201h33.6836v14.3086h-17.3486v40.7793h12.6172v14.3076h-12.6172v36.2744h16.7852v14.5312h-33.1201zM287.969 474.426
c-12.5908 0 -20.1045 -8.65137 -20.1084 -23.1475l0.00976562 -8.65625c0.0136719 -11.5459 3.19336 -19.4248 12.166 -29.6865c7.01855 -8.03027 8.90039 -10.5586 10.0635 -13.5166c0.740234 -1.9043 1.04199 -3.63574 1.19141 -7.26074v-22.377
c0 -1.95312 -1.58398 -3.53809 -3.53711 -3.53809h-0.000976562c-1.94336 -0.00292969 -3.53223 1.56348 -3.55371 3.50781l-0.00292969 19.3564h-16.335v-16.4902c0 -12.2979 8.03516 -20.5596 19.9951 -20.5596c11.6914 0 19.5459 8.80566 19.5459 21.9111v15.6338
c-0.000976562 6.90234 -0.791992 11.9697 -2.54297 16.373c-1.50488 4.29102 -3.02734 6.73926 -7.43848 11.9434c-0.707031 0.777344 -2.70801 2.88867 -2.70801 2.88867c-2.48047 2.71777 -4.72852 5.87891 -6.59473 8.74609
c-2.53027 3.66016 -4.05762 9.06738 -4.14453 14.5479v12.3311c-0.000976562 1.70898 1.1543 3.27734 2.83496 3.59863c2.26172 0.43457 4.23633 -1.28711 4.23633 -3.46973l0.0205078 -16.4346h16.3369v14.5273c0 11.8252 -7.80957 19.7715 -19.4336 19.7715z
M229.098 627.288v-120.201h33.6836v14.3086h-17.3486v40.7793h12.6172v14.3076h-12.6172v36.2744h16.7852v14.5312h-33.1201zM237.503 473.342h-19.3203v-120.199h16.2227v54.5039h0.495117l7.5918 -54.5039h16.0645l-9.35938 57.2197
c5.36133 3.31934 8.30273 9.58398 8.30273 18.292v20.4121c0 15.2012 -7.47559 24.2754 -19.9971 24.2754zM192.367 627.289h-19.3203v-120.199h16.2227v54.5039h0.495117l7.5918 -54.5039h16.0645l-9.35938 57.2197c5.36133 3.31934 8.30273 9.58398 8.30273 18.292
v20.4121c0 15.2012 -7.47559 24.2754 -19.9971 24.2754zM203.365 408.229v14.3057h-12.6172v36.2744h16.7852v14.5312h-33.1201v-120.199h33.6836v14.3086h-17.3486v40.7793h12.6172zM125.944 627.287l-0.000976562 -120.199h16.4473v60.834h13.4053v14.417h-13.4053
v30.3047h16.4473v14.6436h-32.8936zM139.718 87.8828l-0.00683594 7.27246c0 3.20996 -0.368164 5.56738 -1.18262 7.61523c-0.700195 1.99609 -1.4082 3.13574 -3.45996 5.55566c-0.328125 0.361328 -1.25977 1.34375 -1.25977 1.34375
c-1.15332 1.26367 -2.19922 2.73438 -3.06641 4.06836c-1.17676 1.70215 -1.8877 4.2168 -1.92773 6.76562v5.73633c-0.000976562 0.795898 0.536133 1.52441 1.31836 1.67383c1.05273 0.202148 1.97168 -0.598633 1.97168 -1.61328l0.00878906 -7.64453h7.59863v6.75684
c0 5.5 -3.63184 9.19629 -9.03809 9.19629c-5.85645 0 -9.35254 -4.02539 -9.35254 -10.7676l0.00488281 -4.02637c0.00585938 -5.37012 1.48535 -9.03516 5.65918 -13.8086c3.26465 -3.73438 4.13965 -4.91016 4.68066 -6.28613
c0.344727 -0.885742 0.484375 -1.69141 0.554688 -3.37793v-10.4072c0 -0.908203 -0.735352 -1.64551 -1.64355 -1.64551h-0.000976562c-0.90332 -0.000976562 -1.64258 0.726562 -1.65234 1.63086l-0.000976562 9.00195h-7.59766v-7.66992
c0 -5.71973 3.7373 -9.5625 9.30078 -9.5625c5.43848 0 9.0918 4.09668 9.0918 10.1924zM122.403 218.8c0 -12.3447 7.39844 -20.6387 18.4111 -20.6377c11.2656 0 18.8369 7.78223 18.8369 19.3662v94.8936h-15.4043l0.0175781 -97.0176
c0 -0.102539 -0.0166016 -0.195312 -0.0224609 -0.295898v-0.253906c0 -1.06738 -0.510742 -2.00586 -1.28906 -2.61523c-0.0449219 -0.0371094 -0.0888672 -0.0742188 -0.133789 -0.111328c-0.0507812 -0.0371094 -0.106445 -0.0664062 -0.15918 -0.100586
c-0.322266 -0.212891 -0.677734 -0.363281 -1.06836 -0.4375c-0.0693359 -0.0126953 -0.139648 -0.0117188 -0.208984 -0.0214844c-0.119141 -0.0136719 -0.233398 -0.0400391 -0.357422 -0.0400391l-0.0136719 0.00195312
c-0.0351562 -0.000976562 -0.0693359 -0.00976562 -0.103516 -0.00976562c-1.83984 0 -3.33105 1.49121 -3.33105 3.33105v97.5684h-15.1738v-93.6201zM162.704 78.1973v6.65332h-8.06934v18.9678h5.86914v6.65527h-5.86914v16.8721h7.80762v6.75977h-15.4053v-55.9082
h15.667zM164.351 425.275v23.792c0 15.2002 -7.47656 24.2744 -19.9961 24.2744h-19.3203v-120.199h16.2227v51.123h4.22461c11.9932 0 18.8691 7.6582 18.8691 21.0098zM168.842 78.1963l15.668 0.000976562v6.65332h-8.07031v18.9678h5.86914v6.65527h-5.86914v16.8721
h7.80762v6.75879h-15.4053v-55.9082zM173.26 217.541c0 -11.584 7.56836 -19.3691 18.833 -19.3701c11.0137 0 18.4121 8.2959 18.4121 20.6406v14.7266c-0.000976562 6.50195 -0.74707 11.2754 -2.39648 15.4229c-1.41797 4.04297 -2.85156 6.34863 -7.00684 11.251
c-0.666016 0.732422 -2.55078 2.72266 -2.55078 2.72266c-2.33594 2.55957 -4.4541 5.53809 -6.21094 8.23926c-2.38379 3.44727 -3.82227 8.54102 -3.9043 13.7031v11.6152c-0.000976562 1.61133 1.08691 3.08789 2.66895 3.3916
c2.13086 0.408203 3.99121 -1.21289 3.99121 -3.26758l0.0195312 -15.4814h15.3896v13.6846c0 11.1387 -7.35645 18.625 -18.3047 18.625c-11.8613 0 -18.9424 -8.15234 -18.9424 -21.8076l0.00878906 -8.1543c0.0126953 -10.877 3.00879 -18.2979 11.46 -27.9648
c6.61133 -7.56445 8.38379 -9.94531 9.48047 -12.7314c0.698242 -1.79297 0.980469 -3.4248 1.12207 -6.83984v-21.0781c0 -1.83984 -1.49023 -3.33203 -3.33008 -3.33203h-0.000976562c-1.83008 -0.00195312 -3.32715 1.47363 -3.34766 3.30469
c-0.00195312 0.1875 -0.00195312 11.2314 -0.00292969 18.2334h-15.3877v-15.5332zM208.569 123.672c1.80273 1.63086 2.73633 3.69824 2.73633 6.07812c0 3.17578 -1.59863 5.1748 -4.06055 5.19922c-1.98926 0.0195312 -3.60645 -1.40039 -3.86523 -3.38672
c-0.185547 -1.43164 0.339844 -2.69531 1.45605 -3.58008c1.12109 -0.886719 1.56055 -2.44336 0.811523 -3.66406c-0.405273 -0.65918 -0.996094 -1.11523 -1.93164 -1.58594l0.68457 -1.31543c2.17676 0.751953 2.98633 1.25293 4.16895 2.25488zM218.106 123.673
c1.80273 1.63086 2.73828 3.69824 2.7373 6.07812c0 3.17578 -1.59863 5.1748 -4.06055 5.19922c-1.98926 0.0195312 -3.60645 -1.40039 -3.86523 -3.38672c-0.185547 -1.43164 0.339844 -2.69531 1.45605 -3.58008c1.12012 -0.886719 1.55957 -2.44336 0.811523 -3.66406
c-0.404297 -0.65918 -0.995117 -1.11523 -1.93066 -1.58594l0.68457 -1.31543c2.17676 0.751953 2.98633 1.25293 4.16699 2.25488zM224.404 312.42v-113.227h31.7295v13.4785h-16.3418v38.4131h11.8848v13.4775h-11.8848v34.1699h15.8115v13.6875h-31.1992z
M239.173 78.1963l7.47168 -0.000976562l-4.35352 26.6152c2.49316 1.54395 3.8623 4.45801 3.8623 8.50879v9.49414c0 7.06934 -3.47754 11.291 -9.30176 11.291h-8.98535v-55.9082h7.54492v25.3516h0.230469zM269.333 78.1953v6.65332h-8.06934v18.9678h5.86914v6.65527
h-5.86914v16.8721h7.80762v6.75977h-15.4053v-55.9082h15.667zM287.708 78.1953h7.47363l-6.48242 55.9092h-8.98242l-6.48145 -55.9092h7.47168l0.636719 7.72461h5.72656zM320.001 87.9678v34.8438c0 7.07031 -3.47754 11.292 -9.30176 11.292h-9.50977v-55.9082h10.0342
c5.57812 0 8.77734 3.5625 8.77734 9.77246zM336.704 217.525l-0.000976562 77.2793c0 11.1396 -7.35645 18.624 -18.3047 18.624c-11.8613 0 -18.9424 -8.15234 -18.9424 -21.8076v-72.8213c0 -12.3447 7.39941 -20.6406 18.4111 -20.6406
c11.2656 0 18.8369 7.78223 18.8369 19.3662zM318.413 373.953c0 -13.1055 7.85449 -21.9111 19.5449 -21.9111c11.959 0 19.9961 8.26172 19.9961 20.5596v82.04c0 11.8262 -7.80957 19.7705 -19.4336 19.7705c-12.5918 0 -20.1074 -8.65527 -20.1074 -23.1514v-77.3076z
M359.829 78.1953l7.54688 0.000976562v55.9082h-6.34375l-6.38379 -23.4072l-6.30469 23.4072h-6.42188v-55.9082h7.5459v28.4229l3.45605 -12.127h3.18164l3.72363 12.9971v-29.2939zM365.469 252.526c1.12988 -3.72363 8.625 -47.2314 9.67383 -53.332h13.833v113.233
h-14.3262v-51.1162l0.287109 -3.19824l-9.89746 54.3135h-13.6279v-113.232h14.3252v50.2295zM375.628 78.1963l15.668 0.000976562v6.65332h-8.07031v18.9678h5.86914v6.65527h-5.86914v16.8721h7.80762v6.75879h-15.4053v-55.9082zM385.061 409.76
c1.19922 -3.95312 9.15625 -50.1406 10.2695 -56.6172h14.6855v120.207h-15.209v-54.2637l0.305664 -3.39453l-10.5078 57.6582h-14.4678v-120.207h15.207v53.3232zM401.38 123.676c1.80273 1.63086 2.73633 3.69824 2.73633 6.07812
c0 3.17578 -1.59863 5.1748 -4.06055 5.19922c-1.98926 0.0195312 -3.60645 -1.40039 -3.86523 -3.38672c-0.185547 -1.43164 0.339844 -2.69531 1.45605 -3.58008c1.12109 -0.886719 1.56055 -2.44336 0.811523 -3.66406
c-0.405273 -0.65918 -0.996094 -1.11523 -1.93164 -1.58594l0.68457 -1.31543c2.17773 0.751953 2.98633 1.25293 4.16895 2.25488zM410.917 123.677c1.80273 1.63086 2.7373 3.69824 2.7373 6.07812c0 3.17578 -1.59863 5.1748 -4.06055 5.19922
c-1.98926 0.0195312 -3.60645 -1.40039 -3.86523 -3.38672c-0.185547 -1.43164 0.338867 -2.69531 1.45605 -3.58008c1.12012 -0.886719 1.55957 -2.44336 0.811523 -3.66406c-0.404297 -0.65918 -0.995117 -1.11523 -1.93066 -1.58594l0.68457 -1.31543
c2.17676 0.751953 2.98633 1.25293 4.16699 2.25488zM434.224 199.199v13.583h-14.9609v99.6416h-15.2812v-113.225h30.2422zM449.953 127.298l0.000976562 6.81152h-15.2998v-55.9092h7.64941v28.2959h6.23535v6.70605h-6.23535v14.0957h7.64941zM463.046 78.2012v55.9082
h-7.54492v-55.9082h7.54492zM464.222 199.2l-0.000976562 53.8379l12.9717 59.4189h-15.2598l-5.31445 -38.6738l-5.39355 38.6738h-15.3623l13.0771 -59.8428v-53.4141h15.2822zM486.247 78.2002v6.70605h-7.3877v49.2021h-7.5459v-55.9082h14.9336zM488.479 206.692
c0 -4.42285 3.53809 -8.08789 8.08691 -8.08789c5.10742 0 9.20312 4.87988 7.81836 10.1768c-0.871094 3.33398 -3.89648 5.79297 -7.33691 5.98633c-4.78027 0.268555 -8.56836 -3.49902 -8.56836 -8.0752zM489.515 251.394l1.84277 -29.9121h10.4238l1.84082 29.9121
v61.0293h-14.1074v-61.0293zM506.71 78.2002v6.6543h-8.06934v18.9678h5.86914v6.65527h-5.86914v16.8721h7.80762v6.75879h-15.4053v-55.9082h15.667zM509.398 353.147v14.4199h-15.8828v105.779h-16.2227v-120.199h32.1055zM486.322 579.511
c0 -2.11621 -1.71582 -3.83301 -3.83105 -3.83398h-2.81543v37.1963h2.81543c2.11621 0 3.83105 -1.71484 3.83105 -3.83105v-29.5312zM241.16 425.562c0 -2.11621 -1.71484 -3.83398 -3.83105 -3.83398h-2.81543v37.1963h2.81543
c2.11621 0 3.83105 -1.71484 3.83105 -3.83105v-29.5312zM337.36 460.02c2.26172 0.43457 4.23535 -1.28613 4.23535 -3.46777l0.0253906 -86.7607c0 -1.9668 -1.59375 -3.56055 -3.56055 -3.56055c-1.95312 0 -3.53613 1.58203 -3.53613 3.53613v86.6533
c0 1.70996 1.15625 3.27734 2.83594 3.59961zM196.022 579.508c0 -2.11621 -1.71484 -3.83301 -3.83203 -3.83398h-2.81445v37.1963h2.81445c2.11719 0 3.83203 -1.71484 3.83203 -3.83105v-29.5312zM443.699 444.355l4.9873 -60.457h-9.97559z" />
    <glyph glyph-name="nine" unicode="9" horiz-adv-x="483" 
d="M240.117 271.23c-106.656 0 -193.115 98.1904 -193.115 219.315s86.4619 219.316 193.117 219.316s193.117 -98.1914 193.117 -219.316v-0.00488281c0.000976562 -0.0947266 0.405273 -25.0928 0.405273 -37.2266c0 -268.574 -110.824 -443.297 -315.5 -462.267
l-34.5635 113.319l3.80078 4.25293c13.21 -10.2441 28.3955 -13.0137 44.208 -11.5439c89.9668 18.0059 164.8 100.354 190.16 194.671c-24.7969 -13.1553 -52.4541 -20.5166 -81.6299 -20.5166zM151.441 542.668c-12.2354 -32.3965 -12.2344 -71.8477 0.00195312 -104.244
c35.0205 -92.5947 138.612 -98.8262 177.353 0c17.6768 46.9404 9.87988 106.47 -23.6123 144.252c-50.2627 57.2031 -126.503 33.418 -153.742 -40.0078z" />
    <glyph glyph-name="colon" unicode=":" horiz-adv-x="226" 
d="M113.404 129.782c38.9385 0 69.8896 -31.9492 69.8896 -70.8877s-30.9512 -69.8896 -69.8896 -69.8896s-69.8896 30.9512 -69.8896 69.8896s30.9512 70.8877 69.8896 70.8877zM111.889 482.224c38.9385 0 69.8896 -31.9492 69.8896 -70.8877
s-30.9512 -69.8896 -69.8896 -69.8896s-69.8896 30.9512 -69.8896 69.8896s30.9512 70.8877 69.8896 70.8877z" />
    <glyph glyph-name="semicolon" unicode=";" horiz-adv-x="224" 
d="M111.889 482.224c38.9385 0 69.8896 -31.9492 69.8896 -70.8877s-30.9512 -69.8896 -69.8896 -69.8896s-69.8896 30.9512 -69.8896 69.8896s30.9512 70.8877 69.8896 70.8877zM97.5322 -8.79492c-36.7344 11.0449 -55.1006 33.0664 -55.1006 66.0713
c-0.27832 9.94238 1.4502 19.3662 5.17969 28.2744c3.72852 8.90625 8.80371 16.6738 15.2246 23.3027s13.9102 11.8066 22.4746 15.5361c8.56055 3.72852 17.6064 5.52148 27.1348 5.38574c19.8848 0 36.249 -7.04297 49.0908 -21.1279
c12.8418 -13.9492 19.2637 -31.8984 19.2637 -53.8545c0 -27.6191 -10.7031 -53.0967 -32.1055 -76.4316c-21.2676 -23.1992 -47.9189 -37.4902 -79.9531 -42.876l-3.72852 2.69238c4.55664 2.625 8.7666 5.87109 12.6348 9.73633
c3.86426 3.86816 7.17773 8.07812 9.94238 12.6348c2.76074 4.55664 5.00293 9.45996 6.73145 14.707c1.72656 5.25 2.79688 10.5635 3.21094 15.9492z" />
    <glyph glyph-name="equal" unicode="=" horiz-adv-x="440" 
d="M393.697 523.803h3.29883v-118.817h-3.29883c-7.47656 12.5947 -46.2783 22.2256 -95.5811 22.2256h-156.236c-49.3037 0 -88.1055 -9.63086 -95.582 -22.2256h-3.29883v118.817h3.29883c7.47656 -12.5947 46.2783 -22.2256 95.582 -22.2256h156.236
c49.3037 0 88.1045 9.63086 95.5811 22.2256zM393.697 284.537h3.29883v-118.817h-3.29883c-7.47656 12.5947 -46.2773 22.2256 -95.5811 22.2256h-156.236c-49.3037 0 -88.1055 -9.63086 -95.582 -22.2256h-3.29883v118.817h3.29883
c7.47656 -12.5947 46.2783 -22.2256 95.582 -22.2256h156.236c49.3027 0 88.1045 9.63086 95.5811 22.2256z" />
    <glyph glyph-name="question" unicode="?" horiz-adv-x="440" 
d="M208.226 129.782c38.9385 0 69.8896 -31.9492 69.8896 -70.8877s-30.9512 -69.8896 -69.8896 -69.8896s-69.8896 30.9512 -69.8896 69.8896s30.9512 70.8877 69.8896 70.8877zM218.709 709.862c116.814 0 178.718 -71.8848 178.718 -176.719
c0 -84.8652 -29.7666 -154.011 -113.208 -219.354c-0.138672 -0.108398 -0.28125 -0.234375 -0.444336 -0.351562c-51.9111 -37.3164 -44.4434 -111.769 -44.4434 -111.769h-64.9316s-16.5273 59.8145 -14.7676 87.7617c3.18652 50.6064 26.3086 79.4492 66.918 109.815
c0.0859375 0.0644531 0.135742 0.101562 0.146484 0.108398c48.9229 39.9365 70.8877 72.8848 70.8877 120.809c0 58.9062 -31.9492 91.6934 -84.8652 91.8545c-25.918 0.0791016 -49.582 -8.36035 -73.1953 -23.4219c-27.4258 -17.8076 -53.2188 -50.4785 -51.875 -92.0059
l-5.32227 -2.05273l-47.3252 130.46c46.9258 47.9238 100.84 84.8652 183.708 84.8652z" />
    <glyph glyph-name="at" unicode="@" horiz-adv-x="651" 
d="M325.56 709.863c163.74 0 277.559 -139.782 277.559 -350.448c0 -1.51465 -0.0117188 -2.99902 -0.0205078 -4.49219c-0.838867 -141.002 -41.0928 -191.879 -98.9141 -199.976c-5.14648 -0.689453 -10.3623 -0.689453 -15.5078 0
c-27.6797 3.87598 -51.3301 17.5645 -68.5605 46.2441c-20.873 -40.5283 -53.2725 -65.3818 -98.6465 -65.3818c-89.0381 0 -126.939 94.4521 -126.939 216.577s38.502 217.78 127.54 217.78c89.0371 0 127.54 -94.4521 127.54 -216.577
c0 -12.0244 -0.382812 -23.7881 -1.15332 -35.2295c-1.26074 -18.708 0.0869141 -37.5273 4.35547 -55.7852c7.79492 -33.3428 21.6582 -51.2803 43.6191 -53.6436c37.2998 4.01367 51.2402 52.9521 51.7607 145.992
c0.00976562 1.81543 0.0166016 3.64258 0.0166016 5.49121c0 187.702 -91.8545 292.536 -222.647 292.536c-134.786 0 -219.651 -119.81 -219.651 -302.52c0 -183.709 86.8623 -305.516 221.648 -305.516c25.5439 0 49.4893 3.20215 72.6123 11.5537
c6.31152 2.28027 12.1729 5.72461 17.0449 10.3408c3.74512 3.5498 6.00781 6.84082 6.46875 9.62109l1.91797 0.74707l21.4521 -55.251l-1.68457 -0.972656c-42.9316 -25.959 -75.8789 -31.9492 -119.81 -31.9492c-160.745 0 -277.56 141.775 -277.56 360.429
s116.814 360.429 277.56 360.429zM323.271 194.765c51.1357 0 66.1758 79.4121 66.1758 157.62s-17.4463 158.823 -68.582 158.823c-51.1367 0 -65.5752 -79.4121 -65.5752 -157.62s16.8447 -158.823 67.9814 -158.823z" />
    <glyph glyph-name="A" unicode="A" horiz-adv-x="489" 
d="M487.664 4.32812l0.00878906 -4.33887h-162.506l-0.0839844 4.33984c12.0869 8.42188 14.3467 46.0947 4.59766 97.4639l-13.5186 61.3184h-147.603l-13.0469 -60.6582c-8.91016 -49.6426 -3.90332 -81.6592 4.31836 -98.126l-0.0839844 -4.33984h-158.748v4.2959
l0.0107422 0.0439453c18.9629 9.80566 44.2578 60.5596 60.4395 125.131l110.565 449.974c10.6338 56.8604 -6.64062 99.6885 -33.4072 115.941l0.0234375 3.52637l149.596 -0.0205078l140.924 -576.879c16.21 -60.9922 40.2861 -108.247 58.5137 -117.672zM188.527 255.965
h107.668s-47.1836 219.917 -53.915 255.411c-6.72852 -35.248 -53.7529 -255.411 -53.7529 -255.411z" />
    <glyph glyph-name="A" unicode="&#xe1;" horiz-adv-x="489" 
d="M487.664 4.32812l0.00878906 -4.33887h-162.506l-0.0839844 4.33984c12.0869 8.42188 14.3467 46.0947 4.59766 97.4639l-13.5186 61.3184h-147.603l-13.0469 -60.6582c-8.91016 -49.6426 -3.90332 -81.6592 4.31836 -98.126l-0.0839844 -4.33984h-158.748v4.2959
l0.0107422 0.0439453c18.9629 9.80566 44.2578 60.5596 60.4395 125.131l110.565 449.974c10.6338 56.8604 -6.64062 99.6885 -33.4072 115.941l0.0234375 3.52637l149.596 -0.0205078l140.924 -576.879c16.21 -60.9922 40.2861 -108.247 58.5137 -117.672zM188.527 255.965
h107.668s-47.1836 219.917 -53.915 255.411c-6.72852 -35.248 -53.7529 -255.411 -53.7529 -255.411z" />
    <glyph glyph-name="A" unicode="&#xc1;" horiz-adv-x="489" 
d="M487.664 4.32812l0.00878906 -4.33887h-162.506l-0.0839844 4.33984c12.0869 8.42188 14.3467 46.0947 4.59766 97.4639l-13.5186 61.3184h-147.603l-13.0469 -60.6582c-8.91016 -49.6426 -3.90332 -81.6592 4.31836 -98.126l-0.0839844 -4.33984h-158.748v4.2959
l0.0107422 0.0439453c18.9629 9.80566 44.2578 60.5596 60.4395 125.131l110.565 449.974c10.6338 56.8604 -6.64062 99.6885 -33.4072 115.941l0.0234375 3.52637l149.596 -0.0205078l140.924 -576.879c16.21 -60.9922 40.2861 -108.247 58.5137 -117.672zM188.527 255.965
h107.668s-47.1836 219.917 -53.915 255.411c-6.72852 -35.248 -53.7529 -255.411 -53.7529 -255.411z" />
    <glyph glyph-name="A" unicode="a" horiz-adv-x="489" 
d="M487.664 4.32812l0.00878906 -4.33887h-162.506l-0.0839844 4.33984c12.0869 8.42188 14.3467 46.0947 4.59766 97.4639l-13.5186 61.3184h-147.603l-13.0469 -60.6582c-8.91016 -49.6426 -3.90332 -81.6592 4.31836 -98.126l-0.0839844 -4.33984h-158.748v4.2959
l0.0107422 0.0439453c18.9629 9.80566 44.2578 60.5596 60.4395 125.131l110.565 449.974c10.6338 56.8604 -6.64062 99.6885 -33.4072 115.941l0.0234375 3.52637l149.596 -0.0205078l140.924 -576.879c16.21 -60.9922 40.2861 -108.247 58.5137 -117.672zM188.527 255.965
h107.668s-47.1836 219.917 -53.915 255.411c-6.72852 -35.248 -53.7529 -255.411 -53.7529 -255.411z" />
    <glyph glyph-name="B" unicode="B" horiz-adv-x="471" 
d="M339.342 368.471c57.6572 -21.8193 101.307 -83.0273 101.307 -157.817c0 -139.778 -89.8574 -210.666 -205.674 -210.666h-199.973v4.33984c16.5723 9.83887 29.2422 60.8887 29.2422 125.759v438.673c0 64.8711 -12.6709 115.921 -29.2422 125.759v4.33984
s166.7 -0.208008 194.819 -0.208008c102.087 0 178.876 -61.6836 178.876 -184.478c0 -55.6533 -24.8438 -116.059 -78.2295 -142.977zM161.093 604.03v-189.698h56.7705v0.0166016c51.0322 0.709961 90.9951 30.7363 90.9951 96.8291
c0 68.8906 -37.9395 92.8525 -90.8555 92.8525h-56.9102zM233.978 94.8389c58.9062 0 96.8457 31.9492 96.8457 115.816c0 77.877 -45.9268 109.826 -106.83 109.826h-62.9004v-225.643h72.8848z" />
    <glyph glyph-name="B" unicode="b" horiz-adv-x="471" 
d="M339.342 368.471c57.6572 -21.8193 101.307 -83.0273 101.307 -157.817c0 -139.778 -89.8574 -210.666 -205.674 -210.666h-199.973v4.33984c16.5723 9.83887 29.2422 60.8887 29.2422 125.759v438.673c0 64.8711 -12.6709 115.921 -29.2422 125.759v4.33984
s166.7 -0.208008 194.819 -0.208008c102.087 0 178.876 -61.6836 178.876 -184.478c0 -55.6533 -24.8438 -116.059 -78.2295 -142.977zM161.093 604.03v-189.698h56.7705v0.0166016c51.0322 0.709961 90.9951 30.7363 90.9951 96.8291
c0 68.8906 -37.9395 92.8525 -90.8555 92.8525h-56.9102zM233.978 94.8389c58.9062 0 96.8457 31.9492 96.8457 115.816c0 77.877 -45.9268 109.826 -106.83 109.826h-62.9004v-225.643h72.8848z" />
    <glyph glyph-name="C" unicode="C" horiz-adv-x="386" 
d="M352.016 173.94h5.23438v-156.251c-27.083 -18.4971 -73.1641 -28.6836 -110.585 -28.6836c-147.766 0 -210.666 156.751 -210.666 359.43s63.8984 361.427 211.664 361.427c37.0322 0 75.7861 -9.84668 102.598 -27.793v-137.06h-5.70508
c-17.5723 50.3564 -53.8496 67.0078 -98.8896 67.0078c-84.8652 0 -108.827 -131.791 -108.827 -261.585s27.9561 -263.582 112.821 -263.582c43.8447 0 85.6719 35.1855 102.355 87.0898z" />
    <glyph glyph-name="C" unicode="c" horiz-adv-x="386" 
d="M352.016 173.94h5.23438v-156.251c-27.083 -18.4971 -73.1641 -28.6836 -110.585 -28.6836c-147.766 0 -210.666 156.751 -210.666 359.43s63.8984 361.427 211.664 361.427c37.0322 0 75.7861 -9.84668 102.598 -27.793v-137.06h-5.70508
c-17.5723 50.3564 -53.8496 67.0078 -98.8896 67.0078c-84.8652 0 -108.827 -131.791 -108.827 -261.585s27.9561 -263.582 112.821 -263.582c43.8447 0 85.6719 35.1855 102.355 87.0898z" />
    <glyph glyph-name="D" unicode="D" horiz-adv-x="476" 
d="M218.997 698.88c154.755 0 221.648 -138.78 221.648 -346.451s-73.8828 -352.441 -221.648 -352.441h-183.997v4.33984c16.5713 9.83887 29.2422 60.8887 29.2422 125.759v438.673c0 64.8711 -12.6709 115.921 -29.2422 125.759v4.33984zM218.997 95.8369
c93.8516 0 120.808 133.787 120.808 256.593s-25.959 250.603 -123.804 250.603h-53.9141v-507.195h56.9102z" />
    <glyph glyph-name="D" unicode="d" horiz-adv-x="476" 
d="M218.997 698.88c154.755 0 221.648 -138.78 221.648 -346.451s-73.8828 -352.441 -221.648 -352.441h-183.997v4.33984c16.5713 9.83887 29.2422 60.8887 29.2422 125.759v438.673c0 64.8711 -12.6709 115.921 -29.2422 125.759v4.33984zM218.997 95.8369
c93.8516 0 120.808 133.787 120.808 256.593s-25.959 250.603 -123.804 250.603h-53.9141v-507.195h56.9102z" />
    <glyph glyph-name="E" unicode="E" horiz-adv-x="415" 
d="M390.725 124.071l-0.000976562 -124.082l-355.725 0.0107422v4.33984c16.5713 9.83691 29.2422 60.8867 29.2422 125.758v438.674c0 64.8701 -12.6699 115.92 -29.2422 125.759v4.33984l342.745 0.0107422v-124.092h-4.33984
c-9.83691 16.5713 -60.8867 29.2422 -125.758 29.2422h-85.5605v-186.704h5.68652c64.8701 0 115.92 9.15918 125.759 21.1396h4.33984v-134.599h-4.33984c-9.83691 11.1113 -60.8867 19.6074 -125.758 19.6074h-5.68555v-228.638h101.643
c63.3906 0.396484 112.975 12.9258 122.654 29.2334h4.33984z" />
    <glyph glyph-name="E" unicode="e" horiz-adv-x="415" 
d="M390.725 124.071l-0.000976562 -124.082l-355.725 0.0107422v4.33984c16.5713 9.83691 29.2422 60.8867 29.2422 125.758v438.674c0 64.8701 -12.6699 115.92 -29.2422 125.759v4.33984l342.745 0.0107422v-124.092h-4.33984
c-9.83691 16.5713 -60.8867 29.2422 -125.758 29.2422h-85.5605v-186.704h5.68652c64.8701 0 115.92 9.15918 125.759 21.1396h4.33984v-134.599h-4.33984c-9.83691 11.1113 -60.8867 19.6074 -125.758 19.6074h-5.68555v-228.638h101.643
c63.3906 0.396484 112.975 12.9258 122.654 29.2334h4.33984z" />
    <glyph glyph-name="F" unicode="F" horiz-adv-x="391" 
d="M377.745 698.881l-0.000976562 -124.089h-4.33984c-9.83789 16.5713 -60.8877 29.2422 -125.759 29.2422h-85.5605v-196.688h18.666c64.8701 0 115.92 9.15918 125.759 21.1396h4.33984v-134.599h-4.33984c-9.83691 11.1113 -60.8867 19.6074 -125.758 19.6074h-18.665
v-183.397c0 -64.8701 12.6709 -115.92 29.2422 -125.759v-4.33984l-156.329 0.00390625v4.33984c16.5713 9.83691 29.2422 60.8867 29.2422 125.758v438.672c0 64.8701 -12.6699 115.92 -29.2422 125.759v4.33984z" />
    <glyph glyph-name="F" unicode="f" horiz-adv-x="391" 
d="M377.745 698.881l-0.000976562 -124.089h-4.33984c-9.83789 16.5713 -60.8877 29.2422 -125.759 29.2422h-85.5605v-196.688h18.666c64.8701 0 115.92 9.15918 125.759 21.1396h4.33984v-134.599h-4.33984c-9.83691 11.1113 -60.8867 19.6074 -125.758 19.6074h-18.665
v-183.397c0 -64.8701 12.6709 -115.92 29.2422 -125.759v-4.33984l-156.329 0.00390625v4.33984c16.5713 9.83691 29.2422 60.8867 29.2422 125.758v438.672c0 64.8701 -12.6699 115.92 -29.2422 125.759v4.33984z" />
    <glyph glyph-name="G" unicode="G" horiz-adv-x="451" 
d="M285.438 395.812l127.153 -0.0117188v-286.199c-6.00977 -16.2139 -13.1172 -31.1396 -21.5391 -44.5605c-29.7607 -47.4258 -75.958 -76.0312 -148.377 -76.0312c-150.761 0 -205.674 160.745 -205.674 359.43c0 202.679 60.9033 361.427 208.669 361.427
c46.4971 0 82.0742 -11.2354 109.134 -31.0557c12.1455 -8.89551 22.5723 -19.5234 31.5 -31.6406l-20.6064 -58.4893l-26.917 -71.7773l-5.32227 2.05273c0.282227 8.72461 -12.6533 40.0576 -32.3467 64.29c-19.6934 24.2314 -49.3027 27.7764 -58.4375 27.7764
c-84.8652 0 -104.834 -137.781 -104.834 -260.587c0 -128.796 26.957 -262.584 111.822 -262.584c15.8154 0 28.7959 3.62988 39.7812 11.3096c16.0928 11.25 25.3008 29.9746 25.3008 49.6094l-0.0644531 116.944c0 64.8711 -12.6709 115.921 -29.2422 125.758v4.33984z
" />
    <glyph glyph-name="G" unicode="g" horiz-adv-x="451" 
d="M285.438 395.812l127.153 -0.0117188v-286.199c-6.00977 -16.2139 -13.1172 -31.1396 -21.5391 -44.5605c-29.7607 -47.4258 -75.958 -76.0312 -148.377 -76.0312c-150.761 0 -205.674 160.745 -205.674 359.43c0 202.679 60.9033 361.427 208.669 361.427
c46.4971 0 82.0742 -11.2354 109.134 -31.0557c12.1455 -8.89551 22.5723 -19.5234 31.5 -31.6406l-20.6064 -58.4893l-26.917 -71.7773l-5.32227 2.05273c0.282227 8.72461 -12.6533 40.0576 -32.3467 64.29c-19.6934 24.2314 -49.3027 27.7764 -58.4375 27.7764
c-84.8652 0 -104.834 -137.781 -104.834 -260.587c0 -128.796 26.957 -262.584 111.822 -262.584c15.8154 0 28.7959 3.62988 39.7812 11.3096c16.0928 11.25 25.3008 29.9746 25.3008 49.6094l-0.0644531 116.944c0 64.8711 -12.6709 115.921 -29.2422 125.758v4.33984z
" />
    <glyph glyph-name="H" unicode="H" horiz-adv-x="484" 
d="M448.921 694.494c-16.5713 -9.83691 -29.2422 -60.8867 -29.2422 -125.758v-438.696c0 -64.8711 12.6709 -115.921 29.2422 -125.759v-4.33984h-156.358v4.33984c16.5713 9.83789 29.2422 60.8877 29.2422 125.759l0.0117188 203.373h-159.729v-203.373
c0 -64.8711 12.6709 -115.921 29.2422 -125.759v-4.33984h-156.33v4.33984c16.5723 9.83691 29.2422 60.8867 29.2422 125.758v438.696c0 64.8711 -12.6709 115.921 -29.2422 125.759v4.33984h156.33v-4.33984c-16.5713 -9.83789 -29.2422 -60.8877 -29.2422 -125.759
v-139.475h159.725l-0.00683594 139.475c0 64.8711 -12.6709 115.921 -29.2422 125.759v4.33984h156.358v-4.33984z" />
    <glyph glyph-name="H" unicode="h" horiz-adv-x="484" 
d="M448.921 694.494c-16.5713 -9.83691 -29.2422 -60.8867 -29.2422 -125.758v-438.696c0 -64.8711 12.6709 -115.921 29.2422 -125.759v-4.33984h-156.358v4.33984c16.5713 9.83789 29.2422 60.8877 29.2422 125.759l0.0117188 203.373h-159.729v-203.373
c0 -64.8711 12.6709 -115.921 29.2422 -125.759v-4.33984h-156.33v4.33984c16.5723 9.83691 29.2422 60.8867 29.2422 125.758v438.696c0 64.8711 -12.6709 115.921 -29.2422 125.759v4.33984h156.33v-4.33984c-16.5713 -9.83789 -29.2422 -60.8877 -29.2422 -125.759
v-139.475h159.725l-0.00683594 139.475c0 64.8711 -12.6709 115.921 -29.2422 125.759v4.33984h156.358v-4.33984z" />
    <glyph glyph-name="I" unicode="I" horiz-adv-x="227" 
d="M191.329 694.529c-16.5713 -9.83691 -29.2412 -60.8896 -29.2422 -125.76v-438.673c0 -64.8711 12.6709 -115.921 29.2422 -125.759v-4.33984h-156.329v4.33984c16.5703 9.83789 29.2402 60.8789 29.2422 125.739v438.693c0 64.8711 -12.6709 115.921 -29.2422 125.759
v4.33984h156.329v-4.33984z" />
    <glyph glyph-name="I" unicode="i" horiz-adv-x="227" 
d="M191.329 694.529c-16.5713 -9.83691 -29.2412 -60.8896 -29.2422 -125.76v-438.673c0 -64.8711 12.6709 -115.921 29.2422 -125.759v-4.33984h-156.329v4.33984c16.5703 9.83789 29.2402 60.8789 29.2422 125.739v438.693c0 64.8711 -12.6709 115.921 -29.2422 125.759
v4.33984h156.329v-4.33984z" />
    <glyph glyph-name="J" unicode="J" horiz-adv-x="377" 
d="M188.846 698.88h156.326v-4.33887c-16.5723 -9.83887 -29.2422 -60.8887 -29.2422 -125.759l-0.0322266 0.0371094v-369.148c0 -92.1855 -27.4971 -157.347 -83.791 -188.961c-0.000976562 -0.000976562 -0.00292969 -0.00585938 -0.00488281 -0.00683594
c-0.0117188 -0.00488281 -0.0224609 -0.00976562 -0.0341797 -0.0146484c-25.3975 -14.252 -56.6514 -21.6836 -93.8877 -21.6836c-0.170898 0 -0.338867 0.00390625 -0.509766 0.00390625v0.243164c-47.5361 0.652344 -90.7715 19.8877 -135.671 51.8564l35.6973 113.023
l5.7041 -0.0576172c13.7275 -40.6738 46.1035 -67.0928 94.2725 -68.2158c0.171875 0 0.337891 -0.00585938 0.509766 -0.00585938c60.9033 0 79.873 43.9307 79.873 110.824v377.607c-0.693359 62.2393 -13.1104 110.698 -29.21 120.256v4.33984z" />
    <glyph glyph-name="J" unicode="j" horiz-adv-x="377" 
d="M188.846 698.88h156.326v-4.33887c-16.5723 -9.83887 -29.2422 -60.8887 -29.2422 -125.759l-0.0322266 0.0371094v-369.148c0 -92.1855 -27.4971 -157.347 -83.791 -188.961c-0.000976562 -0.000976562 -0.00292969 -0.00585938 -0.00488281 -0.00683594
c-0.0117188 -0.00488281 -0.0224609 -0.00976562 -0.0341797 -0.0146484c-25.3975 -14.252 -56.6514 -21.6836 -93.8877 -21.6836c-0.170898 0 -0.338867 0.00390625 -0.509766 0.00390625v0.243164c-47.5361 0.652344 -90.7715 19.8877 -135.671 51.8564l35.6973 113.023
l5.7041 -0.0576172c13.7275 -40.6738 46.1035 -67.0928 94.2725 -68.2158c0.171875 0 0.337891 -0.00585938 0.509766 -0.00585938c60.9033 0 79.873 43.9307 79.873 110.824v377.607c-0.693359 62.2393 -13.1104 110.698 -29.21 120.256v4.33984z" />
    <glyph glyph-name="K" unicode="K" horiz-adv-x="469" 
d="M465.256 4.11035l0.0126953 -4.12207h-103.858c-21.1963 0 -40.0693 13.4209 -47.0273 33.4434l-118.272 313.867l-34.0244 -52.5635v-164.637c0 -64.8711 12.6709 -115.921 29.2422 -125.759v-4.33984h-156.329v4.33984
c16.5703 9.83789 29.2402 60.8789 29.2422 125.739v438.693c0 64.8711 -12.6709 115.921 -29.2422 125.758v4.33984h156.329v-4.33984c-16.5723 -9.83887 -29.2422 -60.8887 -29.2422 -125.759v-106.519c20.0449 31.8135 54.6025 86.0693 85.583 134.615
c26.8838 49.0957 40.5723 89.8232 32.3545 97.6729l0.108398 4.33984h167.966l0.0615234 -4.33984c-18.9717 -8.16992 -53.3779 -44.7646 -88.1904 -94.0928l-93.9746 -145.185c36.4609 -99.3633 149.964 -390.125 151.658 -393.443
c18.832 -36.8818 38.6055 -57.71 47.6035 -57.71z" />
    <glyph glyph-name="K" unicode="k" horiz-adv-x="469" 
d="M465.256 4.11035l0.0126953 -4.12207h-103.858c-21.1963 0 -40.0693 13.4209 -47.0273 33.4434l-118.272 313.867l-34.0244 -52.5635v-164.637c0 -64.8711 12.6709 -115.921 29.2422 -125.759v-4.33984h-156.329v4.33984
c16.5703 9.83789 29.2402 60.8789 29.2422 125.739v438.693c0 64.8711 -12.6709 115.921 -29.2422 125.758v4.33984h156.329v-4.33984c-16.5723 -9.83887 -29.2422 -60.8887 -29.2422 -125.759v-106.519c20.0449 31.8135 54.6025 86.0693 85.583 134.615
c26.8838 49.0957 40.5723 89.8232 32.3545 97.6729l0.108398 4.33984h167.966l0.0615234 -4.33984c-18.9717 -8.16992 -53.3779 -44.7646 -88.1904 -94.0928l-93.9746 -145.185c36.4609 -99.3633 149.964 -390.125 151.658 -393.443
c18.832 -36.8818 38.6055 -57.71 47.6035 -57.71z" />
    <glyph glyph-name="L" unicode="L" horiz-adv-x="381" 
d="M376.75 124.09l0.000976562 -124.09l-342.75 0.00976562v4.33984c16.5703 9.83008 29.2402 60.8799 29.2402 125.76v438.67c0 64.8701 -12.6699 115.92 -29.2402 125.76v4.33984h156.33v-4.33984c-16.5703 -9.83984 -29.2402 -60.8896 -29.2402 -125.76v-473.93h85.5596
c64.8701 0 115.92 12.6699 125.76 29.2402h4.33984z" />
    <glyph glyph-name="L" unicode="l" horiz-adv-x="381" 
d="M376.75 124.09l0.000976562 -124.09l-342.75 0.00976562v4.33984c16.5703 9.83008 29.2402 60.8799 29.2402 125.76v438.67c0 64.8701 -12.6699 115.92 -29.2402 125.76v4.33984h156.33v-4.33984c-16.5703 -9.83984 -29.2402 -60.8896 -29.2402 -125.76v-473.93h85.5596
c64.8701 0 115.92 12.6699 125.76 29.2402h4.33984z" />
    <glyph glyph-name="M" unicode="M" horiz-adv-x="634" 
d="M598.071 694.529c-16.5723 -9.83789 -29.2432 -60.8867 -29.2461 -125.757v-438.715c0.00585938 -64.8516 12.6738 -115.883 29.2422 -125.718v-4.33984h-156.329v4.33984c12.0742 7.16797 22.0752 36.2148 26.6162 76.542c0 0 0.998047 382.373 1.99609 408.332
c-8.98535 -19.9688 -154.731 -358.002 -154.731 -358.002s-136.988 317.721 -153.533 355.3l0.798828 -384.091c3.02148 -51.3359 14.3135 -89.6924 28.4443 -98.0811v-4.33984h-156.329v4.33984c16.5684 9.83496 29.2373 60.8662 29.2422 125.718v438.713
c0 64.8711 -12.6709 115.921 -29.2422 125.758v4.33984l129.883 0.0107422l150.74 -344.741l150.738 344.742l131.71 -0.0107422v-4.33984z" />
    <glyph glyph-name="M" unicode="m" horiz-adv-x="634" 
d="M598.071 694.529c-16.5723 -9.83789 -29.2432 -60.8867 -29.2461 -125.757v-438.715c0.00585938 -64.8516 12.6738 -115.883 29.2422 -125.718v-4.33984h-156.329v4.33984c12.0742 7.16797 22.0752 36.2148 26.6162 76.542c0 0 0.998047 382.373 1.99609 408.332
c-8.98535 -19.9688 -154.731 -358.002 -154.731 -358.002s-136.988 317.721 -153.533 355.3l0.798828 -384.091c3.02148 -51.3359 14.3135 -89.6924 28.4443 -98.0811v-4.33984h-156.329v4.33984c16.5684 9.83496 29.2373 60.8662 29.2422 125.718v438.713
c0 64.8711 -12.6709 115.921 -29.2422 125.758v4.33984l129.883 0.0107422l150.74 -344.741l150.738 344.742l131.71 -0.0107422v-4.33984z" />
    <glyph glyph-name="N" unicode="N" horiz-adv-x="504" 
d="M439.547 130.108c0 -64.8701 12.6709 -115.92 29.2422 -125.759v-4.33984l-111.309 -0.0224609l-147.766 363.424c-13.3574 28.624 -37.6553 89.1562 -47.6279 111.898v-345.213c0 -64.8711 12.6709 -115.921 29.2422 -125.759v-4.33984h-156.329v4.33984
c16.5684 9.83496 29.2373 60.8662 29.2422 125.718v438.713c0 64.8711 -12.6709 115.921 -29.2422 125.759v4.33984l127.088 0.0107422h2.69824l129.794 -322.488c13.1367 -28.1514 36.8564 -87.167 47.1221 -110.741v303.132c0 64.8711 -12.6709 115.921 -29.2422 125.759
v4.33984h156.329v-4.33984c-16.5684 -9.83496 -29.2373 -60.8662 -29.2422 -125.718v-438.713z" />
    <glyph glyph-name="N" unicode="n" horiz-adv-x="504" 
d="M439.547 130.108c0 -64.8701 12.6709 -115.92 29.2422 -125.759v-4.33984l-111.309 -0.0224609l-147.766 363.424c-13.3574 28.624 -37.6553 89.1562 -47.6279 111.898v-345.213c0 -64.8711 12.6709 -115.921 29.2422 -125.759v-4.33984h-156.329v4.33984
c16.5684 9.83496 29.2373 60.8662 29.2422 125.718v438.713c0 64.8711 -12.6709 115.921 -29.2422 125.759v4.33984l127.088 0.0107422h2.69824l129.794 -322.488c13.1367 -28.1514 36.8564 -87.167 47.1221 -110.741v303.132c0 64.8711 -12.6709 115.921 -29.2422 125.759
v4.33984h156.329v-4.33984c-16.5684 -9.83496 -29.2373 -60.8662 -29.2422 -125.718v-438.713z" />
    <glyph glyph-name="O" unicode="O" horiz-adv-x="496" 
d="M247.664 708.364c147.766 0 211.665 -156.751 211.665 -359.43s-64.8975 -361.427 -212.663 -361.427s-210.666 156.751 -210.666 359.43s63.8984 361.427 211.664 361.427zM249.662 85.3525c84.8652 0 109.825 131.791 109.825 261.585
s-28.9541 263.582 -113.819 263.582s-108.827 -131.791 -108.827 -261.585s27.9561 -263.582 112.821 -263.582z" />
    <glyph glyph-name="O" unicode="o" horiz-adv-x="496" 
d="M247.664 708.364c147.766 0 211.665 -156.751 211.665 -359.43s-64.8975 -361.427 -212.663 -361.427s-210.666 156.751 -210.666 359.43s63.8984 361.427 211.664 361.427zM249.662 85.3525c84.8652 0 109.825 131.791 109.825 261.585
s-28.9541 263.582 -113.819 263.582s-108.827 -131.791 -108.827 -261.585s27.9561 -263.582 112.821 -263.582z" />
    <glyph glyph-name="P" unicode="P" horiz-adv-x="424" 
d="M408.695 514.173c0 -2.22559 0.00585938 -4.58008 0.0136719 -7.05176c0.306641 -102.466 -82.2549 -185.914 -184.719 -186.64h-62.9004v-191.071c0.0888672 -64.5479 12.7266 -115.278 29.2402 -125.081v-4.33984h-155.329v4.33984
c16.5684 9.83496 29.2373 60.8662 29.2422 125.719v438.752c-0.00585938 64.8525 -12.6738 115.884 -29.2422 125.719v4.33984s166.699 -0.208008 194.819 -0.208008c102.086 0 178.875 -61.6836 178.875 -184.478zM217.862 414.35
c51.0322 0.709961 90.9951 30.7383 90.9951 96.8301c0 68.8906 -37.9395 92.8525 -90.8555 92.8525h-56.9102v-189.699h56.7705v0.0166016z" />
    <glyph glyph-name="P" unicode="p" horiz-adv-x="424" 
d="M408.695 514.173c0 -2.22559 0.00585938 -4.58008 0.0136719 -7.05176c0.306641 -102.466 -82.2549 -185.914 -184.719 -186.64h-62.9004v-191.071c0.0888672 -64.5479 12.7266 -115.278 29.2402 -125.081v-4.33984h-155.329v4.33984
c16.5684 9.83496 29.2373 60.8662 29.2422 125.719v438.752c-0.00585938 64.8525 -12.6738 115.884 -29.2422 125.719v4.33984s166.699 -0.208008 194.819 -0.208008c102.086 0 178.875 -61.6836 178.875 -184.478zM217.862 414.35
c51.0322 0.709961 90.9951 30.7383 90.9951 96.8301c0 68.8906 -37.9395 92.8525 -90.8555 92.8525h-56.9102v-189.699h56.7705v0.0166016z" />
    <glyph glyph-name="Q" unicode="Q" horiz-adv-x="496" 
d="M390.152 -48.5127c18.8311 -36.8818 38.6064 -57.709 47.6045 -57.709l0.0126953 -4.12109h-103.858c-21.1963 0 -40.0693 13.4209 -47.0273 33.4434l-22.6562 65.1895c-5.71875 -0.514648 -11.5703 -0.780273 -17.5605 -0.780273
c-147.766 0 -210.666 156.751 -210.666 359.43s63.8984 361.427 211.664 361.427s211.664 -156.751 211.664 -359.43c0 -138.843 -30.459 -257.065 -97.1455 -317.767c13.8877 -39.5615 27.3984 -78.5664 27.9688 -79.6826zM136.841 348.936
c0 -129.794 27.9561 -263.582 112.821 -263.582s109.825 131.791 109.825 261.585s-28.9541 263.582 -113.819 263.582s-108.827 -131.791 -108.827 -261.585z" />
    <glyph glyph-name="Q" unicode="q" horiz-adv-x="496" 
d="M390.152 -48.5127c18.8311 -36.8818 38.6064 -57.709 47.6045 -57.709l0.0126953 -4.12109h-103.858c-21.1963 0 -40.0693 13.4209 -47.0273 33.4434l-22.6562 65.1895c-5.71875 -0.514648 -11.5703 -0.780273 -17.5605 -0.780273
c-147.766 0 -210.666 156.751 -210.666 359.43s63.8984 361.427 211.664 361.427s211.664 -156.751 211.664 -359.43c0 -138.843 -30.459 -257.065 -97.1455 -317.767c13.8877 -39.5615 27.3984 -78.5664 27.9688 -79.6826zM136.841 348.936
c0 -129.794 27.9561 -263.582 112.821 -263.582s109.825 131.791 109.825 261.585s-28.9541 263.582 -113.819 263.582s-108.827 -131.791 -108.827 -261.585z" />
    <glyph glyph-name="R" unicode="R" horiz-adv-x="484" 
d="M425.463 61.8203c18.832 -36.8818 38.6045 -57.707 47.6045 -57.708l0.0126953 -4.12109h-103.859c-21.1963 0 -40.0693 13.4209 -47.0273 33.4434l-89.6572 257.973v-0.800781l-70.4492 -27.71v-137.726c0.624023 -62.5137 13.0664 -111.24 29.2158 -120.827v-4.33984
h-156.303v4.33984c16.5723 9.83691 29.2422 60.8867 29.2422 125.758v438.673c0 64.8711 -12.6709 115.921 -29.2422 125.758v4.33984l185.994 0.0107422c101.839 0 194.691 -54.9131 194.691 -193.693c0 -89.3555 -34.498 -144.21 -88.2021 -173.609
c33.666 -91.4941 96.0557 -265.993 97.9795 -269.76zM232.536 388.434c50.6016 16.0234 82.3086 48.7539 82.3076 113.764c0 71.8857 -42.9316 101.838 -101.838 101.838h-50.9189v-243.312z" />
    <glyph glyph-name="R" unicode="r" horiz-adv-x="484" 
d="M425.463 61.8203c18.832 -36.8818 38.6045 -57.707 47.6045 -57.708l0.0126953 -4.12109h-103.859c-21.1963 0 -40.0693 13.4209 -47.0273 33.4434l-89.6572 257.973v-0.800781l-70.4492 -27.71v-137.726c0.624023 -62.5137 13.0664 -111.24 29.2158 -120.827v-4.33984
h-156.303v4.33984c16.5723 9.83691 29.2422 60.8867 29.2422 125.758v438.673c0 64.8711 -12.6709 115.921 -29.2422 125.758v4.33984l185.994 0.0107422c101.839 0 194.691 -54.9131 194.691 -193.693c0 -89.3555 -34.498 -144.21 -88.2021 -173.609
c33.666 -91.4941 96.0557 -265.993 97.9795 -269.76zM232.536 388.434c50.6016 16.0234 82.3086 48.7539 82.3076 113.764c0 71.8857 -42.9316 101.838 -101.838 101.838h-50.9189v-243.312z" />
    <glyph glyph-name="S" unicode="S" horiz-adv-x="422" 
d="M398.34 233.893c3.43262 -59.1299 -12.6885 -117.041 -45.3945 -163.067c-16.6514 -23.4336 -36.668 -42.4199 -59.4912 -56.4297c-24.8643 -15.2607 -51.752 -23.8281 -79.918 -25.4639c-5.4502 -0.316406 -10.8809 -0.381836 -16.2842 -0.197266
c-22.2012 0.756836 -43.957 5.73242 -64.875 14.8545c-24.3896 10.6338 -46.4951 26.4141 -65.7041 46.8975c-20.5762 21.9424 -36.6826 48.127 -47.6729 76.9316l75.0781 85.958l5.28027 -5.08789c2.54102 -35.665 15.9688 -68.1055 37.958 -91.5547
c20.1982 -21.5371 45.2705 -32.5771 70.6064 -31.1172c33.3281 1.93457 55.7061 26.7109 66.0771 41.3066c19.7061 27.7314 29.7852 64.6748 27.6553 101.358c-2.6582 45.7988 -24.3652 87.8555 -56.6494 109.757l-0.288086 0.197266l-129.249 89.0527l-1.65332 1.37012
c-38.1543 31.6152 -60.3359 75.1729 -62.459 122.65c-1.98633 44.4004 14.3213 87.1699 44.7402 117.341c15.8262 15.6982 34.7764 27.1816 56.3223 34.1338c20.0508 6.46875 41.3887 8.69141 63.4258 6.6123c43.0342 -4.06445 84.5615 -24.2764 116.934 -56.9131
l-71.9189 -84.71l-4.08301 1.47461c-1.99121 10.4111 -4.69141 22.9023 -23.1494 36.2803c-25.6621 11.6318 -53.1152 10.4434 -69.3291 -5.63867c-11.0576 -10.9668 -16.959 -27.0977 -16.1914 -44.2549c0.860352 -19.2549 10.0889 -37.3555 26.041 -51.1689
l125.382 -86.3877c57.4512 -39.0488 94.3818 -107.887 98.8105 -184.185z" />
    <glyph glyph-name="S" unicode="s" horiz-adv-x="422" 
d="M398.34 233.893c3.43262 -59.1299 -12.6885 -117.041 -45.3945 -163.067c-16.6514 -23.4336 -36.668 -42.4199 -59.4912 -56.4297c-24.8643 -15.2607 -51.752 -23.8281 -79.918 -25.4639c-5.4502 -0.316406 -10.8809 -0.381836 -16.2842 -0.197266
c-22.2012 0.756836 -43.957 5.73242 -64.875 14.8545c-24.3896 10.6338 -46.4951 26.4141 -65.7041 46.8975c-20.5762 21.9424 -36.6826 48.127 -47.6729 76.9316l75.0781 85.958l5.28027 -5.08789c2.54102 -35.665 15.9688 -68.1055 37.958 -91.5547
c20.1982 -21.5371 45.2705 -32.5771 70.6064 -31.1172c33.3281 1.93457 55.7061 26.7109 66.0771 41.3066c19.7061 27.7314 29.7852 64.6748 27.6553 101.358c-2.6582 45.7988 -24.3652 87.8555 -56.6494 109.757l-0.288086 0.197266l-129.249 89.0527l-1.65332 1.37012
c-38.1543 31.6152 -60.3359 75.1729 -62.459 122.65c-1.98633 44.4004 14.3213 87.1699 44.7402 117.341c15.8262 15.6982 34.7764 27.1816 56.3223 34.1338c20.0508 6.46875 41.3887 8.69141 63.4258 6.6123c43.0342 -4.06445 84.5615 -24.2764 116.934 -56.9131
l-71.9189 -84.71l-4.08301 1.47461c-1.99121 10.4111 -4.69141 22.9023 -23.1494 36.2803c-25.6621 11.6318 -53.1152 10.4434 -69.3291 -5.63867c-11.0576 -10.9668 -16.959 -27.0977 -16.1914 -44.2549c0.860352 -19.2549 10.0889 -37.3555 26.041 -51.1689
l125.382 -86.3877c57.4512 -39.0488 94.3818 -107.887 98.8105 -184.185z" />
    <glyph glyph-name="T" unicode="T" horiz-adv-x="384" 
d="M378.381 698.873l0.00195312 -124.094h-4.33984c-9.83691 16.5723 -60.8867 29.2422 -125.757 29.2422h-7.65723v-474.141c0 -20.2578 1.23633 -39.168 3.43945 -55.8965c4.8623 -36.7305 14.3994 -62.9043 25.7754 -69.6572v-0.186523
c0.0078125 -0.00585938 0.0166016 -0.0117188 0.0263672 -0.0175781v-4.33984l-156.329 -0.00390625v0.211914h-0.0273438v4.33984c16.5713 9.83887 29.2412 60.8887 29.2412 125.759v473.726h-7.65625c-64.8711 0 -115.921 -12.6709 -125.759 -29.2422h-4.33984v124.092z
" />
    <glyph glyph-name="T" unicode="t" horiz-adv-x="384" 
d="M378.381 698.873l0.00195312 -124.094h-4.33984c-9.83691 16.5723 -60.8867 29.2422 -125.757 29.2422h-7.65723v-474.141c0 -20.2578 1.23633 -39.168 3.43945 -55.8965c4.8623 -36.7305 14.3994 -62.9043 25.7754 -69.6572v-0.186523
c0.0078125 -0.00585938 0.0166016 -0.0117188 0.0263672 -0.0175781v-4.33984l-156.329 -0.00390625v0.211914h-0.0273438v4.33984c16.5713 9.83887 29.2412 60.8887 29.2412 125.759v473.726h-7.65625c-64.8711 0 -115.921 -12.6709 -125.759 -29.2422h-4.33984v124.092z
" />
    <glyph glyph-name="U" unicode="U" horiz-adv-x="486" 
d="M298.619 694.528l-0.00195312 4.34277h156.33v-4.33984c-16.5723 -9.83887 -29.2422 -60.8887 -29.2422 -125.759v-397.032c0 -100.92 -81.8115 -182.732 -182.731 -182.732h-0.000976562c-100.92 0 -182.732 81.8125 -182.732 182.732v397.032
c0 64.8711 -12.6699 115.921 -29.2422 125.758v4.33984h156.33v-4.33984c-16.5723 -9.83887 -29.2422 -60.8887 -29.2422 -125.759v-396.429c0 -46.8818 38.0059 -84.8877 84.8877 -84.8877h0.000976562c46.8818 0 84.8867 38.0049 84.8867 84.8877v396.428
c0 64.8711 -12.6699 115.921 -29.2422 125.758z" />
    <glyph glyph-name="U" unicode="u" horiz-adv-x="486" 
d="M298.619 694.528l-0.00195312 4.34277h156.33v-4.33984c-16.5723 -9.83887 -29.2422 -60.8887 -29.2422 -125.759v-397.032c0 -100.92 -81.8115 -182.732 -182.731 -182.732h-0.000976562c-100.92 0 -182.732 81.8125 -182.732 182.732v397.032
c0 64.8711 -12.6699 115.921 -29.2422 125.758v4.33984h156.33v-4.33984c-16.5723 -9.83887 -29.2422 -60.8887 -29.2422 -125.759v-396.429c0 -46.8818 38.0059 -84.8877 84.8877 -84.8877h0.000976562c46.8818 0 84.8867 38.0049 84.8867 84.8877v396.428
c0 64.8711 -12.6699 115.921 -29.2422 125.758z" />
    <glyph glyph-name="V" unicode="V" horiz-adv-x="489" 
d="M325.169 698.88h162.506v-4.2959l-0.0107422 -0.0439453c-18.2256 -9.4248 -42.3027 -56.6797 -58.5127 -117.672l-140.924 -576.879h-86.8623l-139.915 569.421c-16.1807 64.5713 -41.4756 115.325 -60.4385 125.131l-0.0117188 0.0439453v4.2959h158.749
l0.0830078 -4.33984c-8.2207 -16.4668 -13.2285 -48.4834 -4.31836 -98.126c0 0 80.041 -373.674 86.7686 -408.922c6.73145 35.4941 87.4014 409.583 87.4014 409.583c9.74805 51.3701 7.48828 89.042 -4.59863 97.4639z" />
    <glyph glyph-name="V" unicode="v" horiz-adv-x="489" 
d="M325.169 698.88h162.506v-4.2959l-0.0107422 -0.0439453c-18.2256 -9.4248 -42.3027 -56.6797 -58.5127 -117.672l-140.924 -576.879h-86.8623l-139.915 569.421c-16.1807 64.5713 -41.4756 115.325 -60.4385 125.131l-0.0117188 0.0439453v4.2959h158.749
l0.0830078 -4.33984c-8.2207 -16.4668 -13.2285 -48.4834 -4.31836 -98.126c0 0 80.041 -373.674 86.7686 -408.922c6.73145 35.4941 87.4014 409.583 87.4014 409.583c9.74805 51.3701 7.48828 89.042 -4.59863 97.4639z" />
    <glyph glyph-name="W" unicode="W" horiz-adv-x="733" 
d="M568.506 698.88h162.505v-4.29688l-0.0107422 -0.0439453c-18.2266 -9.4248 -42.3037 -56.6797 -58.5137 -117.672l-140.923 -576.879h-87.8604l-77.6982 414.586l-75.7822 -414.586h-88.8594l-139.915 569.422c-16.1807 64.5713 -41.4756 115.325 -60.4385 125.131
l-0.0117188 0.0439453v4.2959h158.749l0.0830078 -4.33984c-8.2207 -16.4668 -13.2285 -48.4834 -4.31836 -98.126c0 0 80.041 -373.674 86.7686 -408.922c4.13086 21.7812 92.7031 511.386 92.7031 511.386h59.1592c4.66309 -21.8311 87.4648 -490.376 91.4766 -511.386
c6.73047 35.4941 87.4004 409.583 87.4004 409.583c9.74902 51.3701 7.49023 89.042 -4.59766 97.4639z" />
    <glyph glyph-name="W" unicode="w" horiz-adv-x="733" 
d="M568.506 698.88h162.505v-4.29688l-0.0107422 -0.0439453c-18.2266 -9.4248 -42.3037 -56.6797 -58.5137 -117.672l-140.923 -576.879h-87.8604l-77.6982 414.586l-75.7822 -414.586h-88.8594l-139.915 569.422c-16.1807 64.5713 -41.4756 115.325 -60.4385 125.131
l-0.0117188 0.0439453v4.2959h158.749l0.0830078 -4.33984c-8.2207 -16.4668 -13.2285 -48.4834 -4.31836 -98.126c0 0 80.041 -373.674 86.7686 -408.922c4.13086 21.7812 92.7031 511.386 92.7031 511.386h59.1592c4.66309 -21.8311 87.4648 -490.376 91.4766 -511.386
c6.73047 35.4941 87.4004 409.583 87.4004 409.583c9.74902 51.3701 7.49023 89.042 -4.59766 97.4639z" />
    <glyph glyph-name="X" unicode="X" horiz-adv-x="458" 
d="M293.139 -0.0117188l0.0410156 3.20703c5.87988 5.88672 10.3008 20.4248 7.79102 38.8125c-2.51074 18.3867 -11.9521 40.623 -20.3125 65.7148c0 0 -48.9033 128.138 -53.5684 142.611c-4.99219 -15.0303 -31.2393 -84.1797 -54.8652 -146.003
c-8.05762 -23.7002 -16.7666 -44.7646 -19.1631 -62.3145c-2.50879 -18.3877 1.91211 -32.9258 7.79102 -38.8125l0.0390625 -3.2041l-154.89 -0.0107422l0.0126953 4.12109c9.07031 0 29.2148 21.5391 48.1914 59.0059l125.7 295.767
c-35.9082 85.2637 -114.774 272.21 -114.775 272.21c-19.6826 40.5869 -41.0947 63.665 -50.5654 63.665l-0.0126953 4.12109h158.667l-0.0400391 -3.20312c-5.87891 -5.88672 -10.3008 -20.4248 -7.79004 -38.8125c2.50977 -18.3867 11.9521 -40.623 20.3125 -65.7148
c0 0 29.2324 -76.5938 44.6504 -118.033c18.5186 49.2119 37.5146 99.5537 45.8711 121.423c8.05859 23.7002 16.7676 44.7646 19.1631 62.3145c2.50977 18.3877 -1.91113 32.9258 -7.79004 38.8125l-0.0400391 3.2041l154.89 0.0107422l-0.0126953 -4.12109
c-9.06934 0 -29.2148 -21.5391 -48.1914 -59.0059l-116.606 -274.369c7.93848 -18.8594 123.591 -293.609 123.591 -293.609c19.6826 -40.5869 41.0957 -63.665 50.5664 -63.665l0.0126953 -4.12109h-158.667z" />
    <glyph glyph-name="X" unicode="x" horiz-adv-x="458" 
d="M293.139 -0.0117188l0.0410156 3.20703c5.87988 5.88672 10.3008 20.4248 7.79102 38.8125c-2.51074 18.3867 -11.9521 40.623 -20.3125 65.7148c0 0 -48.9033 128.138 -53.5684 142.611c-4.99219 -15.0303 -31.2393 -84.1797 -54.8652 -146.003
c-8.05762 -23.7002 -16.7666 -44.7646 -19.1631 -62.3145c-2.50879 -18.3877 1.91211 -32.9258 7.79102 -38.8125l0.0390625 -3.2041l-154.89 -0.0107422l0.0126953 4.12109c9.07031 0 29.2148 21.5391 48.1914 59.0059l125.7 295.767
c-35.9082 85.2637 -114.774 272.21 -114.775 272.21c-19.6826 40.5869 -41.0947 63.665 -50.5654 63.665l-0.0126953 4.12109h158.667l-0.0400391 -3.20312c-5.87891 -5.88672 -10.3008 -20.4248 -7.79004 -38.8125c2.50977 -18.3867 11.9521 -40.623 20.3125 -65.7148
c0 0 29.2324 -76.5938 44.6504 -118.033c18.5186 49.2119 37.5146 99.5537 45.8711 121.423c8.05859 23.7002 16.7676 44.7646 19.1631 62.3145c2.50977 18.3877 -1.91113 32.9258 -7.79004 38.8125l-0.0400391 3.2041l154.89 0.0107422l-0.0126953 -4.12109
c-9.06934 0 -29.2148 -21.5391 -48.1914 -59.0059l-116.606 -274.369c7.93848 -18.8594 123.591 -293.609 123.591 -293.609c19.6826 -40.5869 41.0957 -63.665 50.5664 -63.665l0.0126953 -4.12109h-158.667z" />
    <glyph glyph-name="Y" unicode="Y" horiz-adv-x="440" 
d="M288.976 698.869l154.891 0.0136719l-0.0126953 -4.12109c-9.07031 0 -29.2148 -21.5391 -48.1914 -59.0059l-126.806 -299.045v-206.667c0 -64.8711 12.6699 -115.921 29.2412 -125.759v-4.33984h-156.329v4.33984c16.5703 9.83691 29.2393 60.8779 29.2422 125.738
v206.296c-39.3369 93.3418 -124.43 294.774 -124.43 294.774c-19.6826 40.5869 -41.0957 63.665 -50.5664 63.665l-0.0126953 4.12109h158.667l-0.0390625 -3.20312c-5.87988 -5.88672 -10.3008 -20.4248 -7.79102 -38.8125
c2.51074 -18.3867 56.583 -162.109 74.5264 -210.154c19.1582 50.7021 73.0439 192.593 75.4404 210.143c2.50879 18.3877 -1.91211 32.9258 -7.79102 38.8125z" />
    <glyph glyph-name="Y" unicode="y" horiz-adv-x="440" 
d="M288.976 698.869l154.891 0.0136719l-0.0126953 -4.12109c-9.07031 0 -29.2148 -21.5391 -48.1914 -59.0059l-126.806 -299.045v-206.667c0 -64.8711 12.6699 -115.921 29.2412 -125.759v-4.33984h-156.329v4.33984c16.5703 9.83691 29.2393 60.8779 29.2422 125.738
v206.296c-39.3369 93.3418 -124.43 294.774 -124.43 294.774c-19.6826 40.5869 -41.0957 63.665 -50.5664 63.665l-0.0126953 4.12109h158.667l-0.0390625 -3.20312c-5.87988 -5.88672 -10.3008 -20.4248 -7.79102 -38.8125
c2.51074 -18.3867 56.583 -162.109 74.5264 -210.154c19.1582 50.7021 73.0439 192.593 75.4404 210.143c2.50879 18.3877 -1.91211 32.9258 -7.79102 38.8125z" />
    <glyph glyph-name="Z" unicode="Z" horiz-adv-x="422" 
d="M410.87 698.925l-0.000976562 -0.00976562v-4.33984c-0.775391 -0.459961 -1.62598 -1.02148 -2.52734 -1.65918c0 0 -177.922 -426.657 -248.78 -598.062l78.8896 -0.0585938c64.8701 0 115.92 12.6699 125.758 29.2412h4.33984v-124.092h-357.549
c0.000976562 0.00390625 0.00292969 0.0078125 0.00390625 0.0107422h-0.00390625v4.33984c0.773438 0.458984 1.62402 1.02051 2.52344 1.65723c45.2266 107.61 178.426 424.647 250.794 598.062l-80.8984 0.0605469c-64.8711 0 -115.921 -12.6699 -125.759 -29.2412
h-4.33984v124.091h357.55z" />
    <glyph glyph-name="Z" unicode="z" horiz-adv-x="422" 
d="M410.87 698.925l-0.000976562 -0.00976562v-4.33984c-0.775391 -0.459961 -1.62598 -1.02148 -2.52734 -1.65918c0 0 -177.922 -426.657 -248.78 -598.062l78.8896 -0.0585938c64.8701 0 115.92 12.6699 125.758 29.2412h4.33984v-124.092h-357.549
c0.000976562 0.00390625 0.00292969 0.0078125 0.00390625 0.0107422h-0.00390625v4.33984c0.773438 0.458984 1.62402 1.02051 2.52344 1.65723c45.2266 107.61 178.426 424.647 250.794 598.062l-80.8984 0.0605469c-64.8711 0 -115.921 -12.6699 -125.759 -29.2412
h-4.33984v124.091h357.55z" />
    <glyph glyph-name="bracketleft" unicode="[" horiz-adv-x="310" 
d="M78.2412 568.781c0 64.8711 -12.6709 115.923 -29.2412 125.759v4.33984h227.927v-78.875h-105.832v-640.983h105.832v-78.875h-227.927v4.33984c16.5713 9.83789 29.2412 60.8877 29.2412 125.759v538.536z" />
    <glyph glyph-name="backslash" unicode="\" horiz-adv-x="364" 
d="M389.137 -89.8691l-144.905 0.0107422l0.0390625 3.2041c2.93848 2.94336 5.51367 8.04883 7.04102 14.7168c2.72168 11.8838 1.12012 21.5566 0.75 24.0947c-1.38965 9.51758 -208.498 710.464 -226.245 760.117s-43.7324 72.3408 -52.8027 72.3408l-0.0126953 4.12109
l144.905 -0.0107422l-0.0390625 -3.2041c-2.93945 -2.94336 -5.51465 -8.04883 -7.04199 -14.7168c-2.72168 -11.8838 -1.11914 -21.5566 -0.749023 -24.0947c1.38965 -9.51758 208.497 -710.464 226.245 -760.117c17.7461 -49.6533 43.7324 -72.3408 52.8027 -72.3408z" />
    <glyph glyph-name="bracketright" unicode="]" horiz-adv-x="310" 
d="M260.928 694.54c-16.5723 -9.83594 -29.2422 -60.8877 -29.2422 -125.759v-538.536c0 -64.8711 12.6699 -115.921 29.2422 -125.759v-4.33984h-227.928v78.875h105.832v640.983h-105.832v78.875h227.928v-4.33984z" />
    <glyph glyph-name="underscore" unicode="_" horiz-adv-x="546" 
d="M489.789 -137.486h-433.789v74.3662h433.789v-74.3662z" />
    <glyph glyph-name="grave" unicode="`" horiz-adv-x="259" 
d="M146.988 697.03l80.4043 -130.842h-71.666l-126.727 130.842h117.988z" />
    <glyph glyph-name="braceleft" unicode="{" horiz-adv-x="304" 
d="M44 297.583v6.27637c29.9521 0 49.9209 56.5605 49.9209 127.448v67.8926c0 138.78 39.9365 210.666 201.68 210.666v-10.0391c-89.8574 -9.98438 -104.834 -40.9355 -104.834 -122.806v-120.754c0 -93.8516 -19.9688 -134.787 -79.874 -155.754
c59.9053 -20.9668 79.874 -131.292 79.874 -225.144v-54.9131c0 -81.8701 14.9766 -109.826 104.834 -119.811v-10.4834c-161.743 0 -201.68 69.2236 -201.68 210.666v68.8906c0 70.8877 -19.9688 127.863 -49.9209 127.863z" />
    <glyph glyph-name="verticalbar" unicode="|" horiz-adv-x="187" 
d="M152.817 -181.465v-3.29883h-118.817v3.29883c12.5947 7.47656 22.2256 46.2773 22.2256 95.5811v785.681c0 49.3037 -9.63086 88.1055 -22.2256 95.582v3.29883h118.817v-3.29883c-12.5947 -7.47656 -22.2256 -46.2783 -22.2256 -95.582v-785.681
c0 -49.3027 9.63086 -88.1045 22.2256 -95.5811z" />
    <glyph glyph-name="braceright" unicode="}" horiz-adv-x="304" 
d="M259.601 303.857v-6.27734c-29.9521 0 -49.9209 -56.9756 -49.9209 -127.863v-68.8906c0 -141.442 -39.9365 -210.666 -201.68 -210.666v10.4834c89.8574 9.98438 104.834 37.9404 104.834 119.811v54.9131c0 93.8516 19.9688 204.177 79.874 225.144
c-59.9053 20.9668 -79.874 61.9023 -79.874 155.754v120.754c0 81.8701 -14.9766 112.821 -104.834 122.806v10.04c161.743 0 201.68 -71.8857 201.68 -210.666v-67.8926c0 -70.8877 19.9688 -127.448 49.9209 -127.448z" />
    <glyph glyph-name="asciitilde" unicode="~" horiz-adv-x="552" 
d="M48.8887 351.88c-0.0195312 -0.176758 -0.0410156 -0.369141 -0.0644531 -0.558594c0.0166016 0.148438 0.0380859 0.336914 0.0644531 0.558594zM48.7852 350.979c0.00488281 0.0400391 0.0078125 0.0742188 0.0126953 0.114258
c-0.0078125 -0.0722656 -0.0126953 -0.114258 -0.0126953 -0.114258zM49.3086 355.491c0.0234375 0.206055 0.0361328 0.318359 0.0419922 0.357422c-0.00488281 -0.0371094 -0.0185547 -0.161133 -0.0419922 -0.357422zM48.9746 352.61
c0.0634766 0.550781 0.118164 1.02246 0.164062 1.41895c-0.0537109 -0.466797 -0.111328 -0.962891 -0.164062 -1.41895zM503.205 432.369c-0.0214844 -0.189453 -0.0449219 -0.381836 -0.0654297 -0.558594c0.0253906 0.22168 0.0488281 0.410156 0.0654297 0.558594z
M503.23 432.598c0.00390625 0.0400391 0.0078125 0.0732422 0.0126953 0.114258c0 0 -0.00488281 -0.0419922 -0.0126953 -0.114258zM502.721 428.197c-0.0234375 -0.196289 -0.0371094 -0.321289 -0.0419922 -0.358398
c0.00488281 0.0390625 0.0175781 0.15332 0.0419922 0.358398zM503.054 431.076c-0.0527344 -0.455078 -0.109375 -0.951172 -0.164062 -1.41992c0.0458984 0.396484 0.100586 0.869141 0.164062 1.41992zM393.496 473.205h123.531v-3.10059
c-6.47266 0 -10.7119 -10.8711 -13.7852 -37.3955c-13.0479 -81.5752 -66.3594 -123.229 -132.395 -123.229c-33.3701 0 -59.9238 7.67578 -94.834 24.7812v0.000976562c-12.5459 6.38086 -26.1074 13.8252 -41.2119 22.4277
c-18.3447 10.5635 -26.0078 15.8447 -40.1191 15.8447c-17.999 0 -30.8906 -6.42285 -39.2295 -23.1162c-8.54102 -17.0977 -1.32617 -35.8389 3.0791 -35.8389v-3.10156h-123.532v3.10059c6.47266 0 10.7119 10.8711 13.7852 37.3955
c13.0479 81.5752 66.3594 123.229 132.395 123.229c33.3701 0 59.9238 -7.67578 94.835 -24.7812v-0.000976562c12.5459 -6.38086 26.1074 -13.8252 41.2119 -22.4277c18.3447 -10.5635 26.0078 -15.8447 40.1191 -15.8447c17.999 0 30.8906 6.42285 39.2295 23.1162
c8.54102 17.0977 1.32617 35.8389 -3.0791 35.8389v3.10156z" />
    <glyph glyph-name="nonbreakingspace" unicode="&#xa0;" horiz-adv-x="264" 
 />
    <glyph glyph-name="exclamdown" unicode="&#xa1;" horiz-adv-x="229" 
d="M114.165 337.051c-38.9385 0 -69.8896 31.9492 -69.8896 70.8877s30.9512 69.8896 69.8896 69.8896s69.8896 -30.9512 69.8896 -69.8896s-30.9512 -70.8877 -69.8896 -70.8877zM192.329 -227.695v-4.34082h-156.329v4.33984
c16.5723 9.83887 29.2422 60.8877 29.2422 125.759l15.0605 367.103h65.2188l17.5654 -367.102c0 -64.8711 12.6709 -115.92 29.2422 -125.759z" />
    <glyph glyph-name="cent" unicode="&#xa2;" horiz-adv-x="417" 
d="M367.251 249.362v-133.457c-23.334 -11.2188 -60.7656 -18.0898 -94.6143 -19.7783c0.494141 -47.4307 9.94141 -84.3896 22.2012 -91.667v-3.29883h-118.815v3.29883c12.5947 7.47656 22.2256 46.2773 22.2256 95.5811v2.26855
c-106.093 25.7451 -152.248 124.221 -152.248 246.425c0 121.841 46.6133 221.113 152.248 247.513v3.75c0 49.3027 -9.63086 88.1045 -22.2256 95.5811v3.29883h118.815v-3.29883c-12.3555 -7.33301 -21.8525 -44.8223 -22.208 -92.791
c32.251 -1.5918 64.418 -8.25195 87.6318 -19.1895v-121.942h-5.70508c-17.5732 35.4492 -53.8496 47.1709 -98.8896 47.1709c-84.8652 0 -108.827 -67.3145 -108.827 -158.684s27.9561 -162.086 112.821 -162.086c43.8438 0 85.6719 24.7676 102.355 61.3057h5.23438z" />
    <glyph glyph-name="sterling" unicode="&#xa3;" horiz-adv-x="516" 
d="M465.099 124.088l4.34277 -0.000976562v-124.092l-27.873 0.000976562v-0.0078125h-371.411v4.3457c50.7031 59.1475 84.0127 181.951 81.8564 278.041h-7.12988c-49.3027 0 -88.1045 -9.63086 -95.5811 -22.2256h-3.29883v118.816h3.29883
c7.2666 -12.2402 44.126 -21.6797 91.4561 -22.2002c-5.82617 22.6367 -13.9473 52.4922 -18.6836 62.5576c-14.9766 29.9521 -26.958 72.8838 -26.958 113.819c0 108.827 66.8936 176.72 180.713 176.72c3.08789 0 6.10645 -0.0458984 9.09277 -0.114258v0.078125
c81.4482 -0.739258 134.764 -37.3936 181.213 -84.8311l-47.3252 -130.46l-5.32227 2.05273c1.34375 41.5264 -24.4492 74.1982 -51.875 92.0059c-18.8643 12.0322 -37.7646 19.8223 -57.8154 22.4365v-0.59668c-9.00391 1.11914 -18.8135 1.58398 -29.9648 1.58398
c-48.9229 0 -78.875 -31.9492 -78.875 -79.873c0 -34.9443 10.9824 -67.8916 23.9619 -98.8428c6.55078 -14.4111 16.2432 -52.2441 22.1348 -76.5615h41.1299c49.3027 0 88.1045 9.63086 95.5811 22.2256h3.29883v-118.816h-3.29883
c-7.47656 12.5947 -46.2773 22.2256 -95.5811 22.2256h-33.9873c0.417969 -56.5283 -4.56543 -127.867 -24.2383 -187.529h115.382c64.8711 0 115.921 12.6699 125.758 29.2422z" />
    <glyph glyph-name="yen" unicode="&#xa5;" horiz-adv-x="524" 
d="M330.975 698.914l154.891 0.0126953l-0.0126953 -4.12012c-9.07031 0 -29.2148 -21.541 -48.1914 -59.0068l-73.6621 -173.718c32.7139 3.22363 56.4873 11.0762 62.167 20.6455h3.29883v-118.817h-3.29883c-7.41406 12.4922 -45.6475 22.0625 -94.373 22.2197
l-20.9365 -49.374v-24.0186h19.7295c49.3027 0 88.1045 9.63086 95.5811 22.2256h3.29883v-118.817h-3.29883c-7.47656 12.5947 -46.2773 22.2256 -95.5811 22.2256h-19.7295v-108.285c0 -64.8701 12.6709 -115.919 29.2422 -125.758v-4.33984h-156.329v4.33984
c16.5703 9.83594 29.2402 60.8779 29.2422 125.738v108.303h-19.7285c-49.3027 0 -88.1045 -9.63086 -95.5811 -22.2256h-3.29883v118.817h3.29883c7.47656 -12.5947 46.2773 -22.2256 95.5811 -22.2256h19.7285v23.6279
c-6.06641 14.3955 -13.2217 31.3633 -20.9844 49.7637c-48.7041 -0.163086 -86.9131 -9.72949 -94.3252 -22.2178h-3.29883v118.817h3.29883c5.68652 -9.58008 29.5059 -17.4395 62.2744 -20.6562c-35.793 84.79 -71.3955 169.067 -71.3955 169.067
c-19.6836 40.5879 -41.0957 63.666 -50.5664 63.666l-0.0126953 4.12109h158.667l-0.0400391 -3.20312c-5.87891 -5.88672 -10.3008 -20.4258 -7.79004 -38.8125s56.583 -162.109 74.5264 -210.154c19.1572 50.7031 73.043 192.593 75.4395 210.143
c2.50977 18.3877 -1.91113 32.9258 -7.79004 38.8125z" />
    <glyph glyph-name="section" unicode="&#xa7;" horiz-adv-x="536" 
d="M490.201 242.21c5.4502 -58.9805 -8.68848 -117.409 -39.8086 -164.52c-14.3896 -21.7998 -31.6992 -40.0098 -51.499 -54.25c1.88965 -8.07031 3.18945 -16.3301 3.84961 -24.7305c3.5 -44.3096 -11.3398 -87.6094 -40.71 -118.8
c-15.2803 -16.2305 -33.8301 -28.3506 -55.1201 -36.0303c-19.8203 -7.15039 -41.0703 -10.1006 -63.1699 -8.77051c-43.1504 2.58984 -85.3408 21.3799 -118.801 52.8896l68.9902 87.1104l4.12988 -1.33008c2.33984 -10.3398 5.46973 -22.7295 24.3701 -35.4697
c26.04 -10.75 53.4404 -8.62988 69.1006 8c10.5596 11.2197 15.8994 27.3193 14.6992 44.2393c-0.00976562 0.179688 -0.00976562 0.359375 -0.0292969 0.539062c-1.51953 19.21 -11.3594 36.9902 -27.7695 50.25l-128.25 82.0596
c-7.66992 4.83984 -14.9902 10.2002 -21.96 16.0303c-46.4805 38.8203 -76.9707 98.5 -83.0811 164.68c-5.44043 58.9805 8.68945 117.41 39.8096 164.521c14.4004 21.7998 31.71 40.0098 51.5098 54.25c-1.88965 8.07031 -3.18945 16.3203 -3.85938 24.7305
c-3.5 44.2998 11.3398 87.5996 40.7197 118.79c15.2803 16.2305 33.8301 28.3604 55.1201 36.04c19.8203 7.15039 41.0703 10.1006 63.1699 8.77051c43.1396 -2.58984 85.3301 -21.3799 118.8 -52.8896l-68.9902 -87.1201l-4.12988 1.33984
c-2.33984 10.3398 -5.46973 22.7295 -24.3701 35.4697c-26.0498 10.75 -53.4395 8.62012 -69.0996 -8c-10.5703 -11.2197 -15.9004 -27.3193 -14.7002 -44.249c0.00976562 -0.179688 0.00976562 -0.349609 0.0292969 -0.529297
c1.50977 -19.21 11.3496 -36.9902 27.7695 -50.25l128.25 -82.0596c7.66016 -4.83984 14.9902 -10.2002 21.96 -16.0303c46.4697 -38.8203 76.96 -98.5107 83.0703 -164.681zM202.232 205.071c0 0 143.049 -93.3311 147.289 -97.3008
c8.99023 7.91992 15.6807 16.6504 20.0605 23.29c18.75 28.3896 27.5703 65.6494 24.1904 102.239c-4.21973 45.6797 -27.3496 86.9795 -60.3594 107.76l-0.290039 0.19043s-143.05 93.3301 -147.29 97.29c-8.99023 -7.91992 -15.6807 -16.6396 -20.0703 -23.2793
c-18.75 -28.3896 -27.5596 -65.6592 -24.1797 -102.239c4.21973 -45.6904 27.3496 -86.9805 60.3594 -107.771z" />
    <glyph glyph-name="dieresis" unicode="&#xa8;" horiz-adv-x="332" 
d="M89.0605 685.051c28.8408 0 54.1865 -25.3457 54.1865 -55.0605c0 -28.8408 -25.3457 -54.1865 -54.1865 -54.1865c-29.7148 0 -55.0605 25.3457 -55.0605 54.1865c0 29.7148 25.3457 55.0605 55.0605 55.0605zM243.755 685.051
c28.8408 0 54.1865 -25.3457 54.1865 -55.0605c0 -28.8408 -25.3447 -54.1865 -54.1865 -54.1865c-29.7148 0 -55.0605 25.3457 -55.0605 54.1865c0 29.7148 25.3447 55.0605 55.0605 55.0605z" />
    <glyph glyph-name="copyright" unicode="&#xa9;" horiz-adv-x="628" 
d="M281.889 92.498l2.32031 28.1201l2.32031 -28.1201h-4.64062zM236.776 127.395c0.984375 0 1.78223 -0.797852 1.78223 -1.78223v-13.7363c0 -0.985352 -0.797852 -1.7832 -1.78223 -1.7832h-1.30957v17.3018h1.30957zM317.306 299.867
c2.12988 0.40918 3.99023 -1.21191 3.99023 -3.2666l0.0244141 -81.7266c0 -1.85254 -1.50195 -3.35449 -3.35449 -3.35449c-1.83984 0 -3.33105 1.49121 -3.33105 3.33105v81.626c0 1.61035 1.08887 3.08691 2.6709 3.39062zM310.622 127.396
c0.984375 0 1.78223 -0.797852 1.78223 -1.7832v-39.0879c0 -0.984375 -0.797852 -1.78223 -1.78223 -1.78223h-1.83398v42.6533h1.83398zM144.188 458.921c2.11621 0 3.83008 -1.7168 3.83105 -3.83398v-32.9131c0 -2.11621 -1.71484 -3.83105 -3.83105 -3.83105h-2.81543
v40.5781h2.81543zM426.63 520.171c-1.9541 0 -3.53711 1.58398 -3.53711 3.53809v86.6533c0 1.70996 1.15625 3.27734 2.83594 3.59961c2.26074 0.433594 4.23633 -1.28809 4.23633 -3.46973l0.0244141 -86.7607c0 -1.9668 -1.59277 -3.56055 -3.55957 -3.56055z
M521.494 698.927c27.6133 0 49.998 -22.3838 49.998 -49.9971v-598.932c0 -27.6133 -22.3848 -49.998 -49.998 -49.998h-415.497c-27.6133 0 -49.998 22.3857 -49.998 49.998v598.931c0 27.6133 22.3848 49.998 49.998 49.998h415.497zM463.342 627.287
l0.000976562 -120.199h16.2227v54.5039h0.495117l7.5918 -54.5039h16.0645l-9.35938 57.2197c5.36035 3.31934 8.30176 9.58398 8.30176 18.292v20.4121c0 15.2012 -7.47559 24.2754 -19.9971 24.2754h-19.3203zM467.297 353.141l-13.9355 120.199h-19.3135
l-13.9355 -120.199h16.0664l1.36914 16.6064h12.3115l1.37207 -16.6064h16.0654zM406.981 605.206l0.000976562 -77.3076c0 -13.1055 7.85449 -21.9111 19.5449 -21.9111c11.959 0 19.9961 8.26172 19.9961 20.5596v82.04c0 11.8262 -7.80957 19.7705 -19.4336 19.7705
c-12.5918 0 -20.1084 -8.65527 -20.1084 -23.1514zM393.166 627.286h-32.8955v-120.199h16.4473v60.834h13.4053v14.417h-13.4053v30.3047h16.4482v14.6436zM310.624 627.286l-33.1201 -0.000976562v-120.2h33.6836v14.3086h-17.3486v40.7793h12.6172v14.3076h-12.6172
v36.2744h16.7852v14.5312zM287.968 474.426c-12.5908 0 -20.1035 -8.65137 -20.1045 -23.1475l0.00976562 -8.65625c0.0126953 -11.5459 3.19336 -19.4248 12.166 -29.6865c7.01758 -8.03027 8.89941 -10.5586 10.0625 -13.5166
c0.741211 -1.9043 1.04199 -3.63574 1.19141 -7.26074v-22.377c0 -1.95312 -1.58301 -3.53809 -3.53613 -3.53809h-0.000976562c-1.94434 -0.00292969 -3.5332 1.56348 -3.55566 3.50781l-0.00292969 19.3564h-16.335v-16.4902
c0 -12.2979 8.03516 -20.5596 19.9951 -20.5596c11.6914 0 19.5449 8.80566 19.5449 21.9111v15.6338c-0.000976562 6.90234 -0.791992 11.9697 -2.54297 16.373c-1.50586 4.29102 -3.02734 6.73926 -7.43848 11.9434c-0.707031 0.777344 -2.70898 2.88867 -2.70898 2.88867
c-2.48047 2.71777 -4.72852 5.87891 -6.59473 8.74609c-2.53027 3.66016 -4.05762 9.06738 -4.14453 14.5479v12.3311c-0.000976562 1.70898 1.1543 3.27734 2.83496 3.59863c2.26172 0.43457 4.23633 -1.28711 4.23633 -3.46973l0.0205078 -16.4346h16.3369v14.5273
c0 11.8252 -7.80957 19.7715 -19.4336 19.7715zM262.22 627.288l-33.1201 -0.000976562v-120.2h33.6836v14.3086h-17.3486v40.7793h12.6172v14.3076h-12.6172v36.2744h16.7852v14.5312zM218.184 473.341l0.000976562 -120.199h16.2227v54.5039h0.494141l7.5918 -54.5039
h16.0645l-9.35938 57.2197c5.36133 3.31934 8.30273 9.58398 8.30273 18.292v20.4121c0 15.2012 -7.47656 24.2754 -19.9971 24.2754h-19.3203zM173.048 627.288l0.000976562 -120.199h16.2217v54.5039h0.495117l7.5918 -54.5039h16.0645l-9.35938 57.2197
c5.36133 3.31934 8.30273 9.58398 8.30273 18.292v20.4121c0 15.2012 -7.47656 24.2754 -19.9971 24.2754h-19.3203zM203.364 408.229v14.3057h-12.6162v36.2744h16.7852v14.5312h-33.1211v-120.199h33.6836v14.3086h-17.3486v40.7793h12.6172zM158.837 627.286h-32.8955
v-120.199h16.4473v60.834h13.4053v14.417h-13.4053v30.3047h16.4482v14.6436zM139.717 87.8818l-0.00488281 7.27246c0 3.20996 -0.369141 5.56738 -1.18262 7.61523c-0.700195 1.99609 -1.4082 3.13574 -3.46094 5.55566
c-0.328125 0.361328 -1.25977 1.34375 -1.25977 1.34375c-1.15332 1.26367 -2.19922 2.73438 -3.06641 4.06836c-1.17676 1.70215 -1.8877 4.2168 -1.92773 6.76562v5.73633c-0.000976562 0.795898 0.536133 1.52441 1.31836 1.67383
c1.05273 0.202148 1.97168 -0.598633 1.97168 -1.61328l0.00976562 -7.64453h7.59863v6.75684c0 5.5 -3.63281 9.19629 -9.03906 9.19629c-5.85645 0 -9.35254 -4.02539 -9.35254 -10.7676l0.00488281 -4.02637c0.00585938 -5.37012 1.48535 -9.03516 5.65918 -13.8086
c3.26367 -3.73438 4.13965 -4.91016 4.68066 -6.28613c0.344727 -0.885742 0.484375 -1.69141 0.554688 -3.37793v-10.4072c0 -0.908203 -0.735352 -1.64551 -1.64355 -1.64551h-0.000976562c-0.902344 -0.000976562 -1.6416 0.726562 -1.65234 1.63086
l-0.000976562 9.00195h-7.59766v-7.66992c0 -5.71973 3.7373 -9.5625 9.30078 -9.5625c5.4375 0 9.09082 4.09668 9.09082 10.1924zM122.403 218.799c0 -12.3447 7.39746 -20.6387 18.4092 -20.6377c11.2656 0 18.8369 7.78223 18.8369 19.3662v94.8936h-15.4043
l0.0185547 -97.0176c0 -0.102539 -0.0166016 -0.195312 -0.0224609 -0.295898v-0.253906c0 -1.06738 -0.509766 -2.00586 -1.28809 -2.61523c-0.0449219 -0.0371094 -0.0888672 -0.0742188 -0.133789 -0.111328
c-0.0517578 -0.0371094 -0.106445 -0.0664062 -0.15918 -0.100586c-0.322266 -0.212891 -0.677734 -0.363281 -1.06836 -0.4375c-0.0683594 -0.0126953 -0.139648 -0.0117188 -0.208984 -0.0214844c-0.119141 -0.0136719 -0.233398 -0.0400391 -0.357422 -0.0400391
l-0.0136719 0.00195312c-0.0361328 -0.000976562 -0.0703125 -0.00976562 -0.103516 -0.00976562c-1.84082 0 -3.33105 1.49121 -3.33105 3.33105v97.5684h-15.1738v-93.6201zM147.036 78.1973h15.668v6.65332h-8.06934v18.9678h5.86914v6.65527h-5.86914v16.8721h7.80762
v6.75977h-15.4062v-55.9082zM164.351 425.275l0.000976562 23.792c0 15.2002 -7.47656 24.2744 -19.9961 24.2744h-19.3203v-120.199h16.2227v51.123h4.22363c11.9932 0 18.8691 7.6582 18.8691 21.0098zM168.842 78.1973h15.668v6.65332h-8.07031v18.9678h5.86914v6.65527
h-5.86914v16.8721h7.80762v6.75977h-15.4053v-55.9082zM173.26 217.541c0 -11.584 7.56738 -19.3691 18.835 -19.3701c11.0127 0 18.4111 8.2959 18.4111 20.6406v14.7266c-0.000976562 6.50195 -0.746094 11.2754 -2.39551 15.4229
c-1.41797 4.04297 -2.85254 6.34863 -7.00781 11.251c-0.666016 0.732422 -2.55078 2.72266 -2.55078 2.72266c-2.33594 2.55957 -4.4541 5.53809 -6.21094 8.23926c-2.38379 3.44727 -3.82227 8.54102 -3.9043 13.7031v11.6152
c-0.000976562 1.61133 1.08691 3.08789 2.66992 3.3916c2.12988 0.408203 3.99023 -1.21289 3.99023 -3.26758l0.0195312 -15.4814h15.3896v13.6846c0 11.1387 -7.35645 18.625 -18.3047 18.625c-11.8613 0 -18.9424 -8.15234 -18.9424 -21.8076l0.00878906 -8.1543
c0.0126953 -10.877 3.00879 -18.2979 11.46 -27.9648c6.61133 -7.56445 8.38379 -9.94531 9.48047 -12.7314c0.697266 -1.79297 0.979492 -3.4248 1.12207 -6.83984v-21.0781c0 -1.83984 -1.49121 -3.33203 -3.33105 -3.33203h-0.000976562
c-1.83008 -0.00195312 -3.32715 1.47363 -3.34766 3.30469c-0.00292969 0.1875 -0.00292969 11.2314 -0.00390625 18.2334h-15.3867v-15.5332zM208.568 123.672c1.80176 1.63086 2.73535 3.69824 2.73535 6.07812c0 3.17578 -1.59766 5.1748 -4.05957 5.19922
c-1.98828 0.0195312 -3.60547 -1.40039 -3.86523 -3.38672c-0.186523 -1.43164 0.339844 -2.69531 1.45605 -3.58008c1.12012 -0.886719 1.55957 -2.44336 0.810547 -3.66406c-0.405273 -0.65918 -0.995117 -1.11523 -1.93164 -1.58594l0.68457 -1.31543
c2.17773 0.751953 2.98633 1.25293 4.16992 2.25488zM218.105 123.673c1.80176 1.63086 2.7373 3.69824 2.7373 6.07812c0 3.17578 -1.59766 5.1748 -4.06055 5.19922c-1.98828 0.0195312 -3.60547 -1.40039 -3.86426 -3.38672
c-0.186523 -1.43164 0.338867 -2.69531 1.45508 -3.58008c1.12109 -0.886719 1.55957 -2.44336 0.811523 -3.66406c-0.405273 -0.65918 -0.995117 -1.11523 -1.93066 -1.58594l0.68457 -1.31543c2.17773 0.751953 2.98633 1.25293 4.16699 2.25488zM224.403 312.42v-113.227
h31.7285v13.4785h-16.3418v38.4131h11.8848v13.4775h-11.8848v34.1699h15.8115v13.6875h-31.1982zM239.171 78.1963l7.47266 -0.000976562l-4.35352 26.6152c2.49316 1.54395 3.8623 4.45801 3.8623 8.50879v9.49414c0 7.06934 -3.47754 11.291 -9.30176 11.291h-8.98535
v-55.9082h7.54492v25.3516h0.230469zM253.663 78.1953h15.668v6.65332h-8.06934v18.9678h5.86914v6.65527h-5.86914v16.8721h7.80762v6.75977h-15.4062v-55.9082zM287.706 78.1953h7.47363l-6.48242 55.9092h-8.98242l-6.48145 -55.9092h7.47168l0.637695 7.72461h5.72559z
M319.998 87.9678l-0.000976562 34.8438c0 7.07031 -3.47754 11.292 -9.30176 11.292h-9.50977v-55.9082h10.0352c5.57812 0 8.77734 3.5625 8.77734 9.77246zM336.701 217.525l0.000976562 77.2793c0 11.1396 -7.35645 18.624 -18.3047 18.624
c-11.8613 0 -18.9424 -8.15234 -18.9424 -21.8076v-72.8213c0 -12.3447 7.39844 -20.6406 18.4102 -20.6406c11.2646 0 18.8359 7.78223 18.8359 19.3662zM318.411 373.953c0 -13.1055 7.85547 -21.9111 19.5459 -21.9111c11.959 0 19.9961 8.26172 19.9961 20.5596v82.04
c0 11.8262 -7.80957 19.7705 -19.4336 19.7705c-12.5928 0 -20.1084 -8.65527 -20.1084 -23.1514v-77.3076zM367.372 78.1953l0.000976562 55.9092h-6.34375l-6.38379 -23.4072l-6.30469 23.4072h-6.42188v-55.9082h7.5459v28.4229l3.45703 -12.127h3.18164l3.72266 12.9971
v-29.2939h7.5459zM365.467 252.526c1.12988 -3.72363 8.625 -47.2314 9.6748 -53.332h13.833v113.233h-14.3271v-51.1162l0.287109 -3.19824l-9.89746 54.3135h-13.6279v-113.232h14.3252v50.2295zM375.626 78.1963l15.668 0.000976562v6.65332h-8.06934v18.9678h5.86914
v6.65527h-5.86914v16.8721h7.80762v6.75879h-15.4062v-55.9082zM385.059 409.76c1.2002 -3.95312 9.15527 -50.1406 10.2666 -56.6172h14.6865v120.207h-15.209v-54.2637l0.305664 -3.39453l-10.5059 57.6582h-14.4678v-120.207h15.207v53.3232zM401.377 123.676
c1.80273 1.63086 2.7373 3.69824 2.7373 6.07812c0 3.17578 -1.59766 5.1748 -4.06055 5.19922c-1.98828 0.0195312 -3.60547 -1.40039 -3.86426 -3.38672c-0.186523 -1.43164 0.338867 -2.69531 1.45508 -3.58008c1.12109 -0.886719 1.55957 -2.44336 0.811523 -3.66406
c-0.40625 -0.65918 -0.996094 -1.11523 -1.93164 -1.58594l0.68457 -1.31543c2.17773 0.751953 2.98633 1.25293 4.16797 2.25488zM410.916 123.677c1.80176 1.63086 2.73633 3.69824 2.73633 6.07812c0 3.17578 -1.59766 5.1748 -4.05957 5.19922
c-1.98926 0.0195312 -3.60547 -1.40039 -3.86523 -3.38672c-0.186523 -1.43164 0.338867 -2.69531 1.45605 -3.58008c1.12012 -0.886719 1.55957 -2.44336 0.811523 -3.66406c-0.405273 -0.65918 -0.996094 -1.11523 -1.93164 -1.58594l0.68457 -1.31543
c2.17773 0.751953 2.98633 1.25293 4.16797 2.25488zM434.223 199.199v13.583h-14.9609v99.6416h-15.2812v-113.225h30.2422zM449.951 127.298l0.000976562 6.81152h-15.2998v-55.9092h7.64941v28.2959h6.23535v6.70605h-6.23535v14.0957h7.64941zM463.045 78.2012v55.9082
h-7.5459v-55.9082h7.5459zM448.938 199.2l15.2803 -0.000976562v53.8389l12.9717 59.4189h-15.2598l-5.31445 -38.6738l-5.39355 38.6738h-15.3623l13.0781 -59.8428v-53.4141zM486.247 78.2002v6.70605h-7.3877v49.2021h-7.5459v-55.9082h14.9336zM488.479 206.692
c0 -4.42285 3.53809 -8.08789 8.08691 -8.08789c5.10645 0 9.20312 4.87988 7.81836 10.1768c-0.871094 3.33398 -3.89648 5.79297 -7.33691 5.98633c-4.78027 0.268555 -8.56836 -3.49902 -8.56836 -8.0752zM489.514 251.394l1.84277 -29.9121h10.4238l1.84082 29.9121
v61.0293h-14.1074v-61.0293zM491.042 78.2002l15.668 0.000976562v6.65332h-8.06934v18.9678h5.86914v6.65527h-5.86914v16.8721h7.80762v6.75879h-15.4062v-55.9082zM509.398 353.147v14.4199h-15.8828v105.779h-16.2227v-120.199h32.1055zM486.321 579.511
c0 -2.11621 -1.71582 -3.83301 -3.83203 -3.83398h-2.81445v37.1963h2.81445c2.11621 0 3.83203 -1.71484 3.83203 -3.83105v-29.5312zM241.159 425.562c0 -2.11621 -1.71387 -3.83398 -3.83105 -3.83398h-2.81543v37.1963h2.81543
c2.11621 0 3.83105 -1.71484 3.83105 -3.83105v-29.5312zM337.36 460.02c2.26172 0.43457 4.23535 -1.28613 4.23535 -3.46777l0.0253906 -86.7607c0 -1.9668 -1.59375 -3.56055 -3.56055 -3.56055c-1.95312 0 -3.53711 1.58203 -3.53711 3.53613v86.6533
c0 1.70996 1.15625 3.27734 2.83691 3.59961zM196.022 579.508c0 -2.11621 -1.71387 -3.83301 -3.83203 -3.83398h-2.81445v37.1963h2.81445c2.11719 0 3.83203 -1.71484 3.83203 -3.83105v-29.5312zM443.7 444.355l4.9873 -60.457h-9.97559z" />
    <glyph glyph-name="ordfeminine" unicode="&#xaa;" horiz-adv-x="330" 
d="M284.364 692.857c-11.0527 -6.56055 -19.5039 -40.6074 -19.5039 -83.8711v-59.21c0.117188 -3.72754 0.182617 -7.51855 0.182617 -11.3906c0 -3.89648 -0.0654297 -7.71387 -0.182617 -11.4678v-55.0293c0 -43.2637 8.4502 -77.3115 19.5029 -83.8721v-2.89453
h-50.9209c-8.47363 0 -15.6631 5.47363 -18.2402 13.0762c-17.2344 -13.4541 -38.333 -20.1729 -62.3379 -20.1729c-63.2803 0 -107.864 50.3359 -107.864 157.483s42.4268 161.08 110.741 161.08c22.4287 0 42.4346 -6.22461 59.0088 -18.7793
c2.3125 10.2686 11.4824 17.9424 22.4502 17.9424h47.1641v-2.89453zM155.021 431.241c34.5176 0 53.2139 42.4268 53.2139 105.708c0 69.0342 -18.6963 105.708 -53.9326 105.708s-53.2139 -35.9561 -53.2139 -105.708c0 -69.7529 18.6963 -105.708 53.9326 -105.708z
M284.363 355.919v-50.3223h-229.288v50.3223h229.288z" />
    <glyph glyph-name="guillemotleft" unicode="&#xab;" horiz-adv-x="514" 
d="M238.389 63.1162c18.9766 -37.4668 39.1201 -59.0068 48.1904 -59.0068l0.0126953 -4.12109l-21.375 0.000976562v-0.000976562h-93.8516s-0.00292969 0.0078125 -0.00292969 0.00878906l-28.6777 0.00195312l0.0390625 3.2041
c5.87891 5.88672 10.2998 20.4248 7.79102 38.8125c-2.39648 17.5498 -11.1055 38.6143 -19.1631 62.3135c-3.36914 8.81641 -72.7891 152.592 -97.3535 157.126v1.23633c24.5645 4.53418 93.9844 148.31 97.3535 157.126c8.05762 23.6992 16.7666 44.7637 19.1631 62.3135
c2.50977 18.3877 -1.91211 32.9258 -7.79102 38.8125l-0.0390625 3.2041l28.6777 0.00195312l0.00292969 0.00878906h93.8516v-0.000976562l21.375 0.000976562l-0.0126953 -4.12109c-9.07031 0 -29.2148 -21.5391 -48.1914 -59.0059l-46.21 -108.729
s-33.1455 -77.7148 -49.7803 -90.2275c17.2646 -13.7275 49.7803 -90.2285 49.7803 -90.2285zM428.089 63.1143c18.9766 -37.4658 39.1201 -59.0059 48.1914 -59.0059l0.0126953 -4.12109l-21.375 0.000976562v-0.000976562h-93.8516l-0.00292969 0.00878906
l-28.6777 0.00195312l0.0390625 3.2041c5.87891 5.88672 10.3008 20.4248 7.79102 38.8125c-2.39648 17.5498 -11.1055 38.6143 -19.1631 62.3135c-3.36914 8.81641 -72.7891 152.592 -97.3535 157.126v1.23633c24.5645 4.53418 93.9844 148.31 97.3535 157.126
c8.05762 23.6992 16.7666 44.7637 19.1631 62.3135c2.50879 18.3877 -1.91211 32.9258 -7.79102 38.8125l-0.0390625 3.2041l28.6777 0.00195312l0.00292969 0.00878906h93.8516v-0.000976562l21.375 0.000976562l-0.0126953 -4.12109
c-9.07031 0 -29.2148 -21.54 -48.1914 -59.0059l-46.2109 -108.729s-33.1455 -77.7148 -49.7803 -90.2275c17.2646 -13.7275 49.7803 -90.2285 49.7803 -90.2285z" />
    <glyph glyph-name="softhyphen" unicode="&#xad;" horiz-adv-x="0" 
 />
    <glyph glyph-name="registered" unicode="&#xae;" horiz-adv-x="652" 
d="M325.56 709.863c160.745 0 277.56 -141.775 277.56 -360.429s-116.814 -360.429 -277.56 -360.429s-277.56 141.775 -277.56 360.429s116.814 360.429 277.56 360.429zM327.557 43.9189c134.786 0 217.654 121.807 217.654 304.517
c0 183.709 -84.8652 306.515 -219.651 306.515s-219.651 -121.807 -219.651 -304.517c0 -183.709 86.8623 -306.515 221.648 -306.515zM469.721 147.673l0.0195312 -6.41113h-62.8613c-13.2578 0 -25.0898 8.41504 -29.4424 20.9395l-51.709 148.785l-38.2236 -15.0352
v-79.1348c0.322266 -29.623 5.95605 -63.2451 16.1406 -69.292l0.977539 -0.580078v-5.67676h-95.5811v5.67676l0.977539 0.580078c10.4941 6.23047 16.1572 41.7324 16.1572 71.9736v257.047c0 30.2412 -5.66309 65.7432 -16.1572 71.9736l-0.977539 0.580078v5.67676
l110.982 0.00683594c32.5771 0 60.4922 -9.24609 80.7266 -26.7393c23.459 -20.2832 35.3545 -50.1445 35.3545 -88.7539c0 -48.7979 -17.2314 -83.3213 -51.2178 -102.642c10.1572 -27.6289 56.0635 -154.802 56.7432 -156.278
c12.4883 -24.4551 23.1543 -32.6963 26.1006 -32.6963h1.99023zM326.118 372.755l2.66602 1.0498v-0.164062c30.1582 10.4043 44.2373 30.7725 44.2373 63.8936c0 37.1934 -20.4834 57.6768 -57.6777 57.6768h-27.8398v-137.644l37.2871 14.666v0.102539z" />
    <glyph glyph-name="degree" unicode="&#xb0;" horiz-adv-x="420" 
d="M209.734 709.818c94.8496 0 167.734 -73.8828 167.734 -166.735c0 -95.8477 -72.8848 -168.732 -167.734 -168.732c-93.8516 0 -167.734 72.8848 -167.734 168.732c0 92.8525 73.8828 166.735 167.734 166.735zM209.734 452.227
c49.9209 0 88.8594 39.9365 88.8594 90.8555c0 47.9238 -38.9385 88.8594 -88.8594 88.8594c-48.9229 0 -88.8594 -40.9355 -88.8594 -88.8594c0 -50.9189 39.9365 -90.8555 88.8594 -90.8555z" />
    <glyph glyph-name="twosuperior" unicode="&#xb2;" horiz-adv-x="270" 
d="M219.869 421.552h5.1709v-63.8086h-179.431l0.106445 2.05859c0.370117 7.1377 0.688477 13.917 0.993164 20.374c4.07422 86.5625 5.44336 115.734 89.9004 173.851c24.3691 19.9072 33.4316 35.293 33.4316 56.7432c0 26.8555 -14.2178 42.3008 -39.0088 42.377
h-0.173828c-11.4971 0 -22.3369 -3.49609 -34.0967 -10.9971c-5.85156 -3.7998 -24.9287 -18.1348 -24.1338 -42.6934l0.0449219 -1.38965l-5.72949 -2.20898l-23.9424 66.002l0.861328 0.879883c13.2471 13.5293 25.4287 22.9111 38.335 29.5264
c15.7803 8.08984 32.7021 12.0215 51.7324 12.0215c27.6006 0 50.3125 -8.39258 65.6797 -24.2695c14.7432 -15.2324 22.5371 -37.0117 22.5371 -62.9824c0 -44.2881 -17.084 -77.417 -55.3926 -107.415c-62.1348 -48.6582 -62.7744 -72.6621 -61.957 -102.141
l55.4902 -0.0410156c33.2588 0 55.2275 6.77832 59.0137 13.1553z" />
    <glyph glyph-name="threesuperior" unicode="&#xb3;" horiz-adv-x="289" 
d="M57.7842 635.178l0.00195312 63.8076h189.532l-0.0175781 -5.90332h-1.95215c-2.66016 0 -11.6885 -8.02441 -21.4873 -27.3535c-1.03125 -2.38867 -32.2412 -74.6699 -48.416 -113.03c14.7842 -5.15039 29.3574 -16.2939 40.1875 -30.7783
c13.6221 -18.2188 20.8223 -40.8193 20.8223 -65.3584c0 -31.792 -9.90723 -58.4346 -28.6484 -77.0469c-17.835 -17.7119 -42.2656 -27.0732 -70.6523 -27.0732c-40.4883 0 -69.9697 16.9111 -95.5928 54.834l-0.5625 0.833008l23.8799 64.4102l5.71777 -2.20312
l-0.0449219 -1.38965c-0.674805 -20.8418 13.415 -37.2764 25.7646 -49.2666c13.0723 -12.1084 26.4199 -17.5215 43.2471 -17.5215c13.3037 0 24.6182 4.61523 32.7197 13.3486c8.52441 9.19043 13.0303 22.5615 13.0303 38.667
c0 19.7373 -5.43945 34.7148 -16.168 44.5156c-10.6982 9.77246 -26.9736 14.7275 -48.376 14.7275h-14.0293l1.14258 2.71582c17.6016 41.8652 49.5928 118.003 55.8975 133.147l-41.2471 0.03125c-33.2568 0 -55.2275 -6.77832 -59.0137 -13.1562l-0.568359 -0.957031
h-5.16699z" />
    <glyph glyph-name="acute" unicode="&#xb4;" horiz-adv-x="259" 
d="M31 566.188l80.4043 130.842h117.988l-126.727 -130.842h-71.666z" />
    <glyph glyph-name="paragraph" unicode="&#xb6;" horiz-adv-x="584" 
d="M532.275 695.537c-12.5947 -7.47656 -22.2256 -46.2773 -22.2275 -95.5801v-685.84c0 -49.3027 9.63086 -88.1045 22.2256 -95.5811v-3.29883h-118.817v3.29883c12.5947 7.47656 22.2256 46.2773 22.2256 95.5811v685.84
c0 0.814453 -0.00976562 1.61719 -0.0146484 2.42578l-74.6465 -1.21582c-0.000976562 -0.404297 -0.00683594 -0.804688 -0.00683594 -1.20996v-685.841c0 -49.3027 9.63086 -88.1045 22.2256 -95.5811v-3.29883h-118.817v3.29883
c12.5947 7.47656 22.2256 46.2773 22.2256 95.5811v370.377h-48.958c-92.8525 0 -195.689 58.9062 -195.689 203.677c0 141.775 95.8477 210.666 201.68 210.666h288.596v-3.29883z" />
    <glyph glyph-name="periodcentered" unicode="&#xb7;" horiz-adv-x="212" 
d="M105.889 406.843c38.9385 0 69.8896 -31.9492 69.8896 -70.8877s-30.9512 -69.8896 -69.8896 -69.8896s-69.8896 30.9512 -69.8896 69.8896s30.9512 70.8877 69.8896 70.8877z" />
    <glyph glyph-name="cedilla" unicode="&#xb8;" horiz-adv-x="99" 
d="M43.2588 -42.8789c15.7695 -7.41797 31.082 -26.0938 31.082 -53.2363c0 -35.5029 -22.8252 -59.3555 -56.7979 -59.3555c-22.1553 0 -38.4609 8.85449 -52.541 28.623l16.6738 42.6445l4.75391 -1.8291l-0.119141 -3.65625
c-0.303711 -9.37402 6.08105 -16.8945 12.3809 -23.0166c6.2041 -5.73242 12.2275 -8.17871 20.1289 -8.17871c12.627 0 20.166 8.78125 20.166 23.4902c0 18.6426 -9.57715 27.3252 -30.1387 27.3252h-13.5938s27.4111 64.1084 41.9756 99.2988h37.1084
c-9.57227 -22.5488 -28.4434 -65.8848 -31.0791 -72.1094z" />
    <glyph glyph-name="onesuperior" unicode="&#xb9;" horiz-adv-x="178" 
d="M132.771 693.197c-6.37793 -3.78613 -13.1553 -25.7559 -13.1562 -59.0146v-211.731c0 -33.2578 6.77734 -55.2275 13.1553 -59.0137l0.958008 -0.569336v-5.16699h-79.3691v5.16699l0.958008 0.569336c6.37695 3.78516 13.1543 25.751 13.1562 59.0049v188.249
c-0.341797 2.06152 -1.54395 3.64941 -3.4834 4.59668c-4.16992 2.03906 -10.9141 0.838867 -18.0342 -3.20508l-1.28613 -0.729492l-3.66992 3.60938l41.3242 83.9707h50.4053v-5.16699z" />
    <glyph glyph-name="ordmasculine" unicode="&#xba;" horiz-adv-x="311" 
d="M155.741 696.589c64.7197 0 109.303 -51.7754 109.303 -158.202c0 -107.146 -44.584 -160.36 -112.18 -160.36c-63.2803 0 -107.864 50.3369 -107.864 157.483s42.4268 161.079 110.741 161.079zM155.021 431.238c34.5176 0.000976562 53.2139 42.4277 53.2139 105.708
c0 69.0332 -18.6963 105.708 -53.9326 105.708s-53.2139 -35.9551 -53.2139 -105.708s18.6963 -105.708 53.9326 -105.708zM256.967 355.917v-50.3223h-200.807v50.3223h200.807z" />
    <glyph glyph-name="guillemotright" unicode="&#xbb;" horiz-adv-x="514" 
d="M274.904 461.031c-18.9775 37.4668 -39.1211 59.0068 -48.1914 59.0068l-0.0126953 4.12109l21.375 -0.000976562v0.000976562h93.8516l0.00292969 -0.00878906l28.6777 -0.00195312l-0.0390625 -3.2041c-5.87891 -5.88672 -10.2998 -20.4248 -7.79102 -38.8125
c2.39648 -17.5498 11.1055 -38.6143 19.1631 -62.3135c3.36914 -8.81641 72.7891 -152.592 97.3535 -157.126v-1.23633c-24.5645 -4.53418 -93.9844 -148.31 -97.3535 -157.126c-8.05762 -23.6992 -16.7666 -44.7637 -19.1631 -62.3135
c-2.50977 -18.3877 1.91211 -32.9258 7.79102 -38.8125l0.0390625 -3.2041l-28.6777 -0.00195312l-0.00292969 -0.00878906h-93.8516v0.000976562l-21.375 -0.000976562l0.0126953 4.12109c9.07031 0 29.2148 21.5391 48.1914 59.0059l46.2109 108.729
s33.1455 77.7148 49.7803 90.2275c-17.2646 13.7275 -49.7803 90.2285 -49.7803 90.2285zM85.2031 461.032c-18.9766 37.4668 -39.1201 59.0068 -48.1914 59.0068l-0.0126953 4.12109l21.375 -0.000976562v0.000976562h93.8516
s0.00292969 -0.0078125 0.00292969 -0.00878906l28.6777 -0.00195312l-0.0390625 -3.2041c-5.87891 -5.88672 -10.3008 -20.4248 -7.79102 -38.8125c2.39648 -17.5498 11.1055 -38.6143 19.1631 -62.3135c3.36914 -8.81641 72.7891 -152.592 97.3535 -157.126v-1.23633
c-24.5645 -4.53418 -93.9844 -148.31 -97.3535 -157.126c-8.05762 -23.6992 -16.7666 -44.7637 -19.1631 -62.3135c-2.50879 -18.3877 1.91211 -32.9258 7.79102 -38.8125l0.0390625 -3.2041l-28.6777 -0.00195312l-0.00292969 -0.00878906h-93.8516v0.000976562
l-21.375 -0.000976562l0.0126953 4.12109c9.07031 0 29.2148 21.54 48.1914 59.0059l46.2109 108.729s33.1455 77.7148 49.7803 90.2275c-17.2646 13.7275 -49.7803 90.2285 -49.7803 90.2285z" />
    <glyph glyph-name="onequarter" unicode="&#xbc;" horiz-adv-x="568" 
d="M365.952 533.847l-185.645 -434.82c-20.8281 -44.6904 -28.4893 -83.9268 -20.2314 -96.0244l-1.39258 -2.98926l-115.684 0.269531l1.39355 2.99023c14.5732 1.45703 39.6885 32.5508 60.5146 77.2334l40.8711 86.6523l184.044 431.073
c20.8271 44.6904 28.4883 83.9268 20.2305 96.0244l1.39355 2.98926l115.683 -0.269531l-1.39258 -2.99023c-14.5732 -1.45703 -39.6895 -32.5508 -60.5146 -77.2334zM49.957 610.23l-1.28809 -0.729492l-3.66992 3.60938l41.3252 83.9707h50.4043v-5.16699
l-0.957031 -0.569336c-6.37891 -3.78613 -13.1553 -25.7559 -13.1553 -59.0146v-211.731c0 -33.2578 6.77637 -55.2275 13.1553 -59.0137l0.957031 -0.569336v-5.16699h-79.3682v5.16699l0.957031 0.569336c6.37695 3.78516 13.1553 25.751 13.1572 59.0049v188.249
c-0.341797 2.06152 -1.54492 3.64941 -3.48438 4.59668c-4.16992 2.03906 -10.9131 0.838867 -18.0332 -3.20508zM522.432 141.2l4.98242 -0.00195312v-68.8809h-4.93457l-0.583984 0.660156c-2.61719 2.95508 -11.5723 7.95312 -42.1211 8.70801v-16.9238
c0 -33.2588 6.77832 -55.2285 13.1562 -59.0146l0.958008 -0.569336v-5.16602h-79.3691v5.16797l0.958008 0.569336c6.37695 3.78516 13.1543 25.751 13.1553 59.0049v17.0312l-126.831 -0.336914l1.79688 4.23145c0.803711 1.92285 80.8525 193.543 84.8301 203.95
c0.907227 2.67578 1.8584 5.34766 2.78125 7.94043c2.95312 8.29492 5.50293 15.459 6.35547 21.7031c1.14355 8.38672 -0.859375 14.7344 -3.20703 17.085l-0.5625 0.563477l-0.0517578 4.32324l78.7051 0.00585938l-0.0205078 -5.9043h-1.95117
c-2.66016 0 -11.6865 -8.02344 -21.4844 -27.3467c-1.37988 -3.26074 -50.2246 -118.718 -74.5361 -177.002h54.1729v10.4902c0 33.2578 -6.77734 55.2275 -13.1553 59.0137l-0.958008 0.569336v5.16699h79.3691v-5.16699l-0.958008 -0.569336
c-6.37793 -3.78613 -13.1562 -25.7559 -13.1562 -59.0137v-10.3867c30.5146 0.814453 39.458 6.2002 42.0723 9.38379z" />
    <glyph glyph-name="onehalf" unicode="&#xbd;" horiz-adv-x="546" 
d="M365.952 533.847l-185.645 -434.82c-20.8281 -44.6904 -28.4893 -83.9268 -20.2314 -96.0244l-1.39355 -2.98926l-115.683 0.269531l1.39355 2.99023c14.5732 1.45703 39.6885 32.5508 60.5137 77.2334l40.8721 86.6523l184.044 431.073
c20.8271 44.6904 28.4883 83.9268 20.2305 96.0244l1.39355 2.98926l115.683 -0.269531l-1.39258 -2.99023c-14.5732 -1.45703 -39.6895 -32.5508 -60.5146 -77.2334zM49.957 610.23l-1.28809 -0.729492l-3.66992 3.60938l41.3252 83.9707h50.4043v-5.16699
l-0.957031 -0.569336c-6.37891 -3.78613 -13.1553 -25.7559 -13.1553 -59.0146v-211.731c0 -33.2578 6.77637 -55.2275 13.1553 -59.0137l0.957031 -0.569336v-5.16699h-79.3682v5.16699l0.957031 0.569336c6.37695 3.78516 13.1553 25.751 13.1572 59.0049v188.249
c-0.341797 2.06152 -1.54492 3.64941 -3.48438 4.59668c-4.16992 2.03906 -10.9131 0.838867 -18.0332 -3.20508zM495.643 65.8945l5.1709 -0.000976562v-63.8086h-179.431l0.106445 2.05859c0.370117 7.1377 0.688477 13.917 0.993164 20.374
c4.07422 86.5625 5.44336 115.734 89.9004 173.851c24.3691 19.9072 33.4316 35.293 33.4316 56.7432c0 26.8555 -14.2178 42.3008 -39.0088 42.377h-0.173828c-11.4971 0 -22.3369 -3.49609 -34.0967 -10.9971c-5.85156 -3.7998 -24.9287 -18.1348 -24.1338 -42.6934
l0.0449219 -1.38965l-5.72949 -2.20801l-23.9424 66.002l0.861328 0.879883c13.2471 13.5293 25.4287 22.9111 38.335 29.5264c15.7803 8.08984 32.7021 12.0215 51.7324 12.0215c27.6006 0 50.3125 -8.39258 65.6797 -24.2695
c14.7432 -15.2324 22.5371 -37.0117 22.5371 -62.9824c0 -44.2881 -17.084 -77.417 -55.3926 -107.415c-62.1348 -48.6582 -62.7744 -72.6621 -61.957 -102.141l55.4902 -0.0410156c33.2588 0 55.2275 6.77832 59.0137 13.1553z" />
    <glyph glyph-name="threequarters" unicode="&#xbe;" horiz-adv-x="599" 
d="M208.807 379.516c-17.834 -17.7109 -42.2637 -27.0752 -70.6504 -27.0742c-40.4883 0 -69.9697 16.9111 -95.5928 54.834l-0.5625 0.833008l23.8799 64.4102l5.71777 -2.20312l-0.0449219 -1.38965c-0.674805 -20.8418 13.415 -37.2764 25.7646 -49.2666
c13.0723 -12.1084 26.4199 -17.5215 43.2471 -17.5215c13.3037 0 24.6182 4.61523 32.7197 13.3486c8.52441 9.19043 13.0303 22.5615 13.0303 38.667c0 19.7373 -5.43945 34.7148 -16.168 44.5156c-10.6982 9.77246 -26.9736 14.7275 -48.376 14.7275h-14.0293
l1.14258 2.71582c17.6016 41.8652 49.5928 118.003 55.8975 133.147l-41.2471 0.03125c-33.2568 0 -55.2275 -6.77832 -59.0137 -13.1562l-0.568359 -0.957031h-5.16699v63.8086h189.532l-0.0175781 -5.90332h-1.95215c-2.66016 0 -11.6885 -8.02441 -21.4873 -27.3535
c-1.03125 -2.38867 -32.2412 -74.6699 -48.416 -113.03c14.7842 -5.15039 29.3574 -16.2939 40.1875 -30.7783c13.6221 -18.2188 20.8223 -40.8193 20.8223 -65.3584c0 -31.792 -9.90723 -58.4346 -28.6484 -77.0469zM403.956 533.845l-185.642 -434.82
c-20.8281 -44.6904 -28.4893 -83.9268 -20.2314 -96.0244l-1.39355 -2.98926l-115.684 0.269531l1.39355 2.99023c14.5723 1.45703 39.6885 32.5508 60.5137 77.2334l40.8711 86.6523l184.044 431.073c20.8271 44.6904 28.4883 83.9268 20.2305 96.0244l1.39355 2.98926
l115.683 -0.269531l-1.39355 -2.99023c-14.5723 -1.45703 -39.6895 -32.5508 -60.5137 -77.2334zM552.448 141.198l4.98242 -0.00195312v-68.8809h-4.93457l-0.583984 0.660156c-2.61719 2.95508 -11.5723 7.95312 -42.1211 8.70801v-16.9238
c0 -33.2588 6.77832 -55.2285 13.1562 -59.0146l0.958008 -0.569336v-5.16602h-79.3691v5.16797l0.958008 0.569336c6.37695 3.78516 13.1543 25.751 13.1553 59.0049v17.0312l-126.831 -0.336914l1.79688 4.23145c0.803711 1.92285 80.8525 193.543 84.8301 203.95
c0.907227 2.67578 1.8584 5.34766 2.78125 7.94043c2.95312 8.29492 5.50293 15.459 6.35547 21.7031c1.14355 8.38672 -0.859375 14.7344 -3.20703 17.085l-0.5625 0.563477l-0.0517578 4.32324l78.7051 0.00585938l-0.0205078 -5.9043h-1.95117
c-2.66016 0 -11.6865 -8.02344 -21.4844 -27.3467c-1.37988 -3.26074 -50.2246 -118.718 -74.5361 -177.002h54.1729v10.4902c0 33.2578 -6.77734 55.2275 -13.1553 59.0137l-0.958008 0.569336v5.16699h79.3691v-5.16699l-0.958008 -0.569336
c-6.37793 -3.78613 -13.1562 -25.7559 -13.1562 -59.0137v-10.3867c30.5146 0.814453 39.458 6.2002 42.0723 9.38379z" />
    <glyph glyph-name="questiondown" unicode="&#xbf;" horiz-adv-x="326" 
d="M213.2 337.051c-38.9385 0 -69.8896 31.9492 -69.8896 70.8877s30.9512 69.8896 69.8896 69.8896s69.8896 -30.9512 69.8896 -69.8896s-30.9512 -70.8877 -69.8896 -70.8877zM202.717 -243.029c-116.814 0 -178.718 71.8838 -178.718 176.719
c0 84.8652 29.7666 154.011 113.209 219.354c0.138672 0.108398 0.280273 0.234375 0.444336 0.351562c51.9111 37.3164 44.4424 111.769 44.4424 111.769h64.9316s16.5273 -59.8145 14.7676 -87.7617c-3.18652 -50.6064 -26.3096 -79.4492 -66.918 -109.815
c-0.0869141 -0.0644531 -0.136719 -0.101562 -0.146484 -0.108398c-48.9229 -39.9365 -70.8877 -72.8838 -70.8877 -120.808c0 -58.9062 31.9492 -91.6934 84.8652 -91.8545c25.918 -0.0791016 49.582 8.36035 73.1953 23.4219
c27.4258 17.8076 53.2188 50.4785 51.875 92.0059l5.32227 2.05273l47.3252 -130.46c-46.9258 -47.9238 -100.84 -84.8652 -183.708 -84.8652z" />
    <glyph glyph-name="Agrave" unicode="&#xc0;" 
d="M280.89 92.5l2.31934 28.1201l2.32031 -28.1201h-4.63965zM235.779 127.4c0.980469 0 1.78027 -0.798828 1.78027 -1.78906v-13.7305c0 -0.990234 -0.799805 -1.79004 -1.78027 -1.79004h-1.30957v17.3096h1.30957zM316.31 299.871
c2.12988 0.410156 3.99023 -1.21973 3.99023 -3.26953l0.0195312 -81.7305c0 -1.84961 -1.5 -3.34961 -3.34961 -3.34961c-1.83984 0 -3.33984 1.49023 -3.33984 3.33008v81.6299c0 1.61035 1.08984 3.08008 2.67969 3.38965zM309.619 127.401
c0.990234 0 1.78027 -0.799805 1.78027 -1.79004v-39.0898c0 -0.980469 -0.790039 -1.78027 -1.78027 -1.78027h-1.83008v42.6602h1.83008zM143.189 458.922c2.11035 0 3.83008 -1.70996 3.83008 -3.83008v-32.9199c0 -2.11035 -1.71973 -3.83008 -3.83008 -3.83008
h-2.82031v40.5801h2.82031zM425.63 520.172c-1.9502 0 -3.54004 1.57812 -3.54004 3.53809v86.6504c0 1.70996 1.16016 3.28027 2.83984 3.60059c2.25977 0.44043 4.22949 -1.29004 4.22949 -3.46973l0.0302734 -86.7598c0 -1.95996 -1.58984 -3.55957 -3.55957 -3.55957z
M520.49 698.93c27.6201 0 50 -22.3896 50 -50v-598.93c0 -27.6201 -22.3799 -50 -50 -50h-415.49c-27.6201 -0 -50 22.3799 -50 50v598.93c0 27.6104 22.3799 50 50 50h415.49zM481.66 627.29l-19.3213 0.000976562v-120.2h16.2305v54.5h0.490234l7.58984 -54.5h16.0703
l-9.36035 57.2197c5.36035 3.30957 8.30078 9.5791 8.30078 18.2891v20.4102c0 15.2002 -7.48047 24.2803 -20 24.2803zM466.299 353.141l-13.9404 120.2h-19.3096l-13.9404 -120.2h16.0703l1.37012 16.6104h12.3096l1.37012 -16.6104h16.0703zM405.979 605.201
l-0.00195312 -77.2998c0 -13.1104 7.86035 -21.9102 19.5508 -21.9102c11.96 0 19.9902 8.25977 19.9902 20.5596v82.04c0 11.8203 -7.80957 19.7705 -19.4297 19.7705c-12.5898 0 -20.1094 -8.66016 -20.1094 -23.1602zM359.267 627.281v-120.199h16.4502v60.8398h13.4102
v14.4199h-13.4102v30.2998h16.4502v14.6396h-32.9004zM276.497 627.282l-0.000976562 -120.199h33.6904v14.3096h-17.3496v40.7803h12.6201v14.3096h-12.6201v36.2695h16.7803v14.5303h-33.1201zM286.966 474.423c-12.5898 0 -20.1074 -8.65234 -20.1074 -23.1523
l0.00976562 -8.65039c0.00976562 -11.5498 3.18945 -19.4297 12.1592 -29.6895c7.01953 -8.03027 8.89941 -10.5605 10.0693 -13.5107c0.740234 -1.91016 1.04004 -3.64062 1.19043 -7.26074v-22.3799c0 -1.9502 -1.58984 -3.54004 -3.54004 -3.54004v0
c-1.94043 0 -3.53027 1.55957 -3.5498 3.50977c0 0.200195 0 11.9199 -0.00976562 19.3604h-16.3301v-16.4902c0 -12.2998 8.03027 -20.5596 19.9902 -20.5596c11.7002 0 19.5498 8.7998 19.5498 21.9102v15.6299c0 6.90039 -0.790039 11.9707 -2.54004 16.3711
c-1.50977 4.29004 -3.0293 6.74023 -7.43945 11.9502c-0.709961 0.769531 -2.70996 2.88965 -2.70996 2.88965c-2.48047 2.70996 -4.73047 5.87012 -6.59082 8.74023c-2.53027 3.66016 -4.06055 9.07031 -4.15039 14.5508v12.3301
c0 1.70996 1.16016 3.28027 2.83984 3.60059c2.25977 0.429688 4.22949 -1.29004 4.22949 -3.46973l0.0195312 -16.4297h16.3398v14.5195c0 11.8301 -7.80957 19.7705 -19.4297 19.7705zM228.098 627.281v-120.199h33.6797v14.3096h-17.3496v40.7803h12.6201v14.3096
h-12.6201v36.2695h16.79v14.5303h-33.1201zM236.498 473.342h-19.3193v-120.2h16.2197v54.5h0.5l7.58984 -54.5h16.0596l-9.36035 57.2197c5.37012 3.32031 8.31055 9.58008 8.31055 18.29v20.4102c0 15.2002 -7.48047 24.2803 -20 24.2803zM191.358 627.292
l-19.3213 0.000976562v-120.2h16.2305v54.5h0.490234l7.58984 -54.5h16.0703l-9.36035 57.2197c5.36035 3.30957 8.30078 9.5791 8.30078 18.2891v20.4102c0 15.2002 -7.46973 24.2803 -20 24.2803zM202.357 408.233v14.2998h-12.6201v36.2803h16.79v14.5303h-33.1201
v-120.2h33.6797v14.3096h-17.3496v40.7803h12.6201zM124.938 627.283l-0.000976562 -120.199h16.4502v60.8398h13.4004v14.4199h-13.4004v30.2998h16.4404v14.6396h-32.8896zM138.706 87.8838v7.27148c0 3.20996 -0.370117 5.57031 -1.17969 7.62012
c-0.700195 1.99023 -1.41016 3.12988 -3.45996 5.5498c-0.330078 0.360352 -1.25977 1.35059 -1.25977 1.35059c-1.15039 1.25977 -2.2002 2.72949 -3.07031 4.05957c-1.16992 1.70996 -1.88965 4.21973 -1.92969 6.76953v5.74023
c0 0.790039 0.540039 1.52051 1.32031 1.6709c1.0498 0.200195 1.96973 -0.599609 1.96973 -1.60938l0.00976562 -7.65039h7.59961v6.75977c0 5.5 -3.62988 9.2002 -9.04004 9.2002c-5.84961 0 -9.34961 -4.03027 -9.34961 -10.7705v-4.03027
c0.00976562 -5.37012 1.49023 -9.03027 5.66016 -13.8105c3.26953 -3.73047 4.13965 -4.91016 4.67969 -6.28027c0.349609 -0.889648 0.489258 -1.68945 0.55957 -3.37988v-10.4102c0 -0.910156 -0.740234 -1.64062 -1.65039 -1.64062v0
c-0.900391 0 -1.64062 0.719727 -1.65039 1.62988v9h-7.59961v-7.66992c0 -5.71973 3.74023 -9.55957 9.2998 -9.55957c5.44043 0 9.09082 4.08984 9.09082 10.1895zM121.406 218.806c0 -12.3496 7.3916 -20.6426 18.4111 -20.6426
c11.2598 0 18.8301 7.78027 18.8301 19.3604v94.9004h-15.4004l0.0195312 -97.0195c0 -0.0996094 -0.0195312 -0.199219 -0.0292969 -0.298828v-0.25c0 -1.07031 -0.509766 -2.01074 -1.29004 -2.61035c-0.0400391 -0.0400391 -0.0800781 -0.0800781 -0.129883 -0.120117
c-0.0498047 -0.0302734 -0.109375 -0.0605469 -0.15918 -0.100586c-0.320312 -0.209961 -0.680664 -0.360352 -1.07031 -0.430664c-0.0703125 -0.0195312 -0.140625 -0.00976562 -0.210938 -0.0195312c-0.110352 -0.0195312 -0.230469 -0.0390625 -0.350586 -0.0390625
h-0.0195312c-0.0302734 0 -0.0605469 -0.00976562 -0.100586 -0.00976562c-1.83984 0 -3.33008 1.49023 -3.33008 3.33008v97.5703h-15.1699v-93.6201zM161.708 78.1924l0.000976562 6.66016h-8.07031v18.96h5.87012v6.66016h-5.87012v16.8701h7.80957v6.75977h-15.4102
v-55.9102h15.6699zM163.349 425.272v23.79c0 15.2002 -7.46973 24.2803 -19.9893 24.2803h-19.3203v-120.2h16.2197v51.1201h4.21973c12 0 18.8701 7.66016 18.8701 21.0098zM167.839 78.1924h15.6709v6.66016h-8.07031v18.96h5.87012v6.66016h-5.87012v16.8701h7.80957
v6.75977h-15.4102v-55.9102zM172.26 217.542c0 -11.5898 7.57227 -19.373 18.8418 -19.373c11.0098 0 18.4102 8.2998 18.4102 20.6396v14.7305c0 6.5 -0.75 11.2695 -2.40039 15.4199c-1.41992 4.04004 -2.84961 6.34961 -7.00977 11.25
c-0.660156 0.730469 -2.5498 2.7207 -2.5498 2.7207c-2.33008 2.55957 -4.4502 5.54004 -6.20996 8.24023c-2.37988 3.4502 -3.82031 8.54004 -3.90039 13.7002v11.6201c0 1.61035 1.08008 3.09082 2.66992 3.39062c2.12988 0.410156 3.99023 -1.20996 3.99023 -3.26953
l0.0195312 -15.4805h15.3896v13.6904c0 11.1299 -7.36035 18.6201 -18.3105 18.6201c-11.8604 0 -18.9404 -8.15039 -18.9404 -21.8105l0.00976562 -8.15039c0.00976562 -10.8799 3.00977 -18.2998 11.46 -27.9697c6.61035 -7.55957 8.37988 -9.93945 9.47949 -12.7295
c0.700195 -1.79004 0.980469 -3.41992 1.12012 -6.83984v-21.0703c0 -1.83984 -1.49023 -3.33984 -3.33008 -3.33984v0c-1.83008 0 -3.33008 1.48047 -3.34961 3.31055v18.2305h-15.3896v-15.5303zM207.571 123.669c1.80957 1.62988 2.74121 3.69824 2.74121 6.07812
c0 3.16992 -1.59961 5.16992 -4.05957 5.2002c-1.99023 0.0195312 -3.61035 -1.40039 -3.87012 -3.39062c-0.179688 -1.42969 0.339844 -2.68945 1.45996 -3.5791s1.56055 -2.43945 0.810547 -3.65918c-0.400391 -0.660156 -0.990234 -1.12012 -1.93066 -1.58984
l0.679688 -1.30957c2.17969 0.75 2.98926 1.25 4.16895 2.25zM217.113 123.667c1.7998 1.62988 2.74023 3.69824 2.74023 6.07812c0 3.16992 -1.59961 5.16992 -4.05957 5.2002c-1.99023 0.0195312 -3.61035 -1.40039 -3.87012 -3.39062
c-0.179688 -1.42969 0.339844 -2.68945 1.45996 -3.5791s1.56055 -2.43945 0.810547 -3.65918c-0.400391 -0.660156 -1 -1.12012 -1.92969 -1.58984l0.679688 -1.30957c2.17969 0.75 2.98926 1.25 4.16895 2.25zM223.413 312.415v-113.231h31.7305v13.4805h-16.3398v38.4102
h11.8799v13.4805h-11.8799v34.1699h15.8096v13.6904h-31.2002zM238.183 78.1836h7.4707l-4.36035 26.6201c2.5 1.54004 3.87012 4.45996 3.87012 8.50977v9.49023c0 7.07031 -3.48047 11.29 -9.31055 11.29h-8.98047v-55.9102h7.54004v25.3496h0.230469zM268.333 78.1836
v6.66016h-8.05957v18.96h5.86035v6.66016h-5.86035v16.8701h7.7998v6.75977h-15.4004v-55.9102h15.6602zM286.713 78.1836h7.47266l-6.48047 55.9102h-8.98047l-6.48047 -55.9102h7.46973l0.639648 7.73047h5.71973zM319.006 87.9639v34.8398
c0 7.07031 -3.48047 11.29 -9.30078 11.29h-9.50977v-55.9102h10.04c5.57031 0 8.77051 3.57031 8.77051 9.78027zM335.716 217.514l0.000976562 77.2803c0 11.1396 -7.36035 18.6299 -18.3105 18.6299c-11.8604 0 -18.9404 -8.16016 -18.9404 -21.8105v-72.8203
c0 -12.3496 7.40039 -20.6396 18.4102 -20.6396c11.2598 0 18.8398 7.78027 18.8398 19.3604zM317.427 373.944c0 -13.0996 7.84863 -21.9102 19.5391 -21.9102c11.96 0 20 8.25977 20 20.5596v82.04c0 11.8301 -7.80957 19.7705 -19.4395 19.7705
c-12.5898 0 -20.0996 -8.66016 -20.0996 -23.1504v-77.3096zM358.836 78.1836h7.5498v55.9102h-6.34961l-6.37988 -23.4102l-6.2998 23.4102h-6.42969v-55.9102h7.5498v28.4297l3.45996 -12.1299h3.17969l3.71973 13v-29.2998zM364.476 252.514
c1.12988 -3.71973 8.62988 -47.2295 9.66992 -53.3291h13.8398v113.23h-14.3301v-51.1104l0.290039 -3.2002l-9.90039 54.3096h-13.6299v-113.23h14.3301v50.2305zM374.636 78.1836h15.6709v6.66016h-8.07031v18.96h5.87012v6.66016h-5.87012v16.8701h7.80957v6.75977
h-15.4102v-55.9102zM384.066 409.754c1.2002 -3.95996 9.15918 -50.1514 10.2695 -56.6211h14.6904v120.21h-15.21v-54.2695l0.30957 -3.38965l-10.5098 57.6602h-14.4697v-120.21h15.21v53.3203zM400.386 123.663c1.80957 1.62988 2.74023 3.69824 2.74023 6.07812
c0 3.16992 -1.59961 5.16992 -4.05957 5.2002c-1.99023 0.0195312 -3.61035 -1.40039 -3.87012 -3.39062c-0.179688 -1.42969 0.339844 -2.68945 1.45996 -3.5791s1.56055 -2.43945 0.810547 -3.65918c-0.400391 -0.660156 -1 -1.12012 -1.92969 -1.58984l0.679688 -1.30957
c2.17969 0.75 2.98926 1.25 4.16895 2.25zM409.927 123.661c1.7998 1.62988 2.74023 3.69824 2.74023 6.07812c0 3.16992 -1.59961 5.16992 -4.05957 5.2002c-1.99023 0.0195312 -3.61035 -1.40039 -3.87012 -3.39062c-0.19043 -1.42969 0.339844 -2.68945 1.45996 -3.5791
s1.56055 -2.43945 0.810547 -3.65918c-0.410156 -0.660156 -1 -1.12012 -1.92969 -1.58984l0.679688 -1.30957c2.17969 0.75 2.98926 1.25 4.16895 2.25zM433.236 199.179v13.5801h-14.9697v99.6504h-15.2803v-113.23h30.25zM448.967 127.278l-0.000976562 6.81055h-15.2998
v-55.9102h7.65039v28.2998h6.23047v6.7002h-6.23047v14.0996h7.65039zM462.056 78.1787v55.9102h-7.5498v-55.9102h7.5498zM463.226 199.179l-0.000976562 53.8398l12.9805 59.4199h-15.2598l-5.32031 -38.6699l-5.38965 38.6699h-15.3701l13.0801 -59.8398v-53.4199
h15.2803zM485.255 78.1787v6.70996h-7.38965v49.2002h-7.54004v-55.9102h14.9297zM487.485 206.679c0 -4.42969 3.54102 -8.08984 8.09082 -8.08984c5.11035 0 9.2002 4.87988 7.82031 10.1699c-0.870117 3.33984 -3.90039 5.7998 -7.34082 5.99023
c-4.78027 0.269531 -8.57031 -3.5 -8.57031 -8.07031zM488.526 251.379l1.83984 -29.9199h10.4199l1.83984 29.9199v61.0303h-14.0996v-61.0303zM505.716 78.1787l0.000976562 6.66016h-8.07031v18.96h5.87012v6.66016h-5.87012v16.8701h7.80957v6.75977h-15.4102v-55.9102
h15.6699zM508.407 353.129v14.4199h-15.8799v105.78h-16.2305v-120.2h32.1104zM485.327 579.489c0 -2.11035 -1.70996 -3.83008 -3.83008 -3.83008h-2.80957v37.2002h2.80957c2.12012 0 3.83008 -1.71973 3.83008 -3.83984v-29.5303zM240.167 425.549
c0 -2.12012 -1.70996 -3.83984 -3.83008 -3.83984h-2.82031v37.2002h2.82031c2.12012 0 3.83008 -1.71973 3.83008 -3.83008v-29.5303zM336.367 460.009c2.25977 0.429688 4.24023 -1.29102 4.24023 -3.4707l0.0195312 -86.7598
c0 -1.96973 -1.58984 -3.55957 -3.55957 -3.55957c-1.9502 0 -3.53027 1.58008 -3.53027 3.53027v86.6602c0 1.70996 1.15039 3.26953 2.83008 3.59961zM195.037 579.488c0 -2.11035 -1.71973 -3.83008 -3.83984 -3.83008h-2.80957v37.2002h2.80957
c2.12012 0 3.83984 -1.71973 3.83984 -3.83984v-29.5303zM442.707 444.338l4.98926 -60.46h-9.96973z" />
    <glyph glyph-name="Agrave" unicode="&#xe0;" 
d="M280.89 92.5l2.31934 28.1201l2.32031 -28.1201h-4.63965zM235.779 127.4c0.980469 0 1.78027 -0.798828 1.78027 -1.78906v-13.7305c0 -0.990234 -0.799805 -1.79004 -1.78027 -1.79004h-1.30957v17.3096h1.30957zM316.31 299.871
c2.12988 0.410156 3.99023 -1.21973 3.99023 -3.26953l0.0195312 -81.7305c0 -1.84961 -1.5 -3.34961 -3.34961 -3.34961c-1.83984 0 -3.33984 1.49023 -3.33984 3.33008v81.6299c0 1.61035 1.08984 3.08008 2.67969 3.38965zM309.619 127.401
c0.990234 0 1.78027 -0.799805 1.78027 -1.79004v-39.0898c0 -0.980469 -0.790039 -1.78027 -1.78027 -1.78027h-1.83008v42.6602h1.83008zM143.189 458.922c2.11035 0 3.83008 -1.70996 3.83008 -3.83008v-32.9199c0 -2.11035 -1.71973 -3.83008 -3.83008 -3.83008
h-2.82031v40.5801h2.82031zM425.63 520.172c-1.9502 0 -3.54004 1.57812 -3.54004 3.53809v86.6504c0 1.70996 1.16016 3.28027 2.83984 3.60059c2.25977 0.44043 4.22949 -1.29004 4.22949 -3.46973l0.0302734 -86.7598c0 -1.95996 -1.58984 -3.55957 -3.55957 -3.55957z
M520.49 698.93c27.6201 0 50 -22.3896 50 -50v-598.93c0 -27.6201 -22.3799 -50 -50 -50h-415.49c-27.6201 -0 -50 22.3799 -50 50v598.93c0 27.6104 22.3799 50 50 50h415.49zM481.66 627.29l-19.3213 0.000976562v-120.2h16.2305v54.5h0.490234l7.58984 -54.5h16.0703
l-9.36035 57.2197c5.36035 3.30957 8.30078 9.5791 8.30078 18.2891v20.4102c0 15.2002 -7.48047 24.2803 -20 24.2803zM466.299 353.141l-13.9404 120.2h-19.3096l-13.9404 -120.2h16.0703l1.37012 16.6104h12.3096l1.37012 -16.6104h16.0703zM405.979 605.201
l-0.00195312 -77.2998c0 -13.1104 7.86035 -21.9102 19.5508 -21.9102c11.96 0 19.9902 8.25977 19.9902 20.5596v82.04c0 11.8203 -7.80957 19.7705 -19.4297 19.7705c-12.5898 0 -20.1094 -8.66016 -20.1094 -23.1602zM359.267 627.281v-120.199h16.4502v60.8398h13.4102
v14.4199h-13.4102v30.2998h16.4502v14.6396h-32.9004zM276.497 627.282l-0.000976562 -120.199h33.6904v14.3096h-17.3496v40.7803h12.6201v14.3096h-12.6201v36.2695h16.7803v14.5303h-33.1201zM286.966 474.423c-12.5898 0 -20.1074 -8.65234 -20.1074 -23.1523
l0.00976562 -8.65039c0.00976562 -11.5498 3.18945 -19.4297 12.1592 -29.6895c7.01953 -8.03027 8.89941 -10.5605 10.0693 -13.5107c0.740234 -1.91016 1.04004 -3.64062 1.19043 -7.26074v-22.3799c0 -1.9502 -1.58984 -3.54004 -3.54004 -3.54004v0
c-1.94043 0 -3.53027 1.55957 -3.5498 3.50977c0 0.200195 0 11.9199 -0.00976562 19.3604h-16.3301v-16.4902c0 -12.2998 8.03027 -20.5596 19.9902 -20.5596c11.7002 0 19.5498 8.7998 19.5498 21.9102v15.6299c0 6.90039 -0.790039 11.9707 -2.54004 16.3711
c-1.50977 4.29004 -3.0293 6.74023 -7.43945 11.9502c-0.709961 0.769531 -2.70996 2.88965 -2.70996 2.88965c-2.48047 2.70996 -4.73047 5.87012 -6.59082 8.74023c-2.53027 3.66016 -4.06055 9.07031 -4.15039 14.5508v12.3301
c0 1.70996 1.16016 3.28027 2.83984 3.60059c2.25977 0.429688 4.22949 -1.29004 4.22949 -3.46973l0.0195312 -16.4297h16.3398v14.5195c0 11.8301 -7.80957 19.7705 -19.4297 19.7705zM228.098 627.281v-120.199h33.6797v14.3096h-17.3496v40.7803h12.6201v14.3096
h-12.6201v36.2695h16.79v14.5303h-33.1201zM236.498 473.342h-19.3193v-120.2h16.2197v54.5h0.5l7.58984 -54.5h16.0596l-9.36035 57.2197c5.37012 3.32031 8.31055 9.58008 8.31055 18.29v20.4102c0 15.2002 -7.48047 24.2803 -20 24.2803zM191.358 627.292
l-19.3213 0.000976562v-120.2h16.2305v54.5h0.490234l7.58984 -54.5h16.0703l-9.36035 57.2197c5.36035 3.30957 8.30078 9.5791 8.30078 18.2891v20.4102c0 15.2002 -7.46973 24.2803 -20 24.2803zM202.357 408.233v14.2998h-12.6201v36.2803h16.79v14.5303h-33.1201
v-120.2h33.6797v14.3096h-17.3496v40.7803h12.6201zM124.938 627.283l-0.000976562 -120.199h16.4502v60.8398h13.4004v14.4199h-13.4004v30.2998h16.4404v14.6396h-32.8896zM138.706 87.8838v7.27148c0 3.20996 -0.370117 5.57031 -1.17969 7.62012
c-0.700195 1.99023 -1.41016 3.12988 -3.45996 5.5498c-0.330078 0.360352 -1.25977 1.35059 -1.25977 1.35059c-1.15039 1.25977 -2.2002 2.72949 -3.07031 4.05957c-1.16992 1.70996 -1.88965 4.21973 -1.92969 6.76953v5.74023
c0 0.790039 0.540039 1.52051 1.32031 1.6709c1.0498 0.200195 1.96973 -0.599609 1.96973 -1.60938l0.00976562 -7.65039h7.59961v6.75977c0 5.5 -3.62988 9.2002 -9.04004 9.2002c-5.84961 0 -9.34961 -4.03027 -9.34961 -10.7705v-4.03027
c0.00976562 -5.37012 1.49023 -9.03027 5.66016 -13.8105c3.26953 -3.73047 4.13965 -4.91016 4.67969 -6.28027c0.349609 -0.889648 0.489258 -1.68945 0.55957 -3.37988v-10.4102c0 -0.910156 -0.740234 -1.64062 -1.65039 -1.64062v0
c-0.900391 0 -1.64062 0.719727 -1.65039 1.62988v9h-7.59961v-7.66992c0 -5.71973 3.74023 -9.55957 9.2998 -9.55957c5.44043 0 9.09082 4.08984 9.09082 10.1895zM121.406 218.806c0 -12.3496 7.3916 -20.6426 18.4111 -20.6426
c11.2598 0 18.8301 7.78027 18.8301 19.3604v94.9004h-15.4004l0.0195312 -97.0195c0 -0.0996094 -0.0195312 -0.199219 -0.0292969 -0.298828v-0.25c0 -1.07031 -0.509766 -2.01074 -1.29004 -2.61035c-0.0400391 -0.0400391 -0.0800781 -0.0800781 -0.129883 -0.120117
c-0.0498047 -0.0302734 -0.109375 -0.0605469 -0.15918 -0.100586c-0.320312 -0.209961 -0.680664 -0.360352 -1.07031 -0.430664c-0.0703125 -0.0195312 -0.140625 -0.00976562 -0.210938 -0.0195312c-0.110352 -0.0195312 -0.230469 -0.0390625 -0.350586 -0.0390625
h-0.0195312c-0.0302734 0 -0.0605469 -0.00976562 -0.100586 -0.00976562c-1.83984 0 -3.33008 1.49023 -3.33008 3.33008v97.5703h-15.1699v-93.6201zM161.708 78.1924l0.000976562 6.66016h-8.07031v18.96h5.87012v6.66016h-5.87012v16.8701h7.80957v6.75977h-15.4102
v-55.9102h15.6699zM163.349 425.272v23.79c0 15.2002 -7.46973 24.2803 -19.9893 24.2803h-19.3203v-120.2h16.2197v51.1201h4.21973c12 0 18.8701 7.66016 18.8701 21.0098zM167.839 78.1924h15.6709v6.66016h-8.07031v18.96h5.87012v6.66016h-5.87012v16.8701h7.80957
v6.75977h-15.4102v-55.9102zM172.26 217.542c0 -11.5898 7.57227 -19.373 18.8418 -19.373c11.0098 0 18.4102 8.2998 18.4102 20.6396v14.7305c0 6.5 -0.75 11.2695 -2.40039 15.4199c-1.41992 4.04004 -2.84961 6.34961 -7.00977 11.25
c-0.660156 0.730469 -2.5498 2.7207 -2.5498 2.7207c-2.33008 2.55957 -4.4502 5.54004 -6.20996 8.24023c-2.37988 3.4502 -3.82031 8.54004 -3.90039 13.7002v11.6201c0 1.61035 1.08008 3.09082 2.66992 3.39062c2.12988 0.410156 3.99023 -1.20996 3.99023 -3.26953
l0.0195312 -15.4805h15.3896v13.6904c0 11.1299 -7.36035 18.6201 -18.3105 18.6201c-11.8604 0 -18.9404 -8.15039 -18.9404 -21.8105l0.00976562 -8.15039c0.00976562 -10.8799 3.00977 -18.2998 11.46 -27.9697c6.61035 -7.55957 8.37988 -9.93945 9.47949 -12.7295
c0.700195 -1.79004 0.980469 -3.41992 1.12012 -6.83984v-21.0703c0 -1.83984 -1.49023 -3.33984 -3.33008 -3.33984v0c-1.83008 0 -3.33008 1.48047 -3.34961 3.31055v18.2305h-15.3896v-15.5303zM207.571 123.669c1.80957 1.62988 2.74121 3.69824 2.74121 6.07812
c0 3.16992 -1.59961 5.16992 -4.05957 5.2002c-1.99023 0.0195312 -3.61035 -1.40039 -3.87012 -3.39062c-0.179688 -1.42969 0.339844 -2.68945 1.45996 -3.5791s1.56055 -2.43945 0.810547 -3.65918c-0.400391 -0.660156 -0.990234 -1.12012 -1.93066 -1.58984
l0.679688 -1.30957c2.17969 0.75 2.98926 1.25 4.16895 2.25zM217.113 123.667c1.7998 1.62988 2.74023 3.69824 2.74023 6.07812c0 3.16992 -1.59961 5.16992 -4.05957 5.2002c-1.99023 0.0195312 -3.61035 -1.40039 -3.87012 -3.39062
c-0.179688 -1.42969 0.339844 -2.68945 1.45996 -3.5791s1.56055 -2.43945 0.810547 -3.65918c-0.400391 -0.660156 -1 -1.12012 -1.92969 -1.58984l0.679688 -1.30957c2.17969 0.75 2.98926 1.25 4.16895 2.25zM223.413 312.415v-113.231h31.7305v13.4805h-16.3398v38.4102
h11.8799v13.4805h-11.8799v34.1699h15.8096v13.6904h-31.2002zM238.183 78.1836h7.4707l-4.36035 26.6201c2.5 1.54004 3.87012 4.45996 3.87012 8.50977v9.49023c0 7.07031 -3.48047 11.29 -9.31055 11.29h-8.98047v-55.9102h7.54004v25.3496h0.230469zM268.333 78.1836
v6.66016h-8.05957v18.96h5.86035v6.66016h-5.86035v16.8701h7.7998v6.75977h-15.4004v-55.9102h15.6602zM286.713 78.1836h7.47266l-6.48047 55.9102h-8.98047l-6.48047 -55.9102h7.46973l0.639648 7.73047h5.71973zM319.006 87.9639v34.8398
c0 7.07031 -3.48047 11.29 -9.30078 11.29h-9.50977v-55.9102h10.04c5.57031 0 8.77051 3.57031 8.77051 9.78027zM335.716 217.514l0.000976562 77.2803c0 11.1396 -7.36035 18.6299 -18.3105 18.6299c-11.8604 0 -18.9404 -8.16016 -18.9404 -21.8105v-72.8203
c0 -12.3496 7.40039 -20.6396 18.4102 -20.6396c11.2598 0 18.8398 7.78027 18.8398 19.3604zM317.427 373.944c0 -13.0996 7.84863 -21.9102 19.5391 -21.9102c11.96 0 20 8.25977 20 20.5596v82.04c0 11.8301 -7.80957 19.7705 -19.4395 19.7705
c-12.5898 0 -20.0996 -8.66016 -20.0996 -23.1504v-77.3096zM358.836 78.1836h7.5498v55.9102h-6.34961l-6.37988 -23.4102l-6.2998 23.4102h-6.42969v-55.9102h7.5498v28.4297l3.45996 -12.1299h3.17969l3.71973 13v-29.2998zM364.476 252.514
c1.12988 -3.71973 8.62988 -47.2295 9.66992 -53.3291h13.8398v113.23h-14.3301v-51.1104l0.290039 -3.2002l-9.90039 54.3096h-13.6299v-113.23h14.3301v50.2305zM374.636 78.1836h15.6709v6.66016h-8.07031v18.96h5.87012v6.66016h-5.87012v16.8701h7.80957v6.75977
h-15.4102v-55.9102zM384.066 409.754c1.2002 -3.95996 9.15918 -50.1514 10.2695 -56.6211h14.6904v120.21h-15.21v-54.2695l0.30957 -3.38965l-10.5098 57.6602h-14.4697v-120.21h15.21v53.3203zM400.386 123.663c1.80957 1.62988 2.74023 3.69824 2.74023 6.07812
c0 3.16992 -1.59961 5.16992 -4.05957 5.2002c-1.99023 0.0195312 -3.61035 -1.40039 -3.87012 -3.39062c-0.179688 -1.42969 0.339844 -2.68945 1.45996 -3.5791s1.56055 -2.43945 0.810547 -3.65918c-0.400391 -0.660156 -1 -1.12012 -1.92969 -1.58984l0.679688 -1.30957
c2.17969 0.75 2.98926 1.25 4.16895 2.25zM409.927 123.661c1.7998 1.62988 2.74023 3.69824 2.74023 6.07812c0 3.16992 -1.59961 5.16992 -4.05957 5.2002c-1.99023 0.0195312 -3.61035 -1.40039 -3.87012 -3.39062c-0.19043 -1.42969 0.339844 -2.68945 1.45996 -3.5791
s1.56055 -2.43945 0.810547 -3.65918c-0.410156 -0.660156 -1 -1.12012 -1.92969 -1.58984l0.679688 -1.30957c2.17969 0.75 2.98926 1.25 4.16895 2.25zM433.236 199.179v13.5801h-14.9697v99.6504h-15.2803v-113.23h30.25zM448.967 127.278l-0.000976562 6.81055h-15.2998
v-55.9102h7.65039v28.2998h6.23047v6.7002h-6.23047v14.0996h7.65039zM462.056 78.1787v55.9102h-7.5498v-55.9102h7.5498zM463.226 199.179l-0.000976562 53.8398l12.9805 59.4199h-15.2598l-5.32031 -38.6699l-5.38965 38.6699h-15.3701l13.0801 -59.8398v-53.4199
h15.2803zM485.255 78.1787v6.70996h-7.38965v49.2002h-7.54004v-55.9102h14.9297zM487.485 206.679c0 -4.42969 3.54102 -8.08984 8.09082 -8.08984c5.11035 0 9.2002 4.87988 7.82031 10.1699c-0.870117 3.33984 -3.90039 5.7998 -7.34082 5.99023
c-4.78027 0.269531 -8.57031 -3.5 -8.57031 -8.07031zM488.526 251.379l1.83984 -29.9199h10.4199l1.83984 29.9199v61.0303h-14.0996v-61.0303zM505.716 78.1787l0.000976562 6.66016h-8.07031v18.96h5.87012v6.66016h-5.87012v16.8701h7.80957v6.75977h-15.4102v-55.9102
h15.6699zM508.407 353.129v14.4199h-15.8799v105.78h-16.2305v-120.2h32.1104zM485.327 579.489c0 -2.11035 -1.70996 -3.83008 -3.83008 -3.83008h-2.80957v37.2002h2.80957c2.12012 0 3.83008 -1.71973 3.83008 -3.83984v-29.5303zM240.167 425.549
c0 -2.12012 -1.70996 -3.83984 -3.83008 -3.83984h-2.82031v37.2002h2.82031c2.12012 0 3.83008 -1.71973 3.83008 -3.83008v-29.5303zM336.367 460.009c2.25977 0.429688 4.24023 -1.29102 4.24023 -3.4707l0.0195312 -86.7598
c0 -1.96973 -1.58984 -3.55957 -3.55957 -3.55957c-1.9502 0 -3.53027 1.58008 -3.53027 3.53027v86.6602c0 1.70996 1.15039 3.26953 2.83008 3.59961zM195.037 579.488c0 -2.11035 -1.71973 -3.83008 -3.83984 -3.83008h-2.80957v37.2002h2.80957
c2.12012 0 3.83984 -1.71973 3.83984 -3.83984v-29.5303zM442.707 444.338l4.98926 -60.46h-9.96973z" />
    <glyph glyph-name="Acircumflex" unicode="&#xc2;" horiz-adv-x="490" 
d="M281.8 867.17l89.1396 -130.84h-68.1699l-67.29 71.96l-67.2998 -71.96h-66.4199l89.1396 130.84h90.9004zM488.659 4.33984l0.0126953 -4.34082h-162.5l-0.0898438 4.33984c12.0898 8.41992 14.3496 46.0898 4.59961 97.46l-13.5195 61.3203h-147.6l-13.0498 -60.6602
c-8.91016 -49.6396 -3.90039 -81.6494 4.31934 -98.1191l-0.0800781 -4.33984h-158.75v4.2998l0.00976562 0.0400391c18.96 9.80957 44.2598 60.5596 60.4395 125.13l110.56 449.97c10.6396 56.8604 -6.64062 99.6904 -33.4004 115.95l0.0195312 3.51953l149.6 -0.0195312
l140.92 -576.88c16.21 -60.9902 40.29 -108.25 58.5098 -117.67zM189.532 255.979h107.66s-47.1797 219.91 -53.9102 255.41c-6.73047 -35.25 -53.75 -255.41 -53.75 -255.41z" />
    <glyph glyph-name="Acircumflex" unicode="&#xe2;" horiz-adv-x="490" 
d="M281.8 867.17l89.1396 -130.84h-68.1699l-67.29 71.96l-67.2998 -71.96h-66.4199l89.1396 130.84h90.9004zM488.659 4.33984l0.0126953 -4.34082h-162.5l-0.0898438 4.33984c12.0898 8.41992 14.3496 46.0898 4.59961 97.46l-13.5195 61.3203h-147.6l-13.0498 -60.6602
c-8.91016 -49.6396 -3.90039 -81.6494 4.31934 -98.1191l-0.0800781 -4.33984h-158.75v4.2998l0.00976562 0.0400391c18.96 9.80957 44.2598 60.5596 60.4395 125.13l110.56 449.97c10.6396 56.8604 -6.64062 99.6904 -33.4004 115.95l0.0195312 3.51953l149.6 -0.0195312
l140.92 -576.88c16.21 -60.9902 40.29 -108.25 58.5098 -117.67zM189.532 255.979h107.66s-47.1797 219.91 -53.9102 255.41c-6.73047 -35.25 -53.75 -255.41 -53.75 -255.41z" />
    <glyph glyph-name="Atilde" unicode="&#xc3;" horiz-adv-x="490" 
d="M321.63 839.37l59.6807 0.000976562c0 -67.0596 -34.96 -103.04 -82.1602 -103.04c-29.71 0 -52.4404 9.80957 -92.6406 32.71c-11.3604 6.54004 -16.1104 9.80957 -24.8506 9.80957c-17.4805 0 -27.0908 -9.80957 -30.5908 -38.4297h-61.6699
c0 67.0498 36.71 101.399 83.9004 101.399c29.7197 0 50.6895 -9.82031 90.8896 -32.71c11.3701 -6.54004 19.8604 -9.82031 28.6006 -9.82031c17.4805 0 25.3408 11.4502 28.8408 40.0801zM488.66 4.34082l0.0126953 -4.34082h-162.5l-0.0898438 4.33984
c12.0898 8.41992 14.3496 46.0898 4.59961 97.46l-13.5195 61.3203h-147.6l-13.0498 -60.6602c-8.91016 -49.6396 -3.90039 -81.6494 4.31934 -98.1191l-0.0800781 -4.33984h-158.75v4.2998l0.00976562 0.0400391c18.96 9.80957 44.2598 60.5596 60.4395 125.13
l110.56 449.97c10.6396 56.8604 -6.64062 99.6904 -33.4004 115.95l0.0195312 3.51953l149.6 -0.0195312l140.92 -576.88c16.21 -60.9902 40.29 -108.25 58.5098 -117.67zM189.533 255.979h107.671s-47.1904 219.91 -53.9209 255.41
c-6.73047 -35.25 -53.75 -255.41 -53.75 -255.41z" />
    <glyph glyph-name="Atilde" unicode="&#xe3;" horiz-adv-x="490" 
d="M321.63 839.37l59.6807 0.000976562c0 -67.0596 -34.96 -103.04 -82.1602 -103.04c-29.71 0 -52.4404 9.80957 -92.6406 32.71c-11.3604 6.54004 -16.1104 9.80957 -24.8506 9.80957c-17.4805 0 -27.0908 -9.80957 -30.5908 -38.4297h-61.6699
c0 67.0498 36.71 101.399 83.9004 101.399c29.7197 0 50.6895 -9.82031 90.8896 -32.71c11.3701 -6.54004 19.8604 -9.82031 28.6006 -9.82031c17.4805 0 25.3408 11.4502 28.8408 40.0801zM488.66 4.34082l0.0126953 -4.34082h-162.5l-0.0898438 4.33984
c12.0898 8.41992 14.3496 46.0898 4.59961 97.46l-13.5195 61.3203h-147.6l-13.0498 -60.6602c-8.91016 -49.6396 -3.90039 -81.6494 4.31934 -98.1191l-0.0800781 -4.33984h-158.75v4.2998l0.00976562 0.0400391c18.96 9.80957 44.2598 60.5596 60.4395 125.13
l110.56 449.97c10.6396 56.8604 -6.64062 99.6904 -33.4004 115.95l0.0195312 3.51953l149.6 -0.0195312l140.92 -576.88c16.21 -60.9902 40.29 -108.25 58.5098 -117.67zM189.533 255.979h107.671s-47.1904 219.91 -53.9209 255.41
c-6.73047 -35.25 -53.75 -255.41 -53.75 -255.41z" />
    <glyph glyph-name="Adieresis" unicode="&#xc4;" horiz-adv-x="489" 
d="M144.703 855.189c28.8408 0 54.1865 -25.3457 54.1865 -55.0605c0 -28.8408 -25.3447 -54.1865 -54.1865 -54.1865c-29.7148 0 -55.0605 25.3457 -55.0605 54.1865c0 29.7148 25.3457 55.0605 55.0605 55.0605zM299.397 855.189
c28.8408 0 54.1865 -25.3457 54.1865 -55.0605c0 -28.8408 -25.3457 -54.1865 -54.1865 -54.1865c-29.7148 0 -55.0605 25.3457 -55.0605 54.1865c0 29.7148 25.3457 55.0605 55.0605 55.0605zM487.663 4.33984l0.00976562 -4.33887h-162.506l-0.0839844 4.33984
c12.0869 8.42188 14.3467 46.0947 4.59766 97.4639l-13.5186 61.3184h-147.603l-13.0469 -60.6582c-8.91016 -49.6426 -3.90332 -81.6592 4.31836 -98.126l-0.0839844 -4.33984h-158.748v4.2959l0.0107422 0.0439453c18.9629 9.80664 44.2588 60.5605 60.4395 125.131
l110.564 449.974c10.6338 56.8604 -6.64062 99.6885 -33.4072 115.941l0.0234375 3.52637l149.596 -0.0205078l140.924 -576.879c16.21 -60.9922 40.2861 -108.247 58.5137 -117.672zM188.527 255.977h107.668s-47.1836 219.917 -53.915 255.411
c-6.72852 -35.248 -53.7529 -255.411 -53.7529 -255.411z" />
    </font>
</defs>
</svg>
